<mxfile host="65bd71144e">
    <diagram id="z4QgWK1_QnixFyjWpqkx" name="ページ1">
        <mxGraphModel dx="1505" dy="1156" grid="1" gridSize="10" guides="1" tooltips="1" connect="1" arrows="1" fold="1" page="1" pageScale="1" pageWidth="827" pageHeight="1169" math="0" shadow="0">
            <root>
                <mxCell id="0"/>
                <mxCell id="1" parent="0"/>
                <mxCell id="2" value="AWS Cloud" style="points=[[0,0],[0.25,0],[0.5,0],[0.75,0],[1,0],[1,0.25],[1,0.5],[1,0.75],[1,1],[0.75,1],[0.5,1],[0.25,1],[0,1],[0,0.75],[0,0.5],[0,0.25]];outlineConnect=0;gradientColor=none;html=1;whiteSpace=wrap;fontSize=12;fontStyle=0;container=1;pointerEvents=0;collapsible=0;recursiveResize=0;shape=mxgraph.aws4.group;grIcon=mxgraph.aws4.group_aws_cloud_alt;strokeColor=#232F3E;fillColor=none;verticalAlign=top;align=left;spacingLeft=30;fontColor=#232F3E;dashed=0;" vertex="1" parent="1">
                    <mxGeometry x="80" y="280" width="440" height="220" as="geometry"/>
                </mxCell>
                <mxCell id="3" value="" style="shape=image;verticalLabelPosition=bottom;labelBackgroundColor=default;verticalAlign=top;aspect=fixed;imageAspect=0;image=data:image/png,iVBORw0KGgoAAAANSUhEUgAAAZAAAAGQCAYAAACAvzbMAAAABGdBTUEAALGPC/xhBQAAACBjSFJNAAB6JgAAgIQAAPoAAACA6AAAdTAAAOpgAAA6mAAAF3CculE8AAAABmJLR0QA/wD/AP+gvaeTAAAAB3RJTUUH5gMWEigVETkd8wAAgABJREFUeNrsvXm8bUlRJRx5eEwCIpOKgoozgwyi2CCIzIICMpTKUIBSzGM7gCAItoytqIDM2EJRgAKCqIADKgKtLQ0y+Ylj09qooIJMSgFF5ffH3RFrrYjY555z30MouZsfde87d2dGZkSsyBWRuc8eN/7vXzfNzKZNGzbMzIx/zPTT+Pcx4m82p40x5D78Ef8eB7faGMZ3ivwxVJ5JG+qOPpiLfG7ZiDcbvXx8mPSwRQGuA7PJzWOg2nzpd/BYzVyDOr9O/oS+qf2BsniWqheaYJnA6KZPgscYIYtl6vhVx5CfFTd5tqGLrfa1EfdOozmTLrrZmdhhhtFj/I18HsCw3BH9e6zIZ5uQHg4+V58T/S0iZui72qHtc5fx6/Th83MuUxlxz+74d5uYrTnQLvgP+WG/3eOP+tm6/vO1Ff8kaXAA2jIAtsG2+COfDvV1922bHPdOHv8lfrJ+Bf/r8WcsscpldPg/IZ1z/zZtLg0nLxQ8sDnhHxJQFoVQAICjQlG2OCIr1weY/9r5xpyzfrhYaLJyx4CeOdAfDDKaMUDMzMZcxj+Tbgb9usga3ImPX/RHyrdQgM0xiwKqfIvgEoHGh0068M9DL4Pm20xgzm33kB0mglsATO6E/ANnXMY/3DF5GXW/gPppzWWPP9CNYc5uVwf4FGdMbUU3rjMHKi1E5AAxe1ffIGC5A0387mNZC17Qn+oGgcZszhR0Ri/fseT+I3NJq69rzebSJ99HAJhxzy74d1xMwb9gLJon/034B356/FvC/xyjg98K/i3ZGfFjK/6N8D/T+Ffxf4BNDdYwYBs/RX7FP1CS5Wvw7vDP9xz0jfGOVfxj8bJswYDPOv437JBzTjIKr3CNkqj/ANSEg2NBGXnc+HQ6GQKgZ4D6wOgMtmxqiIfiJi0YUOp00iVdzPBVBO7JQWUYAs+KdGYYLF/Hxj0Mn151SNJfDmszoSz0x2OZodBoC8N3EyDmMy3Z32+E/Bwj59QBHLRXP2HH6zzoYHGAL7D7DdZEZv3kQKzKAJ/bXoJVynqSZVwHbJ8gO+QXzL4Z0PCfoj6baf4HgUr1EvanYY6u/VCfJwOKAl18jL8DgDX452AS+KeF42BFBVnp8B+6AlkQv4T5hFy1+E8qralA0t/id2jRMOyj4l9daB3/Of7Yqvpb/KudGWfr+LcUf0IPMwneAf+Qsh3/G5/IIIM7tNCSjc0gVXC7wiY58tQIA0XZohzXRCPfJxXsu/RZUypnhHNikpnZMxPBUjioS2/M8gEuJvgwC8GGggjkTzCuqSKjr+GOhRlOdtGQ7/qz/ppoW8YvE6DZD3dY9jceKLHfyDASmlR8OHRkDIv8GbOKCWNdJfdTxk3tORNI6XrcG/JZfdQ+bMZ2Nyiguj/5T8pkwnRDPkvqo3LWwuSLAZfATIFB1nPGT856Fl3kTEQDnP+DqbiJLdy+s1GAYupAPuC7jv+c2a3hf8R/M/5tK/6txT/ZiuIE9Hc4/lfjT8J/zMUI/2LAHv9q/iH4946nOnDAdw3/HH8cM74Izkk2NduKf+rBGP9h32XOG++Qa80aSQZkMTYmASocbYApRpo18vSScrgvDE6A4MrmMpnkWBroRxh0ViOFeF5k2Lv9ziGGHCMFGyrfFV34+Lm8ZKPIZ4xStYXuZ+bD7Z3xYe6mzYV5eAmIGRjL975cr5Xlcc3Vwk6dfCP5MiqRD58TW3hwJVs7oLheHiSGDIipuHPTcDPaYhGmgJQidiZusH5lqzVgpUsWm0FrOLdRB2hK22Wx1oC4Lj/WWlV/0l8UjBJzJUVSHyWg74B/Tmy2458XwrEz/iO4UYa2hn/L+A/5sLcJ/k3wP8nnXL4gdgf87xx/YiIagNnnU/gQ+bE8s04PwX/ZYZT9LeB/E8494Tze+TRmH/4ZKxSrb1lEln9LepdtObwvSqcHUt7JLIlZzewXhlwfRHo6C0idPTm4VPE0T07vGfBSpoLxRD4Zsshn7iNEkgL/hCNHe9IT66+wIs4SJlgXnB1IRn2ezTdJf5l9YUHihVsukj+TfKE8JF/nMhl/ZZEczraTzw0yRvivtIecvEkPY87w52BkU5YbCgi8OW+iCxmzBFsfpwdH9iUOQ8y+6WOxdG0/E/5cPnBl4j9apj41+J8kfzbyt+N/9vZjXHQLA2W70Pku+E/1fYqta/jP2afYn/6d8e9eMGx7/PEOWL7+YdCvaAPvmVU+x08pfzjG98f/JlKmZhHhcoWsQJTmeMqUy1nMCJAR0EUdeB18kvwIsiKfWJwZBZgGqBLYUmmBygQjnJiYgNPWgYxMGTDNlfUQxnFnbhg1j99miBKgik6mymTRFOBS5aXoQ8sdFvLBuqoTsfxMfzm99/4l4Bf5ZfrmaccUoKhNrBcPUFDpRLKyRWd5Yc0ZBJdukdVAqTUh5qWf9EdAjVMw7f5Zkk8bvQh0pJPFxrVcAcXkMiWf0Kl7mqw/E1/PlYhSriQVdvgvJHL07cPnBf9jB/wXF0i6MNJfh3/NaoD/2ePftuM/JQ0hf5ip/JQ9mWHPjNVvJN8XT79HMwKOtRX/0ScPchX/3IjcP+G/iz9zTttgYcuhJ4036m8Tg/OOdDidhUWx6shmgVtumk3TsDoNcKyrUe7V+ndlZoqzITrh1F7qw95fMDNlydDTCMsok8B+QDAu6mDSeGqJr5dfYWaS2jOTG2U86z6QWXUQoGA36+05NZaN96hFVN8p3QmrPBjASPJpHbSV5gqIKEX4iSTuYBb3C3kwgM3iwEou6sKrgERmpowPOqFg1S7oyS5JTtYA+w+pv7UdWLEV/8n4n1t8JwIq66/gfzayt+PfYVW8t2Sd1X/588PwD2so/kfCU8PedKAl/mzHP09U8Z/6XYs/0XyEAxf80yKiHsd94D7F/7DNiBYjKT4hkWuiGA81G9V5m5MqCO6qa6pogMUbUktmD2vMeCTHqeeWZzCRvBHHFRE5iUKsiNlI1FpJb7opaeYbvMrKfF5T9TZIg5P+neTLgkQJmWd50xJwRL6FXrIjsC7W9jT4fmHvSz2jW7iz+4ReZkySfIfsFeqf2fzFR90GkcpzMJ2zNh/Zx5ftdN9shAFCfjBUD7zhC2T7KAWmZ1aai8uwrlM9Bu17RlpaXOvXDwRMM5HPQQB3Yi6ilKRbXiRct1h4k+8V/AOXjnv/GfJ1Ajvj3+2Xhg2Jh+KfNbMd/yof2UwmIuKb7BNQIH4mLGf8Q33r+J8pAA+Sh9AwKv6H4j/7UNiPpsV7kFn+JvQTK5NvoDHTBlNj62PlNBNenp08n8wgptyejBpsOB82Vl51ULSHTjSQbTuZldv38nV15pAkaeCcMtqcgcVfKfX0ACeZjQMpp+bTnWLy0AN0XC4s7pFtUeIQ9Nst8tBfzI5YPWUClhx0Jjkj2d/Zd5Ivm3xqfjILPuBTclKH75pvaY9AXDMQZ47cfvINiwOFv7H6yR+zScL+Um7p9oAIKykO+sI3UoCzPD4edfEfM8U/6Y/wL32v4F8OOfj4W/wn91vBfyzstPoxxgT/mcicNP7h8yO1V/z73X0FRHyFxo/wuwRuBBBSs+J/hO5n2M8C/xmh7LSK/+w/oT/SJzJ9yPe2m7gDdxpvXnOaI2eKCUnSPHt42uAUUDmL5WTHGYgwrj7bEBY6YsiqODJk3ofJTCvLF+ITusjy6ZLNyNK8zkVWejDItQ5ye1lwFs+bW+SLLSwHGVBAqRIQ26y2mHFP7lNPbdW+eH8se9Cc0DU/dFlskQhD1MwnbGHkc6qLRDiW6XMgNmJeMWYeaZLvDhR7M5R5i07SJd/AEAtFtuBo/Jds759RBpQ3e/kUDogQTb/g3wOd4l+zONWr4x818wb/kunUDmrFgth+MQD8DMlF8utD8J91qvEnZmUR9MVW4pRhA/5o1f6J6YdP74F/mP+I+Cfsts/sjTx+lb9hO0yWnFiG1v+9V6Sz3g/YHq+eZLDFKnAOOJIybmt+h3xO83N9U+M6gctZ5uIU/NUWOtJePrMqZotSHw4QivoWxsAnkdw7EUhxFFCDOFQ+ZSwlnWX5hb3quPi440xzanckBrMQ1hVtWFp+5kTl5zF52q37Uyn7Hcry+JCBgy+XGDP75YwZhxwo9s7k01MZdZdlSjmLGWVN7YIZdllI6IICVpRRGv3x77lka53Nw9YZawdj7fA/aZ6InxX/pZy1Ff9chejLWVtPXcUdXfzR/dXCi0gP28tZHf6H+nzBP/lkYwcehuCiw7/1+Gf9KP7RvsSfLn52+LeMf852qAPCv9timJewxEg+45qG5e+uyZlDsxhLoJCTAKnfYJtEXDRdHmkEvKDqSSJd6EkOMbC6yMAhuI9y30hywh8S6yrSSSu5xBQBkXORTr7qFsw7GWA5YofgMJq2ml1mNgIzIUur5oMCcjYj9efE8hoD0sJOxud+4yNiScQIlU0vvqZpAvwwmhO94oA5wMhkMcUfVZeDF3Sdw9wmny4OWF5GweLc2X+qqJSNdGUUGTMtakU+j3PNLxL+u2y92q/HP5qnANLgX1rEBLbgn9rrd2dlrVT81ypDxf9s8a/zgp0OwT/ZTrZPbPvl+Of4I/GricsuJy8o2c7cQYf/EznNDnsvq9XwVWpZlYJpBlNEaov2c/keGMfREEOGTEot4di+AlLQGyyfGCfVOONvi3z9YrplXZdglcstiaHJdwSBFXuaL0cUyXH0s4P7KMwi0xhJfxilheKNSnyqvqQTWclYUsg3DBsVHikt1GObqKkX86UNXgAws8C1L7xjxojhs04sBip2NbJrKoGIT0x8JqyWSjulBMPZ2IAdlAwNsj98De47Az/iv+KX/RfTacAk3SQH4GOvIV8BFN8jBvlTfi/PbmSbsB0CP4uOGl+BjQ36c91mX48qBPsvt1++/2npQOMPse8Uf9hPOCbI+Ennh+OffZiqFw3+4b78mT5vEov2Cv7Df4icdfjnOCz68+xDb+ya6z4ZxZoO/96IIBp22JgOXYheSZHLUpgYQXSgjDUfvQt4pOBCXEHvnczu8jPJNH43sAOCQSXOYEFgWL6pBpRFDXy6LPmiCX6uIJTesk1NbZgR4mQSf60DDYu60P0PLFAxfpY/VXQzfPPyED+xns+7ty6A4ctA+Ws92kCTdDJZz8kBZa+EY2VxP81q64klsOvKAC3RPRo/F6cGN8Ag5qze4/+XTUsz8XuldfqxylcHyJlpOR4tY8tP8qsVs5SMf67XZQZb5FOiwAtvNlc2oONf/L6NP2szoedaUvzp8D9VfI//Ln6t4B/xB/gfHf770sby7x7/mkWMFfzTIYwG/yl8NPJpYaNKSJ5A7mcDMDFPXgDBOk2pmmw2znwT2qe/0PI1Y2a+UoM9K4tkEVynl3piSru8Xiy3GJQkNe7JjA6Co+I6tH0EkBgmyXfjzgRqmpvro+iEjMv/EydmgkrymQWpAfSBRHabLn314UC/yoiL+RZ5ZX/Q6GTTqJmJ3JsIwmwcMJfa3L4xNCdcFA5xckjrvLxox5xihgA4TrbkfRo1gLr/SN4j1Bj1btdNVgbFF9Scs1yWj6fZk6vRjDr9YbN/G/4j65DxZ/wTI6YhdvifjQNV/NM8mvizjn88xCvjN/7J8sn/OvxThhw+QviH+2n88b2KFv8TWI1WXBrw8ZMHcWZo7PMJ/27G2APkGJt1S7+XFcbjz6T4s4L/DTdy5w/u1NHNrnQTDjqUBK/QVU6deCMoTl4UCiPiA3hIPflBG4uUXr//qco/+Ds2wvWp4BUG7sYIBS3/pwAjz0egparaP1nGqhthzj+GqWVN7j0gGnigDsyCDaBsm50x5JOOmUXp07ud/sTnyFjd/JP+klbyYr7mgPF0thndRwQjZSHS+dJnLp2K1RlMbpssn5giOiAyVOTTAOLQRa7JJ4Ig+tMRTLIxtnryySFoV3Qy4KOjGLDif9RBKf6JpccpqRG3rtpPb6BvrjBVfyO+KT0p/i3wz53RILbi30qjNfyzfCzmKFut4t9Yf+oTQTjYf7j9SBCXLJOzzawA9BL4YSUn/NviH93+JeP/RGiIa73Lf8v30TsloLSJv/ZAO5jH7xM5fp+IOGXUt1dKWfogndnx+0SY9UE3vOd1/D6Rin9L+D9+nwjYvOx/mZ30+0Q2nNLp8UusgjOMzapaQMgpbdPeCKyiJOigyI+V2Wjg0sHyaWRoAHRhZ6ztJB/iobhJCwaUOnX6bufwVQRuORs+zCS1b6Rzhs7ydWzpZDkTC3ZI0l8OazOhLPTHY6GU19vm77jSCcxwaJRccr4D+aXMNXUAekxwGQEtPJ0H4WAD0mqoaYhvcJBiB2JV6n4HMewcJNP9LoKzQ+8i8MO6bwAtZRlVXymTBNsWQGMfMLP4XGaV/SmuSZACmVuvAsAa/HM0D/zTwkGZcRd/OPMuz0a5X8J8Qq5a/CeVFtaQ8K/ZGeGfneeo+FcXWsd/jj+2qv4W/2pnxtk6/i3Fn9DDTIIJ/xsxamygABpSs4/ZLkyCUvxBBvf2PqhgD/ErpXBxDxxukiOL8onRBpN0TTTyHdD8jbDap4LYDIxQaqaJ2TMTwVI4qEtvzPIBLilhxUgINhREIH/CFlNFRl+xrudnGNQA0J/110TbMn6ZAM1+uMOyv/FAif1yCWKsig+H5m8U9gwPPhcOaE70XawybmrPmUAum/i9IZ/VR+3DZmx3gwKq+5P/pEwmTJfLSqI+KlMR/uRaAjMFBlnPGT856xH8t+IL/sX+mIHUzjP+4dMo9YgzNvjPmd0a/kf8N+PftuLfWvyTrShOQH+H4381/iT8x1yM8C8G7PGv5h+Cf+94qgMHfNfwz/HHMRN7xpNsuthqA4dWhTGHDf9KvsgdcjlLIwnaC3ubBKhwtAGmKJt7Mr2kHO6rq6/S+sRlsli+4ZSoD2PlLkYK8WmDPtWw5RmCJVhIsKHyXdGFj5/LSzaKfMYoVVvofmY+3N4ZH+Zu2lyYRxxHJAbG8r0v12tleXpU1e3UyTeSL6PK+1kUpMIWHlzJ1g6ofHYvNhqjLx3LyPFAgq0HMQpIKWJn4gbrV7ZaA1a6ZLEZtIZzG3WA5D40GVahLihr8mOtVfUn/fHDcMxcSZHURwnoO+CfE5vt+OeFcOyMf+xFUEBfwb9l/Id82NsE/yb451OnLl8QuwP+d44/MRENwOzzKXyI/FieWaeLz2989XMdyPfgTM4+ZtzDjBNt4DxxCsmYfcxoy+xd5U9VXCefbZnke6DCOIklpUWyc4xcH0R6Wk8k8fluCRZcX58wpAScUqaC8UQ+GbLIZ+4jRJIC/4QjR3vSE+uvsCLOEiZYF5wdSObvboL5Jukvsy8sSPmUFju4y59JfnZATtO55MVd5kUyjismn+Nj3uG/0h5yeI8uvJNLjs5+xX9T9kSLa9i/CeYabH2cdGiE7S9+SgSjAIjb4PeZ8OfyFf8CYHx+ivB/WPzZjv/Z249x0S0MlO1C57vgP+3vEZ9Yw3/OPsX+9O+Mf/eCODxjffzxDli+/mHQr2gD75lVPsfPZdQbT1nkC9AIWOXElTAAQ8rULCLdiQtnET6dkJ/KWcwIkBHQRR14HXyS/AiyIl+zKuCzAaoEtlRaoDLBCCcmJuC0dSAja0+vywoP+bBJw6h5/Iav5RCgik56+/lY3XdS5aXoQ8sdFvLBuqBTjctTGxnk19Khmlfll+mHA04BitrEevEABZVOJCtbdJYX1pxBcOl2KigW/yX3E0vAgec0ASp/D1TdP0vyaaMXgY50sti4liugmFymlCems/1I96jucODv8Z/9p8N/IZGjbx8+L/gfO+C/uEDShZH+OvxrVgP8zx7/th3/KWkI+cNM5afsyQx7Zqx+I/m+ePo97YmuuFfxH33yIFfwv5khN4eO7G6JFTmDiKizpT3VNqL+S0aUFa+3sCiWJ+GzLgQ2m6ZhdRrgWFej3Kv178rMFGdDdMKpvdSHvb9gZsqSoSf3TsiP9sbMTCPwpPHUEl8vv8LMJLVnJjfKeNZ9ILPqIEDBbtbbk/uIfHbAsvDl7oRVHgxgJPm0DtpKc12QoxThJ5K4g1ncL+TBADaLAyu5qAuvEgJkZprxQScUrNoFPdklycka2Af/YMVW/Cfjf27xnQiorL+C/9nI3o5/h1Xx3pJ1Vv/lzw/DP6yh+B8JTw1704GW+LMd/zxRxX/qdy3+RPMRDpzxv4EIT8nd2CN1NOhOOOSIP42k+IREroliPNRsVOdtTqoguCcno5Q2WLwhtZTxrzDjkRynft0EzkjnjTiuiMhJFGJFzEai1kp6001JM9/gVVbm85qqt0EanPTvJF8WJErIPMvLZELlW+hFF4Kc2dVgoDXl5nmZ0S/c2X1CL8kBR5IP9c9s/uKj8uQwRQNnYKX5yD6O52ZiMXE/X+QHQ/XAG75Ato9SIGUBK8SOy7CuUz0G7XtGWlpc6zfjf+yIf1FK0i0vEvgmX+BffK/gH7h03PvPkK8T2Bn/br80bEg8FP+sme34V/nIZjIREd9kn4AC8TNhOeMf6lvH/0wBeJA8hIZR8T8U/5tgZob0M27Q3AqrOBphoY37fQONmTaYGlt/Uh/Cy7OT55MZxJTbk1GDDeeWwcqrDor2cEoNZNtOZuX2vXzlgxySWJccuAojYOZKqacHOMlsHEg5NZ/uFJOHHqDjcmEJW9kWJQ5Bv90iD/3F7IjVUyZg6qDIHGAasb+z7yRfNrbV/GQWfMCn5KQO3zXf0h6BuGYgzhy5/eQbFgcKf2P1kz9mk4T9pdzS7QERVlIcbPGfhTX4V/8xU/yT/gj/0vcK/uWQg4+/xX9yvxX8x8JOqx9jTPCficxJ4x8+P1J7xb/f3VdAxFdo/Ai/CylFACE1K/69TBX7RcsEwv1VuwJAxv8mZcgmRzdlxYVig4VwwIJ2jDeveYNRzhQTkqQ5KShkcmARn27O5jsDEcbVZxvCQgdNL4XPto5LjjCsly/EJ3SR5dMlm5GleZ1LZDHeezozn+Wn9mq/YV6zX5MvtrAcZEABpUpAbLPaYsY9uU89tVX74v2x7EFzQtf80GWxRSIMUTOfsIWRz6kuEuFYps+B2Gyqd6S+snx3oKgAUOYtOknXIB/GQpEtOBr/Jdv7Z4z/uTv+PfAo/j3QKf41i1O9Ov6xZ9fgXzKd2kGtWBDbLwaAnyG5SH59CP6zTjX+xKwsgr7YSpwybMAfrdpf8E8+vQf+Yf6j4X8Dq9FPNo7/Lsc5xCRUXyXJiWVo/d8NiXTW+wHb49WTxrGMBc6BsSrjtuZ3yOc0P9c3Na4TuJxlLk6Rv2zPDpHPrIrZotSHA4SivoUx8Ekk904EUhwF1CAOlU8ZS0lnWX7nCzQuPu4405zaHYnBLJV1xV9jk585Ufl5TJ526/5Uyn6Hsjw+ZODgyyXGzH7Z53HIgWLvTD49lVF3WaaUs5hR1tQumGGXhYQuKGBFGaXRH/+eS7aH4p/7Wsba4X/SPBE/K/5LOWsr/rkK0Zeztp66iju6+KP7q4UXkR62l7M6/Kfv2Cr4J59s7MDDEFx0+Lce/6wfxT/al/jTxc8G//RdWK5P5rPJYYdoU1ZHymrkXtm0TkwnZw7NYiyBIsvnfoNtEnHRdHmkEfCCqieJdKEnOcTA6iIDh+A+yn0jyQl/SKyrSCet5BJTBES1XZWvugXzTgYYA8csnY2XtppdclordqYsrZoPCsjZjNSfc5pcDUgLOxmf+42PguYZM0Jl04uvaZoAP4zmQwFAIqSUpR0w6RX7VfyMhJ8kny4OWF5GweLc2X+qqJSNdGUUGXODf7E+47/zi4T/Lluv9uvxj+YpgDT4lxYxgS34p/b63WVZKxX/tcpQ8T9b/Ou8YKdD8M+xm+LPCnrUpin+SPxq4rLLOZHT1FiF0/sEfPXh786JdJMmFPaO+ynQTAPTtNwnt5/H7xNxpxyDgKpH/ER/GKWF4o1KfKq+pBNZyVhSyDcMGxUeKS3UY5uoqRfzpQ1eADCzwOybMteQ5cNnnVgMVOxqZNdUAhGfmPhMWC2VdkoJhrOx4/eJwA6Bn0VHja/Axgb9uW5X4w/7L7efx+8TsXX8cxwW/Xn2oTd2zWP+kYFEykcLtbKAw9axqc0pYWhrleUDlq+MNR+9C3ik4EJcQe+dzO7yM8k0fjewA4JBJc5gQWBEf0mBor+BT5clv2iPN2FZAS0HzMEr0tsB/bGylDoI44YMGj/Lnyq6Gb55eYifWM/n3VsXwPBloPy1Hm2gSTqZrOfkgLJXwrGyuJ9mtfXEEth1ZYCW6B6Nn4tTgxtgEBV+I/4/Z3K2dl9ClYIsRNlp6CvZrxyPlrHlJ/nVillKxj/X6zKDLfIl/tDfrPOdin/x+zb+rM2EnmtJ8afD/1TxPf67+LWCf8Qf4H90+O9LG8u/e/xr+B4r+KdDGA3+U/gI+Rt3JtmgppXW1aylioGANYauWMt/o1w55U/hjLLZOPNNaJ/+QjR4xsxisz/Ys7JIFsF1eqknqjdEvVhu8fEPOn/NnyUFRsV1aPsIIDFMku/GnQnUNDfXR9EJGZf/J07MBJXkMwtSA+gDiey2PP+kPtKvMuJivkVe2R80Otk0amYi9yaCMBsHzKU2t28MzQkXhUOcHNJ9Hl60Y04xQwAcJ1vyPo0aQN1/JO8Raox6t+smK4Pii/vvKHJZfsV/9uPR6m83/EfWIePP+CdGTEPs8D8bB6r4p3k08Wcd/3iIV8Zv/JPlk/91+KcMOXyE8A/30/jjexUt/iewGq24NODjJw/izNDY5xP+3YyxB8gxNut2+f8Gpd70VDM7Y2Jm7amkMAxxp45udqWbcNChJHiFrnLpiTeC4uRFoTAiPuaK1JMftLFI6fX7n6r8g79jI1yfCl5h4G6MUNDyfwow8nwEaV5U7Z8sY9WNMOcfQ9qFg4R83AX7ZwMo22ZnDPmkY2ZR+vRup7/kPtFRN/+kv6SVvJivOWA8nW1G9xHBSL4unS995tKpWJ0XU7dNlk9MER0QGSryaQBx6CLX5BNBEP3pCCbZWPA/EItYu6KTAR/dBf+jDkrxTyw9TkmNuHXVfnoDfXOFqfob8U3pSfFvgX/ujAaxFf9WGq3hn+VjMUfZahX/xvpTnwjCwf7D7UeCuGSZnG1mBaCXwI+ZnZDSQfJXdqjMGnyV4pqk2msev0+EdcPTj8lM8TWfAergrD/SDcW14/eJmMg3YpbH7xPhrA+64T2v4/eJVPxbwv/x+0TA5mX/y8w2nOPxMVVZxT1w0Cqm9f1loHOSUrEKzjA2q2oBIae0TXsjsIqSoIMiP1ZmI1hKByOyLU/x3XEKO2NtJ/kQD11MWjBYgbmO6DF8kkdzHTL0zKl9I50zdJavY0sny5lYsEOS/nJYmwlloT8eC6W83jZ/x5VOYIZDo+SS8x3IL2WuqQNAyYbsTAtP50E42ICMHWoa4hscpNiBWJW630GkLAfJdL+L4OzQuwj8sO4bQEtZRtVXyiTBtmVBX8F/bj/U56WkRApkbr0KAGvwz9E88E8LB2XGXfzhzLs8G+V+CfNJLGvxn1RaWEPCv2ZnhH92nqPiX11oHf85/tiq+lv8q50ZZ4p/+SoTV20pvWVmPh14Q43q/ydoSM0+ZrswCUrx+fiwt48BEMBlhUzg9nFMcmRRvozf6PQJg5PGPwmgk+afciE5HTTWn1pFHdkicGIpHNSlN2b5AJeUsMh+ARsKIpA/YYupIqOvWNfzMwxqAOjP+muibRm/TIBmP9xhGa88UGK/XIIYq+IjqPA3CnuGB58LBzQn+i5WGTe150wgl0383pDP6qP2YTO2u0EB1f3Jf1ImE6bLZSVRH5WpCH9yLYE549/0H7w3haaM/1Z8wb/YX+IPeWDCP3ya4g87Y4P/nNmt4X/EfzP+bSv+rcU/2YrJdujvcPyvxp+E/5iLEf5LAK/4V/MPwb93PNWBA76u8k0AzVQ5UU7L/iX+xA6tCmMOG/6VfJE3dqQ0JpEE7YW9TQJUONoAU5TNvWYCySCogWpw466lTBbLN3SB+jBW7rGiQN8oCxunGrY8Q7AECwk2VL4ruvDxc3nJRpHPGKVqC93PzIfbO+NTP2D5cjTbwU4MjOV7X67XyvL0qKrbqZNvJF9Glfezks9jbfMMAPIk+zbA0cR/dSwjxwMJtiBh2RZG7XlWsH5lqzVgpUsWm0FrOLdRB0juQ5NhFeqCsiY/1lpVf9IfPww3yH9IkdRHCeg74J8Tm+3454Vw7Ix/7EVQQF8NoPmAzgxZbm8T/Jvgn0+dunxB7A743zn+xEQ0AE/z78Iib9WnDnj1n+JjOK1CYHVH9clNzj5m3MOME23gPHEKqZEPOWA25Uw6aabIZ1sm+R6oME5iSWmR7Bwj1weRntYTSXy+W4IF19cnDCkBp5SpYHuRT45U5Iv92E8o8E/4Q7QnPbH+CiviLGGCdcHZgWT+7iaYb5L+MvvCgpRPabGDu/yZ5GcH5DSdS17cZV4kh7Pt5HN8zDv8V9pDDu/RhXdyydHZr/hvyp5ocQ37N8Fcg62Pkw6NsP3FT4lgFABxG/w+E/5cvuJfAIzPTxH+D4s/2/E/e/sxLrqFgbJd6HwX/Kf9PQq1a/jP2afYn/6d8e9eMGx7/PEOWL7+4UDqRnfukdx78GhPXFGa4ymTfAEaAaucuBIGQH01i0h34mKEfHc4dxQYEUwgZwR0UQdeB58kP4KsyNesCvhsgCqBLZUWqEzA6g8m4LR1ICNrT69HUNDADZs0jJrHb+nk3cT90ElvPx+r+1uqvBR9ZP9x+WBd0KnG5amNDPJr6VDNq/LL9MMBpwDFMiQ68QAllU4kKzPHT26uGQSXbqeCYvFfcj+xBBx4Tpav3wNV98+SfNroRaBT/KfKVNKwPlgpwU0W9ox/Ku8RANbwX+NPxX8hkaNvHz4v+B874L+4QNKFkf46/GtWA/zPHv+2Hf8paQj5w0zlp+zJDHtmrH4j+b54+j3tia45bQNmpozL2PUoEGElVjdeO5GQe+MTOpEKOjVYu6i2EfVfMuIUCa2FRbGsA59AIbDZNA2r0wDHvjbKvVr/rsxMcTZEJ5zaS33Y+wtmpiwZenLvhPxob8zMNAJPGk8t8fXyK8xMUntmcqOMZ90HMqsOou+BfIsPkftoJk0OWBa+3J2wyoMBjCSfYGErzXVBjlKEn0jiDmZxv5AHA9gsDqzkoi68Sggq/iFf5HiwLf0muyQ5WQP74H9b/Mn4n1t8JwIq66/gfzayt+PfYVW8t2Sd1X/588PwD2so/kfCU8PedKAl/mzHP09U8Y9+Nz4QYcm+atI48Lg/W55FeEruxh5pHIPuhEOO+NNIik9I5JqoEwxpNqrzNidVENyTk1FKGyzekFrK+FeY8UiOU79uYgYTyRtxXBGRkyjEipiNRK2V9Kabkma+wauszOc1VW+DNDjp30m+LEiUkHmWl8mEyrfQiy4EObOrwUBrys3zMqNfuLP7hF6SA44kH+qf2fzFR+XJYYoGzo5L85F9HM/NxGLifr7ID4bq8DPFKB9gkSxghdhxGVbxjyxkLPRUSX3fb8b/2BH/opSk2zb+EP7F9wr+gUtkY4bSUVbLHvh3+6VhQ+Kh+GfNbMe/ykc2k4mI+Cb7BBSInwnLGf9Q3zr+fYzxbbxySobrsGQUOUWU9OCOP3iC2gFWcTTCQkuZDfZRZpVP1p/Uh/Dy7OT5ZAYx5fZk1GDDuWWw8s5GAdR9/I0XkrWTWbl9L1/5IIck1iUHrpKRMHONNNUiwElm40DKqfliH5GZ/IcXErmyLUocgn67RR76i9kRq2f/1QUKmQNMI/Z39p3ky8a2mp/Mgg/4lJzU4bvmW9ojENcMxJkjt598w+JA4W+sfvLHbJKwv5Rbuj2gPfGfhTX4V/8xU/yT/gj/0vcK/uWQg4+/xX9yvxX8x8JOqx9jTPCficxJ4x8+P1J7xb/f3VdAxFdo/Ai/k8M/a0cyZC59bXjCYNa64vmVz0RzIGBBYPzNUT+aogQsaMd485o3GEU+IUmak4JoUuRYOv5yNt8ZiDCuPtsQFjpoeil8tnVccoRhvfyk/mB4Kp8u2YwszetcIovx3tOZ+Sw/tVf7DfOa/Zp8sYXlIAMKKFUCYpvVFjPuyX3qqa3aF++PZQ+aE7rmhy6LLRJhiJr5hC2MfE51kQjHMn0OxGZTvSP1leW7A0UFgDJv0Um6BvnwOv5H479ke/+M8T93x7+vu4p/D3SKf83iVK+Of+zZNfiXTKd2UCsWxPaLAeBnSC6SXx+C/6xTjT8xK4ugL7YSpwwb8Eer9hf8k0/vgf+NT6QcKFH6YZ5OxXG7SQMqzKyufnqcQ0xC9VUaeGIZWv93QyKdjTF5c1k9aRzLWOAcGKsybmt+50MGztaoPbGRYlUjlr44Rf6yPTtEPrMqZotSHw4QivpQTmEaHCdx+GsMPAjUDuToX5POsiFm5ws0Lj7uONOc2h2JwSyVdcVfY5OfOVH5eUwHgQi2nOSIHNwkY47sDeDLJcbMftnncciBYu9MPj2VUXdZppSzmFHW1G4JqH0WErpI+F/TH/+eS7aH4p/7Wsba4Z/jD+JnxX8pZ23FP1ch+nLW1lNXcUcXf3R/tfAi0sP2claH//QdWwX/5JONHXgYgosO/9bjn/Wj+B/8bbwQNYIODNZeXiut/JPqaHFMLNNJEsjrWUlmmno2szE2doy/LsYSKLJ87jfYJhEXTZdHGgGTGz1JpAs9ySEGVhcZOAT3Ue4bSU74Q2JdrZXw99xtzvpaMpV0C+adDDCWp3jj49G01exyip/pouufVPNBATmbkfpzTpOrAWlhJ+Nzv/ERk6ZRg7xjoNkrDD+M5kMBQCKklKUdVDwOXtB1DnObfLoy/gcHl6S+3INmy5SNFbvQmBv8i/UZ/51fJPx32Xq1X49/NE8BpMG/tIgJbME/tdfvLstaqfivVYaK/9niX+cFOx2Cf47dFH9W0GNmpu8D0QHP+Aw8a1FWML2D+7ovdTt+nwg9gOT6k2CVyy2JoR2/TyQ+a8yXNngBwMwCs2/KXCf5+ETnkz8bQ+1qZNdUAhGfmPhMWC2VdkoJhrOx4/eJwA6Bn0VHja/Axgb9uW5X4w/7L7efx+8TsXX8cxzerK2KYCH+B2KbhUFTykcLtbKAbesYXJ+JXkmRSxeJEUQHyljz0TtzfaTgQlxB753M7vIzyTR+NzAtyCSNnMGCwIj+kgJFf4MsMLRP1x5vwrICWg6Yg1ektwP6Y2Vp6iCMGzJo/Cx/quhm+OblIX5iPZ93b10Aw5eB8td6tIEm6WSynpMDyl4Jx8rifprV1hNLYNeVAVqiezR+Lk4NboBBVPiN+H/Zq2z3JVQpjP/ZOMAq/kUvrL8eQXTXKv65XqejGFW+xB/6m3W+U/Evft/Gn7WZ0HMtKf50+J8qvsd/F79W8I/4A/yPDv99aWP5d49/Dd9D8L9Jo5D+o+bMzEjqdc76zDiL4LKKq1lLFQMBK9oxT3b5pNOUqslm48w3oX36C9HgGYCNzf48x8R6scLz05lFw8vcSH9kL67XI+tiRgfBUXFNqWoEkBgmyXfjzgRqmpvro+jEe5l4NkHsxjpJ8pkFqQH0gUR2W55/Uh/pVxlxMd8ir+wPGp1sGjUzkXsTQZiNA+ZSm9s3hubMjMIhTg7pPg8v2jGnmCEA6DV7sG0uSUE36v4jeY9QY6nX67zh62GDSQcKUmayDf/Zj0erv93wX+JPi3/KiGmIHf5n40AV/zSPJv6s4x8P8cr4jX+yfPK/Dv+UIYePEP7hfhp/fK+ixf8EVqMVlwZ8/ORBnBka+/y09EbCBLC6yeMAm4tbcK07PdXMzpiYWXsqKQxD3Kmjm13pJhx0KAleoatcevK1Vk5eFAoj4mOuSD35QRuLlF6//6nKP/g7NsL1qeAVBu7BOBS0/J8CjDwfQZoXVfsny1h1I975x5B23gjycRfsnw0wkvckRpgOYjCL0qd3O/0l94mOuvkn/SWt5MV8zQHj6Wwzuo8IRvJ16XzpM5dOxeq8mLptsnxiiuiAyFCRTwOIQxe5Jp8Iguivx79l/A/EItau6GTAR3fB/6iDUvwTS49TUiNuXbWf3kDfXGGq/kZ8U3pS/FvgnzujQWzFv5VGa/hn+VjMUbZaxb+x/tQngnCw/3D7oRA/EcpvtK0nLg4650A3zcz4fQLJX9mhMmvwkypck1R7zeP3ibBuePoxmSm+5jNAHZz1R7qhuHb8PhET+e7jB//2PRYIcoLB6nefUOPa8ftEjt8nEuNo4LeCf0t2RvzYin8j/M80/k/j+0Q2eUNN2Bmz+FymiSBC4IqSQVrFPXDQKqb1/WWgIh+r4Axjs6oWEHJK27Q3AqsoCToo8mNltsQiSf5wH5/K9Ao7Y20n+RCf9M+ZSwA3tVrUP8mjkVaTnjm1b6Rzhs7ydWzpZDkzK3ZI0l8OazOhLPTHY6GyorfN33GlE5jh0Ci55HwH8kuZa+oAULIhO9PC03kQDjb4GFhNQ3yDgxQ7EKtS9zuIlOUgme53EZwdeheBH9Z92kSPkoXQXRP5Gf9ZL6v4z+2H+ryUlEiBzK1XAWAN/jmaB/5p4aDMuIs/nHmXZ6PcL2E+iWUt/pNKC2tI+NfsjPDPznNU/KsLreM/xx/r1S97IJ5OqUOqAKRwKdC40gwPkyW/FUbIJwRioLFiARpSs4/ZLkyCUnw+PuztYwAEcA6HGdw+jkmOLMqX8RtKGMLhafy+wDn7Ln0qiN0GundCAA3WB/VjKRzUpTdm+QCXlLDIfgEbCiKQP2GLqSKjr1jX8zMMagDoz/prom0Zv0yAZr/IVrzyQIn9cglirIqPoBIZA9e/yeddhBN9F6uMm9pzJpDLJn5vyGf1UfuwGdvdoIDq/uQ/KZMJ0+Wykqiv4L9mLUtgzvg3/QfvTaEp478VX/Av9pf4Qx6Y8A+fpvjDztjgP2d2a/gf8d+Mf9uKf2vxT7Zish36Oxz/q/En4T/mYoT/EsAr/scwPEioA66Ays4G9rE4uqlyopyW/Uv8iR1aFcYcNvwr+SJv7EhpTCIJ2gt7mwSocLQBpiibe80EkkFQA9Xgxl1LmYz1ZxroR+g7bw4zuNIGffzD79RNxTidQQNgHxFd+Pg5G7VR5DNGqdpC9zPz4fbO+NQPWL4czXawEwNj+d6X67WyPD2q6nbq5BvJl1Hl/azk81jbPAOAPMm+DXA08V8dy8jxQIItSFi2hVF7zcWG6IXZ6mH418Vm0BrObdQBkvvQZFiFuqCsyY+1VtWf9McPww3yH1Ik9VEC+g7458RmO/55IRw74x97ERTQVwNoPqAzQ5bb2wT/JvjnU6cuXxC7A/7nNP8yRVISbVIJsBPI5Sl08lZ96oBX/yk+htMqBFZ3VJ/c5Oxjxj3MONEGzhOnkBr5kANmU86kk2WKfLZlku+BCuMklpQWyc4xuJwAxwB7ZgXy+W4JFlxfn1hIJOCUMpXaVUIBpfciX+xHM+HAP+EP0Z70xPorrIizhAnWBWcHkvm7m2C+SfrL7AsLUj6lRQ5PeFD52QGjTClzmYy/Hj9c/+f5iv/k9pDDe3ThnbI/OZGQTFlupEDExz0Pw7/W5+nQCNtf/JQIRgEQt8HvM+HP5Sv+BcD4/BTh/7D4sx3/s7cf46JbGCjbhc53wX/a36NQu4b/nBCI/enfGf/uBU5INuwEObXs6/eAwQwgTXJcrISrJ64GhuIpk3wBGgGrnLgSBkB9NYtId+JihHx3OHcUGBFMIGcEMv3owOvgk+RHkBX5mlUBnw1QJbCl0gKVCVj9wcqctg5kZO3p9QgKGrhhk4ZR8/gtnbybuB866e3nY3W8pMpL0Uf2H5cP1gWdalye2sggv5YO1bwqv0w/HDB8nRYxgkQnHqCk0olkZeb4yc01g+DS7VRQLP5L7ieWgAMHjgn/CCZqkXxMWU8OclYD/KfKVNKwPlgpwU0W9ox/Ku8RANbwX+NPxX8hkaNvHz4v+B874L+4QNKFkf46/GtWA/zPHv+2Hf+paBHyh5nKT9mTGfbMNq6JbKh14NX7OsZl7HoUiLASqxuvnUjIvfEJnUgFnRqsXVTbiPovGXGKhNbColhRixPrTGCzaRpWpwGOfW2Ue7X+XZmZmmWITji1l/qw9xfMTFky9OTeCfnR3piZaQSeNJ5a4uvlV5iZpPbM5EYZz7oPZFYdRN8D+RYfIvfRTJocsCx8uTthlQcDGEk+wcJWmuuCTKWsWTqYxf1CHgxgsziwkos1/I9V/EO+yPFgW/pNdklysgb2wf+2+JPxP7f4TgRU1l/B/2xkb8e/w6p4b8k6q//y54fhH9ZQ/I+Ep4a96UBL/KHvwuKUPJ/Mqur0FYqaMkv2VZPGgcf92fLcq6fkbmwsMKJVX98nnCj+I4pPSOSaqBMMaTaq8zYnVaCXpBVKaYPFG1JLGf8KMx7JcerXTcxgInkjjisichKFWBGzkai1kt50U9LMN3iVlfm8puptkAYn/TvJlwWJEjLP8jKZUPkWetGFIGd2NRhoTbl5XmbYqs+z+4RekgOOJB/qn9n8xUflyWGKBs6OS/ORfRzPzcRi4n6+yA+G6vAzxSgfYJEsYIXYreMfWchYmLCS+r7fjP+xI/5FKUm3bfwh/IvvFfwDl8jGDKWjLizuiH+3Xxo2JB6Kf9bMdvyrfGQzmYiIb7JPQIH4SVjehCJ8KR8qAEqc9TNaueSUDNdhyShyiijpwR1/8ARnEhYlF+ReoR/KbLCPMqt8sv6kPoSXZyfPJzOIKbcnowYbzi0DpjwbBVD38TdeSNZOZuX2vXzlgxySWJccuEpGwsw1ylQWAU4yGwdSTs0X+4jM5D+8kLTOxmm1DBH67RZ56C9mR6ye/VcXKGQOMI3Y39l3ki8b22p+Mgs+4FNyUofvmm9pj0BcMxBnjtx+8g1T8Z8zoDX8h/2l3NLtAe2J/yyswb/6j5nin/RH+Je+V/Avhxx8/C3+k/ut4D8Wdlr9GGOC/0xkThr/8PmR2iv+/e6+AiK+sox/QxQ+/igngug0QfewEU8YzFpXPNw2klNPER2OFIy/OepHU5SABe0Yb17zBqPIJyRJc1IQTYocS8dfzuY7AxHG1WcbwkIHTS+Fz7aOS44wrJef1B8MT+UnO8416zVziSzGe09n5rP81F7tN8xr9mvyxRaWgwxn0G2TxhacxWifemqr9sX7Y9mD5oSu+aHLYotEGKJmPmELI59TXSTCsUyfA7HZVO9IfWX57kBRAaDMW3SSrkE+vI7/0fgv2d4/s7X4Q4Zq8O/rruLfA53iX7M41avjH3t2Df5TpSB3UCsWxPaLAeBnSC6SXx+C/6xTjT8xK4tFS2wlThk24I9W7T+nbXhFysGRfx/N5/J3GvAkNsueMhdW6rqTk1z8s5GvxznEJGGHyX6bWIbW/92QSGdjTN5c2DuNYxkLnANjVcZtze98yMDZGrUnNlKsasTSF6fIX7Znh8hnVsVsUerDAUJRH8opTIPjJA5tvPksmw7k6LFxmp8NsHKCicYVJbhyaqhu/HrUkJNUDKpEWDgbWbMLShD5e6pS9jvIPhPjdjbq+uISY2a/7PM45ECxdyafnsqouyxTylmC/6bEFHbdHf9r+uPfc8n2UPxzX8tYO/xz/EH8rPgv5ayt+OcqRF/O2nrqKu7o4o/urxZeRHrYXs7q8J++Y6vgn3yysQMPQ3Cx2OQEOznYlHtC7zCQwsENovDVD6I9Wc0KvwyHpq8PsFQ2YwqY2FFJZkZtz9lIzm5WFmMJFDJRcmphm6o+kh/hspmOniTShZ7v12DFJ2tcgcI8KA5d5Uuuabe95vfb13zRVeySF7mMHV/H16m+/vXf/8Xe/S9/Zr/xp2faX7zv7WZmyU8PrlxG1WwZmVNXNkeS3h15P7hjUAYyJf6s47/L1iV+IG2BQI4f0UYHunZoQILENvxTeyWbdjj+LcfvYUZfy6PhVL8phOcVrbvTqdd7zFfO8t1Aqpu0aamppR6FzOzZ+6mlg7XvJmrTfappjqohpItFylIaClZnYJrsxrxDygoIki21Cxr/SmqZSgf6PUbsbO6ckMU6wTR16e1s0ivwYBzfe6172enXfsB6CfL4Or5O4XXuPNde9ifPtF99+//YH/9mNZhviT9K5Hr8x7/iA312Zlv8CfLYxh/EFG1ev7ZpDf8cfxj/En+OjH+jv+sRc/xCBFjKesjIe70eDHYTydWE3XRl0xTSTG6oLJ5u6b70DWWL5DMyAJfOaethwW9qc6optrXK8oEqgPWQj96FmWTuvGmnKzmXAJWnqPxga3JiiJ1Cy35KVKZlBQ4bduUv+Ua787Xvf7x4HF//YddmbOz233hv+/ovvoaZabZxcG3Bv/GtRFJXEER3reKf63U6ilHlS/yhv1kXgSr+h/X4x7/XZkLPtaT40+F/qvge/6tZiPYJ+fgmbC8PlztTJWbjv/P+otT0XCjVzko9bKX/qDlznVrqdV6OcZau+sqrYXzmjID2I3iVniGfdJpSNdlsnPkmtM+ZTSr0ovxHWUo5JSL1Wa+hpnqieoPqj21C9Xqk7yvvE7Bpt/umH7DNKK99Ob6Or0/rtRkb+86rnL5AhA88HI7/7McV/xR/DsF/iT8t/qlKQEPs8F/2Y/mwj+zPrMefdfzjIV4Zvyn+IR+ftfiPDAUlfuzT5TgvSxn2q5JRoL+DP52QVXIglXHDwdDLZ1QHyww4P82LNEtXQKx0UG6wDJ5LkG2Sb1R/Gxp0Y/xG7fMaR5vG/H1b7Ez9nk2a69JXaEhKaamDlJnlTMPnOBKYMtNi+a7frH+ewLBhX/NFV7Hj6/j6TFxfeekrLb/1+Dfjvbpctj2414QqUQkrpxNb8a8ALM9ArcSfdGh06XII/nlOWf7Ygn9m+GaK/64kV+Zqa/jnmwffLvLHyPHFF3P6OhVRgI7VdXECCtYHbw6EUd2MN5VSTbAct6NJwbZoH7+b2fH7RMhnU8rJf+0qUP0BB9jGxjjeMD++PmPXJT7v0ma2jv+DvyXSM/r4w5vqeU+z29A+ANvSJ98XGwv+9D72RLbj3zOU4/eJ8Pg38lBZHBPDTRzsZB+j2UTPZa3R1SF5uJP7nSI/r+KyMU2rZy5p1VNP/DQ1q8rTuP/k7xM5vo6vz+QlVYRuH6SPP4L/3H6oz0tJiU8tGSchM8EG8afgn6N54P/4fSLUNK6NbvgMGJZqb3ll9fPQOes4+IZTTquo9mZInaYshWpuT+Ok9JaZ+ZxRdxSjxoo1Y7S8yqPUuDCJAUXyl9JJ3kkTwK+T7vV74HDy1CorX8ZvIT+XnWL8KbWv+0h1Ec9PrR9fx9dn9KI9gIz/WrVA/Emld/mHPg/hTRn/EM1bEBn/EXgtxx8qmyX8u3zj+CN1/4r/XNlZw/+wNfzbVvxbi3/eB6HFNvRntFCnun3E+ZX4M3HrJgYUhtKNFzZuXv1mMih/VnxIFgvvG0bi89kuP2VYZeEVmUlhvL8R/pV8UR9Q+8/5PpHj6/j6jF/TlBEP9V/dJ12LP7YV/4fHn2YboeAflY7j94lQ/KAyonfji+BGA6dF5I4qHK1+KcQbgispKZ14yMaGQbm0gzSNB47vjvFFghyS186BNPH4fSLdaZbj6/j6zF4abB3/ODTi1/H7RBr5ZhL/0paP0U1S8kL2McsifareJ3Iiv09g+OwWxcaCGOL5EJeJE+TTQflUUHIp2VzThSu9T0AYgQ+P1ndm3+EQvCLT9zRRhQq+Q4Yf9X0Csafh/qRDWRyF61zpic0ltZ46fZlLrDuje58AZ0RwGDhSXajXDjasXd/55CujXMm1UkqvJzlY0KDmxAg3z4cw8NQ+Fuy1DlQE+QkBY+0h0nzxYY9yeKLcWwil6IJ/5pLtmsrRF7Uv+lt03YmKueGbUHNmL2Dtm9NAXJ1c8knf7UUdZE948d3fspNflYdqPSDJQsKB7uAuwT+TTerZe+Ts223tc8UzbGlOUUYy8as5zDr81/hDvkb7qCM5DvYk03eaFfz7vbvgP/tbxr/qZJQ9Uco0FpDBLSYNkL/Bm2Mu4s/G0z+UsTjHIp27z00J3W6NsvlcH+G39nPU63Pdnk84eYrGK/Eg6X3q2vXGD/VwOXRruYcU4PIllc3jZQvTvEeSzxPIw5/0X+4rH1LQLM8/H+Xewy41yxCdcLCX+rCn3MHMNMuEngAEZUL0PMtMGhQz0/dEif6q/DZ+U2rPTG6U8azrK2fVEdO8fLLFhzJ+JJIs8nPL0p2wSrM4Qk7yBb59c4w/Skkeztfx76ZV/O969fgfq/iHfI4zHkdrXEl2SXKyBvbB/7b4k/G/TSuuN9Ffwf9sZG/Hv8OqeC9nLUkfRc4ynm34hzUU/2MseyDO0HG8lpkMNlw0G8nUCDlZPplV1ekMmZqGfHgLG+n4fSI0/hZIGtSMZO1y+f5j1HbJkfL+UATegUAk8w2VNqU9Cvyit0EanPTvJF8WJKjExjLfTCZUvg+T2ar6Ru+znFXz+CnTHusLN7tP6CU54Ejyof6ZzV98VJ4cpmjg7Lg0H9nHgf+Z8C9fwaEJzm7XColZxz9OAjm7VlI/2n4z/o/fJ6L++Ol6n8jGO+MjZLu8T2BEO76B0rUCovrkOtqayNdyFoyCLIK0Nal/O36fCDvFvhnIXJWvfFCOfpMuOXCVjIQzV2dzyz3T1L4BpJyaL/bJTwyz//BC0jobZSM6ROj3+H0ih+N/3ysv7DyOsH8sHFzOIvvvi/8srMG/+o+Z4p/0R/iXvlfwHxvrPP4W/6wgCyKQ8R8LO61+jDHBfyYy6WTmtvixPf5QFr203ywqi/vwsAxWHItx5a98t1ip+MNcf/POj98nUr8yPz9R68Go1sxVz9CVMojklntfLL8kmUZ13Ayk+HDNes1cIovx3tOZ+Sw/tVf7DfM9uzX5YgvLQYYz6LZJYwvOYrTP/+zvE9n1On6fSIP/VCnIHdSKBXy2xh/4GZKL5NcrFYlSabEu/sSsLBYtstUmFEEp2szsT1gyfkc1aUrnohzLjKu6YB4wy2FP8XFFFpQ31+a6fD3OISah+qrBbxPL0Pq/GxLpLGdmzkgsDStYSClnJWbUTT/ucF04W6P2ZJujXdvlM6titij14QCh9hrlFKbBcRLn+H0ibFPJfgf5xcS4nY26vrjEmNkv+3zIpUAIAIRAYdRdlrmfWx2/TyTsS7HyP8P7RDZNXruMawG3zTQYZcz+eT3BgeCw4lXZx6KzMdCetJfXytpdjNv5bHLYdGKF+WRJZpp6dvruzJI5KEOE0TxQZPncb7BNVR/JH2kETG62vE9g5wsLEveh5hvwAb8nnDyxrtZK+HvuNmd9LZlKujX2uJT1yVbZGE1bzS6n+BmNf4ZlGvNBATmbkfqzrRiE2KkczaZTQ8JSmW273UPPzKaHqQJo7rw3wBk1B8zhNtgR/1uuuU2+3Me6c3I1VC9iQ+pXkhXKxopdaOgN/o1bMv47v0j477L1ar8e/2ieAkiDf2kRE9j1fSKjfhx9V/zXKkPF/4l8lDKzYd5kDDA4iz7I18pRwIO5sYH3eZ+IroZ8hDJW8mB6jXwf/1D5zj75u3Mi3aSAFvaO+ynQTE9DoQf0ye3n8j06hsWQHYFSbB8fHNt1OGT8spnpjJNqnPE30sl+ZDExNPmOILBiT/ONx9/4T5RAxyCgUqaRbcJWjqCv3yNE6ks6kZWMJYV8w7BR4ZHSguqUP2vMlzZ4AcDMAte+8I7JDYbPOrEYqNjV6MGyVAIRn5j4TFgt4a+UYDgbG7CDkiFWxo6elbC6hn87BP9+U4t/BVDBfxd/HP/W2YTt4J65fND5Cmxs0J/rdjX+sP9y++X7p5YONP4A/zn+sJ9wTJDxk851/B3+2Yc9e4HODkpYvJ7zKjpGdCwH6vw/tGL7xL059MGrOK+ueXCqfL/l+H0iZHDqYKzIDwPTgrzrpbXnhsUNssCIGYj2eBOWFdBywBy8ouwzoD9WlqYOwrghg8bP8qeKboZvXh7iM/N83r3TuOpPB8rfR9QGmqSTyXpODih7JRwri/tpVltPLIFd1wzQUhpO4+/wv/OlhxYWRfS/r+B/Ng6win8ZXp8F5owwS8n4j/gz8ihGlS/xh/7Waq3iX/y+jT9rM5kIkyNnzIlM+yeSEDX47+JXwv/GqJlMc+rJDK3TeiuwrYYEGodESdVdYQ2TYZ+PmjMzI8vy9SvQWV/MhrVUMRCwoh3zZJdflAN9GG02znwT2qe/EA2eAdjY7M9zzOoLhoanQ6Fw8YZSRz7sWnufCNg663Sw+RXgHtxdfkrtYg+r04n3MvFsQnl+p7ofGCE6IAPw9y9p4MbQZlYf6VcZcTHfIi8v1t4+s73OJJkgzMYBc6lN7EtOhm9omKjZp30eXrRjTjFDxb+t4n/XS6hxwf8aJ2P8jxJ32AEq/rMfj1Z/u+G/xJ8W/5QR0xA7/M/GgSr+aR5N/FnH/3/8+0Q2I0RDeMSChkHK90UF0yPDmBUGl1dAn0RbehIWUtsbObOXF3xisTBGFuWtlZl1jNDCMFiDWwbflW5YJ6yaFaLGpafYa6K0OjOQzMz4uKoLmwlMNtL8Drl4c61mIFU+FBQOgHkEg0lpA6vaP1nGqhvxzsOGtPNGkI+7YP9sgJG8JzHCdBAjshAbxql9Z7++pE36a/Sf68rZxGGHFQfE09FG9xHBSL4unS995tKpWJ0XU7dNll/St0MuTgEPwb/tgX/L+PdAlzOQJv5IhhZjrPgfdVCKf6kSDIk/HfxK6ZnnNIaGry34h34q/i3wz51Ve/iX33YnZkV/K/gfY9gJmLamkrzCrdec4X5Dx2fH7xNZ5in7AGRLKltJHdb1nPt2RjNojEY+m1LOleeyD7lgG1agTD8mM8XXfAZR8jj0fQKGWjN34uMX/bkzE1DNqFZPDl/kI8OK+rkPm4P5SA8iOqtn5dJoOfGs97D/btmzY82Tjx/82/EDQY40Vj+TNu7Y6/DMcB1z7kuti0zYxj+o+N/tAh8g1nuK8H/wt0R6KFs+fp/IiHE08FvNJmucX8f/xqaWFEq9PgVLzH4BmwCK6/BuRE4MESSlvju0fUhgFp/LNBFECFwkX1bxSeNfmmp9f0TKrqceGKxT5o40rnmfALU3AuvgsYejWpEfG9eWWCTJ92zLU3zXUWZn+1yc1o+kwFTlCfVP8mik1aTnURmrkKGwnsqHaogswHj9gkT6w7qWgj374DQZGY5Zo217GAERIACFkkvOdyC/lLmmDgAlG7IzLTydB+Fgg5YskJ0Rq6JAwg7EqtT9DiJlBf+7XYH/uR3/Lntb/Mn4z3pZxX9uP0xijpSUSIGcna0CwBr8czQP/NPCQZlxF3848y7PRrlfwnwSy0p2hgBMfpOMmOKvZmeEf3aepdsNp20Hfbkxw6Ow+hGjwkQGjWzAsEheysoatdWEKE+n/GI8u7KRwqVA40ozPEyW/FbG76xMjBorFqAkNfvQxcIkKMXn48NQnMkE8CulwHEPHG6SI0+NMDR+o9MnDE4af08w2ou/ADP2nkJnyuxZ/VgK2Q+8MbNvgEtKWGS/gA0NHPInbDFVZHI/54Y0ZjUA9LeijIm2ZfwyAZr9IlvxqgDS/US2Xys+gkpkDFz/Nvg8J+DkvolxU3vOBHLZxBj/tDE7U/sdL8Gv4F8zmUBv3lRP8hn/NWtB/BH8m/6D96bQlPHfii/4F/tL/CEPTPiHT1P8YWds8J8Si1X8D6v459Je3UdG/Kn451hPi23o72DIm3DU0M0UggcNUYAKENKAJt+sqSRc06TnmQzKn1Xx6mxgHz5+VY4DKZMG6ZdlJoUxhw3/Sr7IJT4pjUkkQXvuwMspMYuczsrmXjMBWdARKGt9dbeLA+UIfefNYQYXLzJG3g1r86ai7yuwARnkogsfP2ejySvZ54Q4Tr6fqRe3d8anfsDy5Wi2g12yb41SESfC5zTP0ifTu0VaL/3WgpQVukzyeaxtk1YSiwU1n93zEi760rHIcPNqu2cW4vZgvXC2ehj+dbHx+ANrdYcdavyxrfg/PP5U/FvBP3Q9Ev7dfXkxkIC+A/45sdmOf14I6dg3l8k5fvq8Y3+KCeWaAg98bhMraapJxsSysiNtR11PgoWUHHT1SyE+BiSLA8ufVT4MOvgfbeCYvoK4ssnHcFqFwOqO6mPl8l58powTbUx1MXv5kANmU86kk2MW+WzLJN8DFca5RwpitIgwSIg9swLjKVpVP6Xs0LOcCCJn5SbFFi6N0nuRL/YjtXDgn/CHaE96Yv3lrEiyBPdfCvhcVebvboL5JulPwR76G7pwJ2MQHlR+dsCoVctcNANt8cP1f54v+8/I7ZksHn65OTL+uUDEh3UOw7/W5+nQCNtf/JQIRgEQt8HvM+HP5Sv+BcD4/BTh/7D4sx3/s7cf46JbGCjbhc63438TFg6gYkJRf1N1hyHlxE0ozqmQLSua6YIo0PdVU1MnTqfWvdVZV2jRR4U+c7mApiC13smKVyZQTlwJA6C+mkWkO3ExQr7P3h0FRgQTyBmBTD868Dr4JPkcZPe56sbv4gkin75zitQfrMxp60BG1p5ej6CggRs2aRh18sHBHUzcD5309vOxivs33rbmPy7fdYGFIsfliiC/L/u6BPwiv0w/HDB8nRYxgkQnHosylU4kKzPHT26+b2aL7tX6in8mCvw9UHX/LMUf2uhFoFP8p8pU0rA+WCmlLVnYM/6pvCckvMd/jT8V/4VEjr59+Lzgf/T431KRgL/lhXqs4F+zmmnL+0AQDVlBCqbi0FzKcnY5+w44tQcTofvC8Ph8HXj1vo5xCf+mQISVWN34sLqusOeleaSCTg3WLlJA1H/JiFMktBaOwDobO7H51F77ZiBL1yPbQB3LrDIzNcsQnXBqL/Vh7y+YmbJk6MmBAPnR3piZaQSeNJ5a4uvlt+GRUntmcqOMZ13fZf+QmCH67Ntn/MiisMgvC1/uTljlwQBGki/w7ZsfipP1+ff4n8WBlVys4X+s4h/AEDkebEu/yS6r89wf/9viT8b/tmqB6030V/A/G9mMhzT+GFfjvSXrrP7r1wbaQEobdbBFMDPEiA+TPh18bh5ZgC+VkiUPBBRxDkrJ88msqk5nb9SUWbKvmqQ7PO7PludevSTnxsYCI1r19Z2n6P8RxSckck10AFBoNqrzNidVoJekFUppg8XvyRZHcpz6dRMzmEjeiOOKiJxESVmZaxo+Nki1VMpY/l1Z2UG/PEfoEeWX+HfJCsOBxak9y8tkQuVb6EUXAkFHG2S1ptw8LzNs1efZfUIvyQFHkg/1T6sAVh91G0T5goPpCv53vVBy6vGPxMTThJQFrCxY6/hHFjKa+LPWb8b/2BH/opSk2zb+EP7F9wr+oWRkY4bScRcWG/z74pqdnX0kuQbsv4p/aKa+D2T4BpCGCOFZJfXhI6x05rksgPRNutGOb4D8CqJZP6OlU07JyD4MjCKniFQPy7KHDbB8xBKFVOqZiSNlNtDfrPLJ+pP6EF6enTyfzCCm3J6MGuw4u13UvXEg8vGsncwykj+3yGc+yCGJdcmBq2QkzFyjTGXhp5LZOJByar7YR2Qm/+GFpHU2ykZ0iEBIt8hDfzE7wRNv5GodPskZyf7OvpN8wV8BsKVf0hHUnfG/+5Xxr16hDhT+xu3NVvEf9pdyS7cHtCf+s7AG/+o/Zop/0h/hX/pewb8ccvDxt/hnBVkQAcUfnoHj1Y8xJvjPRGYL/iMD8VUQtT2qw5Ei4uLyWmQiFo5MW6xokoCJcQz5UE4E0WmC1QeYiN3BUXr5lp0qdSlHN2XFhZxgIRyw4CkWeyLLnTgZNix5VW2uiiHq1umvns33YNSeQtlyaZ04A1UDo36uOy0svySZRr6UgRQfrlnPDPXuRVucKRODXOsgt1f7DfM9uzX5YgvLQYYz6LZJHX/4hZU+9dRW7Yv3x7IHzQld80OXxRaJMETNXFKeFfzveI00gcb9zRr8+2Tloc8V/COT24b/0fgv2d4/s7X4Q4Zq8O/rruLfA7XiP7LDhH8z4B8xtcF/qhTkDmrFAj5bDQA/Q3KR/HoL/jfMCOUnBwdizNjkTIqgFG1m9icsGb+jmkQrIg2Ofx/N5/J3rHcihz3FxxVZEB//4Z+NfD3OISah+ir5bWIZWv93QyKd5czMGYmlYQULKeWsxIyyD+x46UkhciD6O0oHnOZXBRb1+31SSyW2F35kwt681yinMA2Okzj0Lb/mQaB2IEePjdP8bICVE0w0Lj7uONOc2h2JwSyVdcVfY5OfOVm3C0oQ+XuqUvY7yD4T43Y26voaLf7VgIL/ffyqyTKlnCX4b0pMYdfd8b+mP/49l2wPxT/3tYy1wz/HnxE3V/yXctZW/HMVoi9nbT11FXd08Uf3VwsvIj3kctYGY9fV1KM7KzI+h044uonQ+I4nm2kwypj9c6lPh5xtDy1llozOxkB70l4SO2t3MW7ns8lhh2izTL+wVcv6U6aTMwdliDAa7JEboN9Y7lV9O18or6gY1hNng3WR8QVBVVXuG0kOpcXCulor4e+525z1tWQq6dbY41LWJ1tl+QSM6J0WD8okoFcQsWo+KCBnM1J/XjMksVPeE2DjC0tltu1BLfTM+B+mCqC5jz2cymwr/gd9DvzrHLbGH5aT8D+YXKQh5x40W6ZsrNiFxtzg37gl47/zi4T/Lluv9uvxj+YpgEj8zgGBVqvAc4N/at99c/oJHrik0HOWoCRHS6nOJiWsxIZ5kzHAEP0s7UdS7NR8RDctNbXUo5CssCwfNXQ+9lbk+/j/E71PZNcLYqAf0Z8Eq1xuSQzt+H0i8VljvrTBiwiWWWD2TZnrJB+f6HzyZ2OoXY3smkogUpab+KzD/x5elcjQDvg3q99RJn7Z498Owb/f1OJfAXT8PhGOPzx+0vmc0/dAXG/MAvKpJtMJhd/Res6rqG/GE0sb/J8pPaL0iu7pb5M/VEbYKN9vyaeyeMwZA1MGoK5fTlW119TmlDC0tcrygSqA9ZCP3oW+U3AhrrAi75DxO1ujBZmkqb4zgTrI20WB+n1jZIGhfbr2PMBE0GrZpvokM0I+RDFYD9l8A4FK9MnjZ/lTRTfDNy8P8RPr8j1cjcWleQIQf61HG2iSTibrOTmg7JVwrCzup1ltxb+y612vvfEfn1MWIvbrY4Gt4H82DrCKf9FLnwXmjDBLyfjnep2OYlT5En/ob9b5TsW/+H0bf9ZmQs+1jJwxV/w7X9nEv5jFGADtpQGuszp54Xog1ng4HU625DqttwLbakigcUiUVN0V1jAh9vmoOXOd2rJ8epAx6YvZsJYqBgJWtGOe7PKLcqAPw6kPWA7sz9unvxANXm5wRsHlDK4573xpeiz6Y5tQvR5ZFzM6CI6K69D2EUDEzsQinQUyqGluro+iE+9lTuP/sS2tuh8YITogA+gDiaxSnn9SX+BHBTbmW+TlmBz4S9leR/51X8K/i04dMJfaZJ+AnGxsxX+WtcO1I/6lnCLeI9S44H+Nk7H/jiKX5Vf8Zz8erf52w3+JPy3+KSOmIXb4n40DVfzTPJr44/7Ae3t+U+CHx2/8k+WbbWLFC1zju7CilsxOS5ueI5geZS9c82sYpHxfVDA9MoxZYXB5BZTjxqxYMT4zNh0BHzfmjfyYa2RR3lqZWXsqKQxD3KlDWle6YZ2walaQysfrYq+J0uqjZCAzgSns2/QhpbOBjXB9KniFgZOtUavHIspsLz/9Lqr2T3ivbpCDG3Sj+mf5uAv2zwYYyXsSI0wHMSILMWTg6/pL7hMddfNP+ktayYv5mgPG09lmdB+mnX1dOl/63KuENbbgn+QLGSryaQCH4N/2wL9l/A/hIqHd2cQfydBijBX/ow5K8U9ZQpySivjZqbN+uwWytKHhq5l+Lr1Glkf4t8A/d0aDoPYnOpY6/T9RB6QVLiilBTsRY9OAeYVbrzkj6Awdnx2/T2SZp+wDkC2pbCV1WNfzHivIoI7Btsk2WxaS0pOPi3XD04/JTHFQnwHq4Kw/0g3FteP3iZjID4wY4weCHGmsfiZt3PHW94nsetGYS81eSsOH4L/En5PH/8HfEukZvXx8VYx+392oqw7ykM+B94ls5DTAVOePejQPNrwVwnwQAh6/JwVLzH4BmwCK6/BuRE4MESSlvju0fUhgFi/OuvQyud8p8mUVnzR+0k04KZW09NQDg3XK3F2+pLRNeyzWPPrEa5L82Lje9wr5xM54sS/Gd/FJ/5y5BHBTq4FUnwO37DcNM0ntG+mcobN8HZvyaklMeEEi/eWwNhPKhhkAaWgvGbgN09JenoAHIS8X5LIsBprhB3n6b9XzkIWn8yAcbNCSxRr+9/aqVfwb4R8iODt09wn8bMG/97Ut/mT8Z72s4j+3H+rzUlIiBUZyFfpLivHFNeOfozmRdYQPzxr6+MOZd3k2ygxWDXfN8TPhP6mUJ7KJicR4HdkwCAPUGSZoS06b3JjhIVj9iFFhIoNGNmBYJC9lZXWgZtbh5RR1SA0wSOFSoHGlGR4mS34r43dWJkaNFQvQkJp96GJhEl5+MRgRuUZSgMyFUuC4Bw43xZF3vap8BzR/IyzbgYGnXwqoJzYys2f1YylkP/DGLB/gkhIW2S9gQ3OH/AlbTBWZ3M+5IY1ZDRAblmvRdKJtGb9MgGa/yFa8KoB0P9FQgurFR1BxTEv92+DznICT+ybGTe338K0p6tP2Ff8GBVT3T/jXTCjQmzfVk3zGf81aEH8E/6b/4L0pNGX8t+IL/sX+En/IAxP+4dMUf9gZE/554eH2kUmOOoKKf1vF/waObgEOYWgpwEE5MiMoyuur2aO51BUgpAFNvllTSUNL6Xkmg/JnVbw6G9iHj1+V40DKpEH6ZZkiXzls+FfyxTlVfqkPT20v7G0SoMLRKJ0dWrs/7EINVIMbdy1lMtaf232k+rqz20aB4XPeV6ph88alBwsJNlS+K7poHCjvh7DPyXo7+X6mXhkUeZGU5sLcgmxI9q1RKuJE+JzmWfpkerdI66X2T1mhyySfr/iHPMm+rcBg61UCnNl2/E/gT3MxxT9nq4fhXxcbjz+wVnfYocYf24r/w+NPxb8V/EPXI+Hf3ZcXAwnoq/hPdqPMm0t8in9eCMdW/G8snAOregaTKobroB5lBxYRPnGQAgw7iwcEDZw+SLiWpPfSK6VpqWTRGTODXJ5CJ2/Vpw549Z/iYzitQmB1R/WxpuzN72HGiTamupi9fMgBsyln0iUy73hN1/egcRJLSotktzBwOQHiwZ5ZgfEUraVgQSU717OcCPKxiM3VruK+lN6LfLEfzYQD/4Q/RHvSE9svZ0WSJbj/UsDnqjJ/d9Og4CblPQJ76G/owq32hPyZ5GcHjDKlzGWK+3SL5E7XyO33wL+zX6v45wIRH9Y5DP+6D0OHRtj+4qdEMBKh1Tb4XfZ+Sb7iXwCMz08R/g+LP9bEH+A/yTeT+Mfwo1faOlAlqyFKVTwCASaUMMMg6LOoOwwpJ25CcU6FbEnHTBdEgb6vmlw60XLKurs766JF0JDce/BoT1wNXcZssuKVCZQTV8IAqK9mEelOXIyQDxMZBySWu8c+CPYot71PQLMq4LMBqgS2VFqgMgGrP1iZO+BARtaeXo+goIEbNmkYdfLB7Os4DajHd+vZepJhgEH2tjX/cfmuC9Yp78uWPTGD/Fo6ZO/O8sv0wwHD12kRI0h04ne+arnxCPiX8ff4Z6LA3wNV98+S/JgkEwXFf6pMJQ0P8XUpbcnCnvGPrE9JeI//Gn8q/guJHH378HmKP3JIZBX/1bYbX1plmliQir5YISP+PaunzLa5AtJTWV+MZt8Bp/ZgInRfGJ4cdBV49b6OcbFOOLXHSqxufFhdWNjz0jxSwaLsdJECov5LRpwiIVl4x6sQWLEabsiHFJTl+eej3Kv178rM5hYH5NRe6sPeXzCzxJJDTw4EyI/2xsxMI/Ck8dQSXy+/jbOxoCuTG2U86/Yq+4fEDNFn3z7jR8Ce8J/1lxziUD9fHX+aRy5lb8O/m7bDv+80Wsb7Ifgfq/iHfJHjwbb0m+yS5GQN7IP/bfEn439u8R3Xm+hPw2cZ7y74t+HPgURCiM0y4NipIhohyeQPh5YLvF43y51kCKzU2ABDFuBLpaT2rXyTlDyfzKrqdPZGTZklO2sm3eFxf7Y89zpEf7xBpg430HxAH/hH0o13wjXRAUCh2ajOu2cGwizc+5zh3DT+FWY8ZPy6kPAXsCEgoz25D7IGq1mZaxo+NmhoVMpY/l1Zmc9rqt4GaXDSv0tWGA5cMFGO8br9Q76FXnQhyJldDQb8dT0YP2Xaw1Z9nt0n9JIccCT52/C/17UL/g34nwn/KDn1+Edi4mlCygJWFrx1/CMLGU38Wes343/siH9RSsJ/G38I/+J7Bf8wFLIxQ+m4C4s74t/tN8xsg9UXJ664DhadE1GqpQs+guYbQHOt+fb2YYjKQJy5Artc110k+AZSAdGsnxHxk1Mysg8Do8gpIiUg4fg4uplTMLAk3hwO+1BmA/3NKp+sP6kP4eWHgKe7SH1SB+8sOBsF0PSMA5GPZ+1kVm7fy1c+yCGJdekCovIys/6Wv0aZysJPJbNxICX9u31EZvIfXkhaZ6NsRIcI/WIhSP4X1FH54ST5rG++iQMOAgRwNZP8bfi33d2qb74F/2NH/KtXqAOFv7H6zVbxH/aPhcMXEtU/++pO+M/CGvyr/5gp/kl/hH/pewX/csjJx09ZRBo+DLSC/1jYafWbZgdf504UyrAPQk81V7Jpw4YEjBH30t6C1+Fqc1lFub7sjkxbrGiSgAlDDvlQTgTRaYLVB6CI3cFRevmWnSp1ybVVry1mOcFCOGDBU4w3r3mDUeQTkqS5Kmbvy4ORMq4+2+CFQOvEGagaGPVzPd/H8kuSaeRLowYE3YwszetcOFMmBrnWQW6v9hvmNfs1+XzAQfa3opMauPhMRLUFZzHap57aqn35QjbkJsg/DP87Xzvgn2i0BGLEgb6vTFjMLPDvk5WHPlfwP8iH1/E/Gv8l2/tnthZ/yFAN/of/WfDvgVrxr1mc6tXxj5hKPue6SJWC3EHeRwo/y74wp20knaWfPDlhzMHeAL4pE9XNsBGaxkq/ZIaqCErRZmZ/vPJP/I5qElZEGFdX39F8Ln/Heidy2FN8XJEF8fEf/tnI1+McYhLL6rciH8Eh2Ld7AlVT4qep/na9lHFb8zsfMnC2hrnqSSG/CFyxuB/0pV92pwrs5DOrYrYo9eEAoagv/FAy1jiJQ9/y67NsOuDPuZw1iwFWTjDRuKIEV04NjcZ2mF9l7/w1NvmZE5Wfx5TLWRwHDsP/fo61Hf8AQAgURt1lmVLOEvw32XfYdXf8r+mPf88l20Pxz30tY+3wz/FnxM0V/6WctYJ/7wlZSF/O2nrqKu5QW20sDKq0R560js+JLxJLESM7oxuolVFzKDKcR51M5SQwDRZg8rnUp0POtoeeMktGZ2OgPWkviZ21O9LPCOdIdJIE5ukXtmpZf8p0EvFKbH2/K5Z7VR/JjxxThjjDuSFViRqNnxhYXWSwIHEf5b6R5ISTJ9bVWgl/z93mrE9LPNb1gnFkAyxHbBEcRtNWs8spfqaLbqAh25s8KGczsv+05g3ETnlPgE/cCUvN2f4u11b8j4J/QHyIftIfVZeCf53D1vjTDpO/gWGoXsSGU0WlbKSNnzzmBv/GLRn/nV8k/HfZerVfcaDUPAWQBv/SYpidCP/2X5wl0Wcx0YmTMFLn61LoOUtQ8pUY7Q8GIiWsVCfkTcYAQ/SztB9JsVPzkbXv848+SwkLDgL5qKHzsbci38f/WfI+kV0vOLbrkILeYPkW8mWznrM30o/oT4JVLrckhnb8PpH4TEtPzH5xbN5DQM42sm/KXCf5+ETnOSaIXcviv4NnreJfcgaxKb6jTDeHd8L/gh/xX/HLHv92CP79phb/CqDPmfeJnGCl2OTvgSHD+4CXz7hzrj7MwavqgBNmJQlgsZ7Td76p4ziQ0AEFR3cEGjJTEw9cWkwW42blF8eJ8c8YcwZROHdiAXrefRvyUPlN6gcLKeSvGCAUsC9ZjAMQaE3Tx/MOmneqfATWnIk0YJqpdTA9ZutD/jY8yI1ZdAniwPS0Y5tkU5YWxGmQ7gMAdRGhjBu3cBZi9sr7vXN3A3yar3/9t3+2v/7nP7NXvu159q73vrXoZCv+Z8b/nsKpXOj4LxngXII+LWbuc3vjnw1jVEIK+zFImZXnj51SZPwegv8m/sheZgJmlpLUD/2NmUahGWyNPzy2LhykDDZirqZ4Gn8U/xsWIMrxetnU1Q71ZlqtBWAOWnq+I9VZh2l7xWeMGjVz0/YQCrbVkEBKf7F4yHnohkpx6SRqzsyMLMunBxmTIzIbnslQPj+UU5gnQ/05eLEzMhPQm6j9jtegBbacEiERXKfn2r6456I3PXlF4/fDGpY+SwqMiuvQ9ksEp+lq4PbFRE7C0dyC19B4meB4tjNplKXOneQHrAYZ4LPousRFLmPf/BXXt/9261+w233jGfK3rfg32Dv0sA8xEfwnWbyfEOpU/NuO+Of4o96j5DHjv+VkMX06UJAyk234z37clSrnjvgv8afFP2XENER3/0zUZD+WD/tQPI55NPGH8b8ZNFWk98s/fB+DFBslLDOkbsigA6DONwaPyEgZw2ITx1dgB2/IauqV8n1RtOJjcx+LAOcwEI+ntNvSk7CQ2t7Imb28EHpjRbIzsvyV1NPCMFBpe2ikK92wTlg1e2Yg/A0CPP7MzMT+i7CZwBT2Hb0sn7//H6UEKBAZSJUPBYUDhG3k+QjSvKjaP+G9ukEAC+9NExD5uAv2Zwt+9l2bsbHv++b72hW/+BqticMOKw5YT4/tcHHCmso5KXwI/iX+sHy/W+KP438SKmg18AEcgn/bA/+eJXHcJC4S2p1N/MFzbzEA6/A/6qAU/ylLFC7VuGD37RYxpzE0fG3Bv89lo6nkkMXJmSQvQ8y2YoXK6Zz56uccgL9vB+mkn9WWoEUDZoYbrFXKQRPCCO5g33xqBeUQyQCMQJMuPXEx0r0LB5jEgCmWZebNX6EgDxxCgIApWLTPMfJ5ACxYjaX02W1ne1xpH8DZe3k2YtJQ4r948CwCbMpC1haSmgnCNpMUKNOnOYYfxPTpzLroj3yLyk4+TpRtYMD4O9uPgeo+Hn1iMT3KKbj/qGszNnbrq98NOggXwKk6xU/F/z4XM9wp+G/DR8AaN3T4t9TBIfgv8efk8e/9cwYs8ZPkZ/8pGXw6+IHYYpFhKAD4ni34J/+NWIwJinwm84IfM8E/x58N07tJYHJ2xl+0xayKpiDg5I11P0nRKQlttKSQT33xYLXGB4Xw4iAZlCHwKLM1GIGcJwezwSw+l2ks62WKfFnF2cikm3BScmg99QDDCzOLSF0dMrff+UolQz6RlNSHTx2PZOPCzri2WIzvOkr658zFF+uZWhGexBvZTiOl9o10ztBZvo5Nc0hJMBhQpL/PzvwD11df5kpa4jPFv89VHyrbf1YZ/0rOZ+DfJWCfwJiCN/jX+11E3i9E+NqOfwTt9fiT8Z/1sor/3H6oz8uqQ/jl9WAVANbgP8gMFCALh58wsz7+cOZdno0yZN027eA5kHxNGrRsQHH9i6coaVNmZ/kMtitLJwKFD5JvgnA9L58WKGaARGtY71KHbFiHl1PUITXAIIVLgSb4Lx4mS34r43dWJkaNFUv5vRBup1iGUgMzZMnO9rkGHG6SI0vwlfEbnT5hcCZ25gBl+xlA4v3plwLy3gkBNOwH9SPFZz/wxiwf4JISFtkvYJNIlbJvSnwyHwo4fDbnHwfXJS5ymXR6CFeMPQLiIPyNvWYHgkPtGf+5bGKMf8ruZmpvHf6N02Ofgmb1Pg7KKrx5LStZiT+M/5q1IP4I/k3/MVmv0ZTx34ov+EcmkuMPeSApQDFF8SdisbX4H2kujP8NOlTv0U1hQSucyyAEa4MygBzgIEZmBEXN5sQATRAPz6h8Giz8SPw8nTCgeTNz7+q7ESzJTcA+qi5cPidnSXSRbyKfOSxS46R+SYFRGls0yadOdrmYCfm+RBm0gotTfOyBhAOVrvW4IunP7R71YTD/saLA8DnvK/4Ba/Omon99OA+AQQ77uSh1oLwfwj4nxHHy/Z/dlwYUvQ59n8iu10jZt2E5zvjnsdDJWg1w3uca/lPJE00U/5ytHoZ/XWw8/vjAiFAaPqvxx7bi//D4U/FvBf/Q9X/U+0Q2+Ux2Xm7kC+JYR1Enoj2JaYaU18SCfIoBAdmj7MAi0p54ypNFQNDA6eOCayE7LCHeEJy1ZNEZU37nNq4LCRwkidkT6QV7IgRWd1SqX0p5xQ2n6gdDZF1M1d9hl8tLR56qfPamJN9ZDcZJLCktkt3CIOfjwwW9hKUgjadoLQWL0AX0HOk9A15srnYV95V6OckX+9FM9l24P4NXHIhg/PvF+Hf8NLje9Wrxw7vOJM9v4vK4nILaFf+eMVjFPxeIjt8nkp5J2SH+uPo28u6MZGQfOJFHdonIqXjgUTLi3Ev0FR6BABNKmGEQ9FnUHYaUEzehOE+FbEnHLAi5xZ0+QGcgXDrRcso6WjzrokXQUNzzvYH2xNXQZcwicFYmUE5cCQOgvppFZB8WnGvVk34iI1DzG8kPoBChwBFj15NmVXC3BqgS2FJpgcoErP5gZe6AAxmZMmCaK7kq+3sEn8ioayaGk4OmQCX7fjZftXRIf0v2WDnQtoOQlTZcHncBXLo0x09ufgT82+H4Z6Jw/D6RJv6kCox3sIn0adpWl6/pri9h0xgugwYoHTbtR/x7WvGU2TbXgOqprC9Gs+/Ah+nyZhYUhicHnb3nd/d5OqskjlyPAhEyEXXjw45GCnuu6jc76YDVhLzEwGCvor6Srk/6L/eVDykoy/PPR7lX69+Vmc0tDsipvdSHvb9gZolABQH21Qnyo70xM2si8Gf5xfhfG3TGz5HmlvE/gH+xwShN5PcW/7Yd/5bGz/ifxYGVXKzhf6ziH/JFjq9rpd+Z+k16ShrYB//b4o+UssxsG+FxvYn+lg5OsDH8eGIcu1skTC4X0IAO0igkhJ6N+IoW98UT0jRxYqq5ODezg9FmM8tn+on6HKWoi4bnpK9jaOUb1UGQBbnBuucJ6rlvrxEji0D6h9KGfNW6kAJy6JnSanGtEY5D6l8mRk62d8Ea+V6w8BVW1gyf1RcZCdgVc3wcFR2SlVApSconyvT0CxjRntVqJP/Af3V/KAAxRvLNpHPPwISV8bwG8rxh+IaGpYNb//xVA7hghQFJYXoSTjr7U4XgHtf7UfvOq95xT/uuWZy/3qT3eSLoGMuO17SKf/gYZaoUfxjTO+GfbICwrfFnDf+D8b/ofhac1vluw7+3dz/n+HOq8W9b8N/Gn9CLBXzEJ8U2bP8e/xsLITilkstZFl1bCI/pRtDFiavj94m4i6rDySkiJSDBonwDrDC9KKRSz0wcKbPp3idy2CW8XKMxUlkuL1G7pD4qh/QWnI0CqPv4W11I7ND2vXzlg3ykknXpAgJKKQOKv0aZysJPJbPxcpZpe7ePyEz+A/xkAx18csYpWjxEvPivqf9nzKascaerALiMQOKPnQT+x474j3Z8A8WfvOfnNm5MovHT8ZcqEpy57oz/LKzBv/8EPlbip/tnth9lIIx/OeTg42/wvzGjMiSl9FKbpIGQFArEIwyPfRB6qrnJBrm+6auq18y5JmkEJuEBtMbx/oCnpClnIsUkBxipZ2bcwsRyHZ7HAhYMR+nlW3aq1CXXViUTFFsMkyWK6Vk4yr4ZSA6cZH8OLKK/5mz+zOyMsryUbfBCoHXiDFTIr5/rTg/LT+pnvlnKZ/hwzXrNXCK78N7TmfksP7VX+43A1Jr8M673o/Zdp2jxYD0X/LOuk/vtv3bshn/cS/Fn+XkY/hF/NBAjDmACGlSt9kxE1uYUnz9+nwh/Xc9B+02k45TOBtsWxpdZAMocEQjoJ09OGHOwN4BvykR1M2yEprHS+0JW0tkJxxT2JywZv8dJBK9vi3F19R3N5/J3SmdZDnuKjwspKJU8+GcjX49zBPQBBE5Ls/wdLs7MnJGIU/k4aFHPexXKuK35nQ8ZOFuj9mQbHRnk4wRXLmepAjv5zKqYLUp9OEBI7X0UlAWhhsDf74ajlLPpgD/nchbLDfnJF0794gH9ZsLC2ci6XXbufif8jxb/asA1/AMAIVAYdZdlSjlL8J+y7+X3QfLz1eF/TX/8ey7ZHop/7msZa4d/jj8g/bz/15SzSKc9/rkKAfxvIq2iBnGOeJDBWucYoVxR+MCpF1H4IL5IWYrId0ZH8qk5FBnOo06mctIpisECTD7X+rRJcOivPp31oBinjijLGFvaWzg089msP2VKefrK0PbLQCStpl9lPyTJpxkj21T10fgjx5QhznBuSNWhkxxiYHWRwYLEfZT7RpJDJElYV2sl/D13y1kfn/nq3Cfl9IQf9A9yY3aPb3vYp23xCPzLQIeQg5N5pkUOXTDbdruHnhn/w0QBrC3B/yj4H9SHHO/VP6odBP/+WcV/kS/zZN25r+IUVta6+rURS6FsrNiFxtzg37glLzhD/gJ959QjZYjVfhX/J3glFIV5u9xowOnliF+knVODO23meGpUzp53KfScJSjJ0VKqc0sJK7HhQUYJMEQ/S/uRFDs1Hzkvv09k38vH5O8TicVQi+BFJ3Bs1yGFSdoTGwHW9NAhZ2+kH9Ef12DLEcPE0P6TvE/k07d4LHYW+fwMBPle+Eb/nVHbr6F2NbLrFvxjPdmGf8kZxKbH7xOZcMPAz6KjhL+TeZ/IBjMnqxllITSobcws0rtBg6YSQ0xxKGC5Q2UBVDNcYQH83xh+kNQRgUUO1Pl/pvQotWdeUNlxyaJi3Kx8v0XHr2POzHTKAGAD6P8w4KZzSSlhOPxSBbAechYZ+k7BBRBR+2oWm59JpvE7W6MFmaSpvjOBktpzw+KGiQ+WDNLle/5A42g5YA5eUfYZ0B8ra2gXef9qyo0H8j+9i4deMwGow//+iwdso/hXVfrU50r8YfLi+K8ZoKU0nMa/L/7jc8pCcurc/b6C/9k4wCr+RS99Fpgzwiyl4J/qdTqKUeVL/KG/pRn4HRuvJ2ORxHD4CCWYgRTqkoOQcrxeNnW1Q7051f7W5BuzRa43az0Qazycjk9m6HME3gpsqyGBxiExzzXXibM/+fhi1S/7BAh4YKTqiMyG5TkQZwSciQhPhvp3v1gBZD79C5TlN3hGQVlKOSUy4MOoN8/kU5rpiv7YJlSvR9bFjA6Co+I7tH0EELEzsUhngQxqmpvro+jEe5l4NqE8v1PdD4wQHdg9rvvQIy0ev/GOF+58L4Zdyyxr+N9/HwT2Dj1swf/Yiv8Ua3g/IdSp+Lcd8c/xR71HUuOC/xJUG/yPIpflV/xnPx6t/nbDf4k/rg+jwwacEdMQO/zn/diN2CKYmTNAoUeLgrT0EKuUCwoWaRb7GKTYQYsA3juADhygzuDGmvxlhUdz2otxWQ2DlO+LMsjH5h4WgXQ6P/qU48asWFOAHfY+gWFc655Z/cROlZm1jDACM3GnPQgjb66Falbaq/3B0vgbBHj8mZmJ/b19AlPYd6zL9y+/1LKCsuhqE9iaHBX6I7bXPf/D/UU2PBTY3m/+/ixvBPm4C/afdo/rPcy+62p32t14y/Ub73iRPfcNT9z5/n5Lq8F/arP3MV6Zfo//Sfjne2NIrvCmdCpW52yB4w/L97sl/hAZKvJpAIfg3/bAv2X8D+EiYYfZxB/J0GKMFf+jDkrLtFIlGBJ/Ouzl0vOJ0DnyuxDIrHm1Zp+8a9gkgDkDxDrmAcYz5i5GIZvGah0MNyilBTsRY9OgmOGu15zhfpLxLeNu6/CpJrhWG9YTF2gvXxFO8rO/skNl1iAPHLlDq/XwYNsOlxzHXQwwfZ6yD0A2o7KV1GFdz0ZfqbJ0QOY7GKORz5Iz579uW0jyTGJcrBsPUpJtcrDBsoM6+DL+mXRDcQ17ddRJ1OFZf6kcEe43RQFnXO+h9l1XO0rm8SL7hTc+cS/WwMx7K/7nOv53kXEY/pm0oaFFHZ4zXMec+9JaAHHb+AcV/6wAs0PxX+LPyeP/4G+J9IxefuB/Mv5N8E/TdwUe9MP3EQCwVzl3wL/jQjPAjWYkuSwDBpW3AUJBdD9SNrAz/qI9tjYlqjJw3liPenQ3ALI2lxRKvZ5YvD6zsOzb0LjkmCitwkgMEST5lAPXiuXUBrP4so+R9TJFPpMoXyyZ2Wt9f0TKrqeedr+4ZCHtCazVejTIVDIsC7t0gMzSU3zXUWFnvNgX47v4pH/OXAK4qdVAqi/eyHZa5OfjCNwPp/gsX8emvFoSExJ3xnUfYrc8cubxhILHXaxuJ4H/XS59qLPHf/g4D38F/0rOZ+DfJeh+x9iCf73fRUwJYIT/uR3/3te2+JPxn/Wyiv/cfqjPS0mZFMjZ2SoAiJDCf82s4J8WjthbXh4kdCfyhTaiMdXpYvW0VELpVl4aND+jgTSLTliVtGlEB1hxeXFITIDStnDYfvjCqFzFWm4ZMCySF3JQat+wDi+nqENqgEEJIAUaD5qGh8mS38r4nZWJUcMeGRqHX3x8mCwoE8CvU9pIdPEUOe+HxGR8/O4/bqgq3wHN3wirfdZFfNtT6/o8UE7x2Q+8McsHuKSERfqLeJFIFbRGT0KneHKP6z3Ubnn1O+9hsYPLF48jXVTiddIEwuR/Wcf/LhdOrEEXa/jP8UcZN7Vn/I+Ef2P8TyP1l32Qin+jWOXjN8uIcvn5CwZrWUnUV/BfsxbEH8G/6T94b0psmeJxEk+60PjDtnD7zhX8x/yX8S9fZQJFgwAqz+pO1vCEZNSGQI5B6OpvNEiVrwwA/qXKnjojKMrrq3qzMuJhoqQ4ekkT4FQSrmnS80wGLboQ8epsYB9VFy6fk7MkushXW4yir8Ou/DAXIglSa2FvkwDFNqb6MHHBOgFZ0MGw2hN/7utcJmP9ud1Hqq87u23kh895X6mGLc8QLMFCMEDlu6ILHz9no8kr2efOuO5D7ZZXO8Li8fYX2XM884Ba9zF6TCDiRPhcwv9g/O+biqSs0GVuxT/kSfbt6m/wf/Ar4cdHSviPPtfwT+01F1P8c7Z6GP51sfH4AwPgBCE+q/HHtuL/8PhTwm/SHx6CjYWQ8O/uywWVOefBg4T83S2DJifpPYH9YIIj2Gb3TAcMQexhphktQw7WOTnlNbEgn2JAQPYoO7CItCeeEnulgKCB08cF15L0XnpFQFj7Pn8BdgK5HFAgb9WnDnj1V/3htAot1u6oPtZ9yhkzLSKzlw85YDbd+wTcB6S8w/LEfJRO01x4jysvkt3CIOfjY/pgz6xAz96S+illh57lRJCPRWyudhX3pfKeyF/GfMb1Hmq3OmLm8Zw3PqFgZv8q01Hwv7tfcfYouGb8jw7/U9y3xQ/X/7kqYqb+K+33wL9nDFbxzwUi+eLDQ/Cv+zB0aIT0pX7q8SerPbdhfSv+XD5wRdk/AcDntQ/+N1GyCUfJdlHPzCsQlw4sGdkHXhKaMOSyghsDNVU1vCPUamIAEWBCCTMMgj6LusOQcuImFOdUyJYF0oKQW9zpA3QGwqWTpJNVsOGIb1jEkNxPD14ZGObDI34fgXNWA+56Sa2zPmzE7N/VM1l+KmdN+omMQM1voWoCChGKeOgr5BOLM3a3BqhCbPL3ENF3TikHMXHAgYysPYcfQcEEqLBJw6hp/EdePN7+QnvO658gAS5VXna62NcOxf8Rlia2RzN94H8m/CskevFcHncBXLo0x09ufgT82+H4Z6LA31xb98+S/JgkEx3Ff79TAMXkMusgndQ9Tdafia8jE9n+sCHj/wTYHE+k9TZJMZmZwwDrboYUmR8qmvEH+SIRd+C5Lj9MHoDNzmn8MDRMFCWuYXPQphevxqmDSO15/uDWwAI7aBhSNcKbxHAY0xMf4WKUxkuJZhgWHFLwSV1b2pMCEJCdmS2mjHCUjE7zlhMrqr4iHdSC++IjkLDHVS9/LbvdNb/frnjZq9snP/UJ+7//8pf24jc9y/6/v3/Linz46+SAseKAnNrLEUiDPSY7iY8/CPBQ/Y2DhwSPsmH+628/6+Co7hhmk55vWOTvc0KKA9Rh+Of6/b6b6aEaI/wP/UN+osL1lxxCFuRBpZuIPwnzqXmP/8E39QFkDf94fIBny77Q4V8zWzPGP+RzMZ7lS/WFs2KSVk+GJfxo+E3KTvpr4o/j/wScx2iwjSPJLQQcZ4quVGeRA4o8fp9IpV/13LfXiJFFhIt4f+xg7PikQTneu9c1bPV9Ikxxwy4Rw4TDxdxCJ5WVNcNn9UVGAnbF/jgESHf71v9q33ute8h8L3XRL7RrfsV17TXvfKk9/fceY+ec+0naEyE9EUBZrUbyD/xX94ciEI1xpPeJ3PNkFw8xALn/kCV3N6vviH/dU9rPt4igq14S/idjYwv+5Z4m/jCmd8K/Af9yQITkr+F/MP4XB5oFp1Vf2/Dv7d3PP5vfJ7LRMoCmK1qDpH9T6h4tJ1bzXM7ie40dKeqcfASUUj9mhcxWS+mCj6CNkL/SfHv7cAuSH21wikbH7zdA/izzn/UzUiDLL9mF65ezHWZN3r87tcvfq57h97P+ZpXvCnDR03VL+tZoDObN5SXSS1Kf1ME7C7qe7v3tD7Pv+5Z7ri6WN/+G0+y/f8+ZdqmLfqGtncziDHKuyufAwosPWSnSMYw2Z2DTDl4GdbTF44X2nNcfLB4iM/nPvrRhd/zznsgejpUxO5L9Hf9J/jb820ydC/6NyjErzbe0HzviP9rxDRR/8p4fst2qe4mfjj+OLdF2T/xnYYHbNf8xU/yT/gj/3PdGpdSB81pQTmKk+mak+JwK8gYPD3p4nW/5y2J47IPQU81SXmBZ/C+/l/YWvGxQm/PwY/UGA0nZTQxZGR4MOeTDUq5xKWtZQeyZsKP08i07VeqSa6v7HeQNTzHevOYNRpFPSGJ2h8BJ9qc6al4Uy9n8mdkZByzceJ8bPMxufY3TD53SFS97NXvKHV5qV7zs1Yv+QRh6+bmiI3tqowYE3Ywsze2e3/ajR9rz+PVlzyPrAhu/y3/GsLmHyftnPg7D/xF8qumL98eyBx0F/2bAv2TMO+Af8UcDMeIAjZlHmuQvSkV2Q5k39NepaBf8j8Z/yfb+ma3FH6NYjAKcTL/g/0BAxj9ncRveaOQz6+oo/P0v+Mx7knLWoNqeML7MAlDmQB0aP3lyvGLGWfxFPjNC+cnBgeVP1CxLOjvhmMK+hSXj9yjlu/7EuMo+R/O5/J2rEiSHPcXHhRTUmb7pzxU5Wy9SvxX5IAfBvp2NUkYZPy3rj8ZEi3r+sj7NeKz5/UD+vb/94TstHn5d8qKXsSee9jz7jqvcHotDKWepAjv5fHSU2SKeD4EiMvs8+uJx1sGGuQc3GouHzZkNsIfN66mhjnhgfvu6FfqtGU3G/zwJ/I8W/2rANfwj7oRAyai7LFPKWYL/lH0vvw+S3+kn4789wTX1dyT6KaOwpn3B2sFYZfr8k8nhhJ8x/ocN2/DRRD5pECk6aUrK4imdZaeLc8QpXS2Xr9JZ4UO/+oE6BiMgliLyndCSfJ4V16klG2/lJDANFmDyOQM65mbD1gN5n84eBCW056AwtrS3MBPY2D6xpMSeUfXPPfIRyRi/MESL9rBHcaDoN5Z7VR/JP/jgPt/+cPvub9x98fDr/Oe7gD3wxj9hD7zxT9iJzQVSIATbyolzuY8YHxNyPtHD8zypxeNtZ9mzX1+rRJ/uAACAAElEQVS/2yrl9ISf/QpYnF1O8TMaPxGxvbfVsl7KAAYFZIo/tPksh1yYbXtQCz0z/gezO9WW4H8U/A/qQ4736h/VDoJ/ncPW+CN6IqsMJ1cjxWWWO1VUykba+MljpkWtyOdxrvnFgv+NOZOlbAJpFEBVSwtLNwlgvkrJkbIGjZHR8Kxo01WziCGrtzA+sS/VHsuegrZ338oOEuedqaZcjBHyje6BYrGCI/VjfXANXhyMWJ7UdINngWHJ09k0AJzX3ruAFVOD/lx99Xt4UC5sFpLFBhh+KMuVLDpRx2Ydul7Gknk87EiLB183/4bT7ImnPZ/2RbTA4b7P2Z4+SW0xD/fTeKJ5kN0WBRx18fi1t51lz37DE9j8ESRQ4pniSxjbrrY+GGd8eaWpTWbBP+TvevG7LnIwdaziFvIpxj/5OjNmOKv3WePPdvwnjNDeIet2b/yHHRj/KretSDT4H40DFPybZQApoWesRcZMz241NmH8R/yhDNV1jT2QWCAGDdoVxyJaN/GoI8Y8fp8Ir+JMz2mUrBNNwtL4dcwZxFMGABvsfqVzSbLuZyfV+ZEBQgGshwyS0LfMnTft1L5zziNnHt3l+yJXuuzVVX9JgRI4OMghrxft8SasDbN7Xv9hR148nvuGJ0q2Laoeyrgxmv2zEJpAwj/PX0Tv3/VEICVxMqGt+J8Z/81gctBs8Q92nRPLCKbU+fH7RKLzqvuln00ITyQGKzCSxNAxMZI4ehr5EIZTWbepNyZGIMpxAROrHY9VVt9gJI18o1XXU0LT9tIcUYuykFyn9VaqE0tTlHMMHftpqBz7fNScuU5tWT49yJgccb99EEyA1Z+UI1kIZyJ6E5lP/9I4kAWjsjzH5cd9bnDqFg+/LnnRy9gTTnue3fwbTiMfVQVGzkesG3V6ni4BfJnPyZStnvP6J4R+pcREOsnyo5y7R4RH+WJ//O8sI+G/c8mt+CfWzWNdw//Yiv8ki8a0hn/bEf8cf9R7pjhQxv8aJ2P8jyKX5Vf8Zz8erf4oIwnBFf8l/iT8byj3EoOXLwZLBjdLi2dgiNhy3uQ1HYwzVfEBT9ucwg4TYAxaBI7fJzJkIz+pfz+6GOkpcaeuPdmPT9fL5rqrZqyJYvuDpXXvE/l0LB5+8b7I+cYJOmWUMxCZPpUN4Wlc1rrXSWQez379E6Lf/P1ZrhMuW/pdsP/upIGz8XX8VyPufUCDZQ5tnz0cZW9rHWgN/5Pwz/dK50ufnBGl8KFZCMcflu93S/whMlTk0wAOwb/tgX/L+B95gdcMyvuMTLkJ4Bn/ow5K8L/JA9batO9xcFTC71ISjPyOVjJilFIHXEtlR6q3ziwfrNdXSWZi3GewKJIf1Jhq2ljHayrJWVPeBwjBMZAhvuTjzuU/PuInq/pYB6ozDL3Xa73EgAlMe2M8gcnPwcd5eN9wJIAFq/FMRDqgWqr0SyGJWB6XFV3Pp7Jste3y50UueZHLhAK5Fmx5+jTHmNUy/ZNZPJ4TT5jPRn+pHBHul2vVu7MGnt/BHBHgeC9hDf87y5m74V8fnjv46y74b7OimfyTMRf4b8NHwBo3dPi31MEh+C/x5+Txbxn/psk9y8/+A9taUaDjP6piLn/qvdOmbWYasKaz2MDiC7JmqkjksgwcujPyxExJPtfhBgaeHJcSVfFtrtdHPbobANX3OLiVej0FS31mYSDQknEkgzIEHmW2UCI7T9afHFyaOn9QIwIXyd8P4oagyWzJLMBqyS9cfnbI3D4/G6HWo4mmkuF9bvhjR1o83v/Rf9q7jRn2Rb7+i68WRCbGZlOnT+qflB7f4/onsWH++idIWQGq8cBJgnmdIMWulUVXr2mW8S8Z+Ar+93Ouw/Cv/1Y9s/x1/HNsFrLf4F/J+Qz8uwTd7xhb8K/3u4h8qAXhazv+EbTX40/Gf9ZLh//RtR+6IMmqQwqUdGAFAJvWFyaEcg0z1wG5RCVZZ6zKzF7yfgIYTyc+2BcxBqRZzMqG+Nbx+0TwRYF7XW4LZjfmwBH1B/WLo9oh3382CpC5TLrX7wHi7v3tD7PbHGHxeOVbz7K7/cJN7DXveMnebc34eZHTKLsmgIb9THzebNo9r/8wu/VRM4/XP0ELVolUKfumxCfzof0SkPW9jEPwv196exj+V8UH/o/fJwL5jP/PhveJYBO9ONdgS8rpDFfiFEcj3wpLUvukaM4+RP6EfHakQqsnbTCKfGUAOcBBDK22XGaZs+IwFhsLFjKTfNZV+JGoFSEWU1CDrtliWnU2sI+qC5e/1yoi8vkpEqTGSf2SAqO04Gh2/0F7YW+TAEU2vs+3P8xuc8277DHwg+tX33qWPeP3H2efOOcT9uTXPsqe8tpH2yc/9Ym9+znYF3n08rzIiRRkGVzw/3t+29EXj4PMI+nCFcbZaPJK9jkhjvskILJIanPG/2zwv9/F3xB78B+JHyvxR0Yl8m0H/EPe5PhjRGIS/nksMlzCf/S5hv9U8mT7Mf75mPBh+NfFZiDO8oJk6gA1/lSz7Rd/Kv5txittV46FGf6WDc4bPMfvE+GvlWCOzd/nX0K8IbhqyaIzZgb5zu8T2fFyf8zvE+Hsx+9J6gdDZF14UGT2NlkOmI3b+KiLxyvfepY94/ceG744zezV73iJPeQld7X3f/Sf9+7PzJ8XOdMueZEvNGfP7IC+AXvP6z/Mbn2Nk9gwN8Qm1kXYROrlJJ/KgEok90lBrGAG8KMsocH/fkIy/rEgFfz7tSX+FPyPDv9TYlqLH951bqoqXB6XU1C74t8zBqv45wLRefl9IieocrBep0wd8x4IanFa68TPtCdglA6R8kYaADOCwQ3ZDRZHcoMcKJdOXg36KexpyoKBILy4g/SZKwMoJzAzCGdyXfjYnJDH8CVJFifIpcF8KihZhpxnquN6n3swxTidQbqQEyNGx0SnqN/8qKTNKd9cixMzyEiGmc3Bsz9whvve4MfsNtfcv2x1kHk8FjFggFC86x/fbg944e3skbd8ql3xS662d9++L/LYVz3Y3vWPbys2u9fJLh6uY1ar+zuVK0YBAFhsbKhHDJ12q5//hrgLkFKyxMErcZDENCv+90lA+vH3+Of402UEMw8wfDThXyHRl/YY/yRgOsM3i3LwKcH/2I7/QmLjZ32GYxb5sKfH4tAJk/0cP0P+bOMP478L4NPMNjhxUSTgio4SE4h6YEP5iydVh/B/CztddURtj6g8jbm2+ypleK384Oo+/kLB2uZS/4Q+YNCugwCyzzcLCoaLz8tmdJLP93WMa7/843BWWZ5HUPXbVuuRAqL+S3a9zw0efrTF40+WzIPMp/aa9oF/+2f7kZfc5aT2RZ5w+1+077jKacb+ftTF45VvO8ue9QePD8VoZqYsGXpC0Fe8YT8gGDN1AHek74kSP6/y27Uh4X8vx/LhJFbd4X+t44wfAXvCf9affsD+C/yLDkZpIr+3+Lft+HfTdviPc6AZ74fgf6ziH/JFzrLG1LiS7JLkZA1k/G9YmVIuEkNgI8v8PnEErZe3wUhuIWZKxihfGbHIzskEFDHig2G0tlPWgmOokA+uzh8ipY3nRJJ86+SH/kawATlWG5kCjFjluyKdRejJrE6RYHawQX5yfQ+iaPjuHyPWwRgYdKfOJf4j6X5CIu+JDADqvjd8+NH2PP7kIPNo1Af7L0zsnHM/YU9+7aNPel/kATd6tJ3/xAXsXtd/+JEXj2f/wROCGR6oYpBqqZSx/DsWlkFKC/zAHtEXdeDZCZdZZEFKmNiGf0v43/dCpsHjp0x72KrPs/uEXhr8CzZ8mg3+IaOPP8bBdBf8G/A/E/6RKfT4R2FkoIogWUO/qK7jH3sro4k/a/1m/I8d8X/C78Lm60BaOHTA/netzVkMNARE3dLkvpiss5nspEv/8XRzOhHg84Dvu3LovDPvrfgbxVL2D9tjBNw+mMIYXXORv9reSH5Mz8s6VozLCnL5el5eU2bxgWI/b7E70OVklJdOZBHA+AIgjk2me1Tbniv+4wY4yDz2Xzxe8ZYz7Zmve3yM23Ua/hVpuVjNXv2OX7Z3//Nf2iNu+XN2qYt+4d5yb/4Np9m3fOW3L8+L7HcdLB6PR6mFGGiUoZZIE2SpqYEPAoDjZnINHxHK5qjt3X7J/Sv+zdR7uP1eeyBp/FSjn9I14Z/2RsPVBL/6PpEx9JjzOAT/dgj+XeBR8R923YJ/YBQLles3Mq0c/3JMmPo36M/HxPdS1spdB5Qb/I/D8b8JrRgWjrLih23G6kLC1uGPuXZ5/D6R/JXvpAv6kGuSJ/8+kf0uObppu79PAOb3Z3PA7iQ4LU2Omnm84k9eYM/4/cctqtr/fSLv+se32QNeeHt71z++fW/ZZnYKFg+osuAnDiNY4z11Lg4AaNozlr6DXd8nsia/P9qz/ar4z5G8wX/cm8fPC4lmYdznUfBvBvxrADwc/4g/Xn/43HmfyEYoPf3U7GGSRP3s+H0ixBYmHFNOcEX9kPpamgTbsLy4qK5H87n8nZI2lrPX1dncTByadZHTWTX/lH49OEybdt8b/tiRM49n/N5jwZBTySM/1FV/P5D/gX/7F/uRXz7dXvOOl+6voz2vV77tLHsWZUuwv5cZ0v5CLMJqliinMG2Pkzj6La98xJg74M+5nDX3wP8RvMocLAX/JJ8JCx8rFfumMWX8z5PA/2jxT7q2dfwDACHQaAQin/FvLf6bElPYdXf8r+mPf+d9KDGJWY9/7msZ64aiNA1fv2PF1la+MSg4Hr9PpMoZMi8wvTwPBXTMzbaVC/RzyaYG2u98hZmYz2b9qQHz9Atbtay/cfTF409eYM943ePxQeo3lntVn6TuZH0759xP2lN+9+jPi+xyvfKtWDxiDMT4mJBLybAr3RraMZP1j3PWxyWefKWcnvCD/oF/Hc8eHhXzCjRsw78MdAg5WN3No5RE4g/5vhwaYLa9yO/xP0wVQHMX/I+C/0F9yPFe/aPqUvCvc9gaf0TPrDsnVyPFZZY7VVTKRtr4yWNe8L+BIY0GPLFajXVnjBM1A8AAe0AqxauintbNJ4fAUr2f4/eJmLCyvd8nsuvFbCQxqPo9QhNBLC3wodIoBYJo3OeGD7fbHnXx+L3HSqpzlPeJaKZy0P7V7/hle8hL73bk50XWrle+9Sx71h88bgmcA+zXlUS+Hk80D7IbsVXk9JRpsE3IywI7dL8UBaLgwDpJkX0y/q3gf78sJH2/XYv/Lv4w/l1+j3/cwjoh/Mee7PH7RJzUnqr3iWyoGTwsMoYR81UhzTXh2Bh0ar/aga/kTRbCStrCzGKBCHuT4ZndcxYikS+zgHyqiZrQ5pqs54zFMcACODmNupfqxH1ZmRrNv61FwkZpmMRCdrumDAA2gP4P62tqc1n3D8pWR1o83nKmPf33cNpKCSTPnY9yq301i83PJNuyL3I7e9c/vG3v8XXXweLxeNUfBzmvgSTtOdvGF1N2bFN9khkhBzzJt7L5BgUI1mfCv63gf/8spIx+5R4MtMP/8ftEvEkfC2wF/7NxgLVkQPXSZ4H8+4bTJ6p6wSEja6DV2xrhmcQYMQGandbpwEQwAEy6su40gMQIRDkuYH5uv09k12vb+0Q4FecshJmIlCNI/TbN7nujk1g8fv9x6pvFgSwYVeiIa86sPs8QTTMSm8u+yEvuYq9558nti3jm4eNwhjxFp4PNrwD34O72SyUSxmrRiffiLJryyFLnTvLlQVFn7wn/3Hz3azf8Z66zhv+1+LOKf97XcD1swf/Yiv8ki8a0hn/bEf8cf2Dp5Z6xjv+yICf8R7Y51Q6SkUzFP3S8hn/I36DWzVzaWcigCS3jI2fiAUstd/BzEb3BvS+xxWD5xDjSADgjYfFI730KA4s9sepIGz33HejAAeoMbqzJX1Z4NP9sfp/I4RdvDlJFYZGuzKxjhFGWwcxsjJNbPPy0VTdW2B8srXufSDYAkyF8nc2BTc459xx78u8cfV8EiwdYdLUJES6Sz2Wtkf1fJoP+IhseCmzvN39/ljeCfNwF+x+Cf0v4P/SqPriK/zBWN/+kv9T7pL6P3ydiMb7yoXEJXPe6dXsB2u3KWR7fN1EvjvyKH5VfVqmpNbPyjZHU+fH7RNAfM9yTeZ/IsGF3+db728UvfImaAVhjk+xUO10KppzwMTPLe0quE7aen7Y6mbLVXPqe0m9TtkkMnE/xSalGzUfWnez+B/siL7mrfeDfdt8XeeVbX7A8YQ7b+PgX1wxTR7bJDhjq16+q8J8NfKCfiFlD6L3qL5Ujwv224d/l6zfi7l0a3YJ/0YkNu9iFLmGnXfMepWpw/D6R7MC7498zDL0X8ZkzYD1sOSv+PaNa5rLxDCkC4gQDN/pNgzwGONOAtZyFDSy+MNeZUtpclunkJwXR/ZPA5OzsvP4+kQud/0L2k7d/ut39+g+2x532bLvAiQuCeSbnyfrbA+eLLSCfSZSDiZm91vcpaC7y73ejRxxp8Xj5W860p/8eWHyAtbUeDTKVDPlEUtzMfhn2Vqbn7Ozge7R2e17klW89y575useT/w/oflGgwGKZQgQx9sZJAx0WgSc1JavR4soBLsR74KTWnJjwgkT6yyxYF5ndr+3vEzkwrOP//JsL2MNu/mS7w7XuZw/9jp+1C5y4sB2Of/236pnjzzr+OTYL2W/wr+R8Bv5dgu53jC341/tdxJQABuJBBmjxH1RoS/xR21W9rOI/tx9YkDbRBWWtvKoy/5P6lyGFK9dEW65h5jrg8ftEyEGZAS7tvuDzLmk/d6cX2vW+9iZmZnaVy13DHnGrnxFWw1f3PpFdL2y74mGy5LcyfmdlANSI/9/vRkc7bfXyt5xpz/i9x5l4IBWY8Sv0h3uAOCYWEnxl/FTCYAZGdOD9H/3ng+dFVvZF5pz2y296tj3zdY8LvcPXWWdaCnD7AqgKTgJQxc+AXTUcUMEqkSpl35T4ZD4UcJgt/o3wv+vV4R8TwOw3Y9iDb/K4gxd6mdm1rnAD+8lbPccufuFL2Hb8NzLJ3jixBl2s4T/HH84YGP+T8T8S/o3xT9ndtBr/Cv6tBGByf/IfX3h1QSzbBk38QQnw1LxPZANFawM8SUkTIzVZAUkaSiydFoPl2pqAjNJolOeUZ3Una3hC2XvO6+8TufylvsKecdeX2ZW+9Goi9/pffzO7340fLvNm5r9f2SrNh346kDJrljYs0zOPGz7cbnvNu+4t3xcPqQ8TOx9JqUi9iaFRERf21zDLNuEUn4/2QuDB8yJP/p1H2Q+/5HR78/99o73/o/9kH/7YB+2P/8/r7KEvu5s973/+XOgA9WEw/7GiwPA584CORcP9hA8DxFf8eDeU/Rdd+Pg5G01eyT4nzDvh37g/BsUe1+zwzz4/p93tOj9i1/7KG0u7r/mib7DH3/YFdtmLfxmC3bLSzR3iDy2jmhWa7YB/yJPs29Xf4J/HIsMl/Eefa/hPJU+2H+Ufkq0ein9ZbAbiLC9Ipg6Q3Kc1+5xz+S4sGm00HF5eSin4dGBwarnLd2fxwOr7RA6UMCgGZPmJfeUUzvuk0pLIn1TnFoPyOyyGziWz7xHm1tKYl1BoDyh/FTMyGWUPk+R76eUqX/qN9vjTnmUX/7xLWHeddq3vt/d+6B/sZf/7eaI/nm//VTNbrmBh+kRufteH6w9fHAeZ97/hj9ltv+mIex6/+1iRP2aVbzbc/Si1pjmnRQS153DUVIKgucxpNshuPudF/p++5832iPe8WX1NkDXLIlLwQw6IedGQCYAz6VkWliSfSavIDz+dtBY7MaTch9YKfTJ+Hf+7XoHtLfi/5dXubLe82p3a9l/8+ZezJ9z2THv8ax5kf/7et0XgW8V/+PN6/Cn4jxjB+J8S07g0H3olvyrEJfkPTkwdjv8De3X+a4TOJn5axX/7bQ0sP+7J+hrUN0FGADQ9A4l/YyUmYxsPmPQW9XoCQb66Ezu8BxIlm1TrxE/N13l9YAWNNABmBCWhCUN6oETgonUCi01RnIHBDFEWFtToMzVPDIKf/J427du//jvsZ+/0gtXFw6/73fhh9m1fd5PQX37YMOv80Ctq5bDJ6omrQZnKoov73/gRR1o8Xv6WM+1py9eT8EIVP1NGMEI+re+kR3ecST+REaj5LXwdJ1Cw6PtmM8tXBg53I78jJshgzAuOVEHJ58UBB4cL9iCaK+vB4O/G5YoCAA5elvA/k056/O96rfmPy/8vX3lju9t1fnhrHxe70BfYo2/5bLvOV92E+q34bwoRJSOQOczk67zQM4ns5s3lcRcgVRXHT26+Hf85ACf3J0vAgafEHzqN2O6fJfnClDmrYbKyEj/NllNYy7+1XsywSOeAY0IIWimB1ktYDZ0sMGUHW5lNSleZGeDEzZbmJd11Nj2NZ84BSjps2o/4N6WzxGyb5grIYaS/ad97rbvbT9zmqXbBExe0w67N2NgjbvUzduUvvToZHgPYv5Q1TZuQN1AgwsYl3Ph+Rzyq+/K3nGlP+93HNspOV9B5yBcikcdr9EfSO+yldmLzqb1m6SsfUpgiwz+vNtD6tz5JPKlt54C+tPOT0n6z+H4mUKGnKCskvCGLXMX/wH1S4tvnSvh3MV//RVezB9/4cbYZm0O7uMCJC9oP3eSn7JZXPT10H/qLPvuxkfuI/A7/WX/JIYTQjCSfYGErzXv8uxWkg1ncL+TBUWwWB1ZykVe+TAjqiTXIFzm+rqV+N5wM5RMr3JVW4NLTkcO/6yYd7zQ4Nu+JaMmFB70l+Mkt6bz8MtjylRGLbE4mAp+TJ4ktZB8/cDypIZrM8iGln5Fuqnzr5JvZGBt78E0fZfe/ycP3yhoueP4L2eNOe5Zd/PMuSQxZs5Ddr/zkrX6Fjes2yoSLju9/ox+z237TXfeU5aetHktp8SDfZ4254QYAJiUfYy9Q/2lOqpRvVzC6lVg4/DwGQHqqQCJxhXUz08vfTgAfQBYyeXIpK/NsBD5GQKVN6bH8OxYWrZPJHKHHjP8uK9Q5H3apfB/msItd8Avs4bd4il3wxIV27muMYd//rT9kZ1z3R5fFkTLtYe3Cnd0n9NLgn+PPNvxnH83xJ8pny9wPw7/bFGVhjA0lJwRxjj9ITDxNSPhfWfBz9Qj4RxYylvRUq0La7wZpMDEbBxJNGiuVbu75TzkCnNJJNmquzWsZIAPP5L74N6Xu0ZIDd1NPUzZN63esvmn8RQHopJYu6Airn4Sac625tL/giQvZY2//dLvdN+/P4Oec9uI/erZ96N8/EEwq6rB7MkU5JTPgovL3yEIPbjv64vH8yDwiPlNmA/3NKp8WLzBnM+HlGTz5ZNakDIDnNB2HvHBUCyr40Z4za9wHn9csuG/fy1c+yCFJsDinjDZnYPHXKFNZ+KlkNoH/lEFl/O/nYGKLD3/8X+0Vb/3FI2U0t/iGO9hDv+Nn7fzL4uOLbhtjMmZHsr/jP8WfbfjH9Dv8G4jkWvMt7eVLGFP888yV20++geLPnAm/ZkXXc+rftNyqFQnOXNl9N7SEFQbiPxWYmv6GhpbAw7XdxCNp5beVIFcHzmtBPokRgImP0xE7/qM3mzwWSvEXw2MfhJ5qbrJBrm9yBhN1UNrIaZPJYXbxC1/KnnL6i+x6X3cT2/f6+Dkft0e94oH24j9+rvbMddA9wQlmXXI26H/p8mQyj6f97uNMliimZ7FQgN1NAnYtP6TmZurhg/1En6qOLFbVF+wMjKvPNjSLZFfLQFVipJ/r+T6WnwEke2qjBgTsI3XWa+bCmXIErlXzp/a7XRn/sNmwV7z1efZTv/Uj9olzPr5Xn2Z8zPeSFf+saxk/LySaheHmo+HfDPjXALiOf2m/ZMBO5GUfjibQuL91+C+HSKz6H88F+lnD/2j8dylh5fpwXv3AWGiTmdNZFOgQBMrqJTNuFhLd/U8DSFnQwWeajtO3THoaNlWWsoDP7PtELn+Jr7Bnf389prvL9eGPfdD+6wtPtz/489eQ3Wpw3OdKh5dq+mdODqZd6wrXO9ri8ebn29Ne+5jQhesnq9+KfASHYN8LG27dz8hmyea8qB/1fSLsqxzI+VgwaVZsgtIBnZCp1LaVz0dHmS3K/kIswqI+lFOYBns5jfDv/jybDsrnO16Mf7HFMPuj//M79uOvvId95OwP7d2vH/P94s//Mpyeo8MkWX6OSRn/8yTwP1r8qwEZ/xS+CAAhUDLqLsuUcpbgvyldhV37uKCECSSm0x//Pga9kZBPFNSv5aiVzxmf6+IQPfDk1lY+OiXANblYjkk5UVlZkc+QiQdqUrraDCCUm9MeedKahsVZGjNCdjh3TBva3j//hstd055xt5fZl1ziy2zf6x/+9e/s3s+/vf3pe/5ExlXq03Jq6PBLsqlB7cEYorf//e432PPe+JS9xn1w2oq+24qc2uUXtmpZfxSMTRtIVYh+5UDROFD0G8t9Up/udWi2AEarJwnV3UlO/CGXeMH2cuJc7htJDpGkYamxSCetpEwMAZFzkU6+6naXK7Lxpq0H3T9/79vsoS+7s733Q+/Zo+eDy4/5ft0XXU175v2ntRFTSiLxh7Ajhy5I9yjn+T8Z/8MoAOrcaZ+K94Ukfg63QSoX4o+qS8G/zmFuk5/tFLpzXx0pLrPcgwYbCdDmLMMrgqQ8kGqsVMFIGBhLy4nFY80Z40TNADDAHpBK8arIK2Uud0V7rily4EjKjDohO87EqShkEXo4oDtRsqgefVJNkYPhDa54c/vZOx9+TLe7/uzv3273ft7t7T3vf3fYIfZtyJGRQRwlC4HtZDOX2bdNO/N//rw9741P3anfl7/lTHvaax8jqTVv8JYSTujP1affIxQpvoyRTOz+Owk0Ux34VL1PBFSysrdcYuiO+Pan52Zke2ORb9QvMkKUO/KpPmarnJUNki8+GkUTxf/QDlLpZRensoL/INqE/3/48N/aj778dPvL971zL58142O+NyX9Mf5dfo9/3MI6Ifx7aX7SHoT/0uKf9kQS/sP+JB8d8Kk62pPIi1nEnxX8Awjw36lymWCxUjL+R+MAyPTMNgIcmrDwrbwI6kf0bzijA58dZyt1mXBsDDq1X+3AV/ImC2ElbWFmsUCEvcnwzO45C5HIl1lAPtVk9n3/5Qz7b7fd7Zhuvt74l6+1B511R/vgxz5A88Ug3JcjeThU4Y0JNAkrp7KM/jun2fPf+NRDM5GXv/n59vOvfcwOY5nsPZJxlqO3pONkgFAA6yGDZLlb/YHA3H3rgdh1RX4ALp5NoLGFXjmDZd1ThEYej79xkBvap2uPN2FZAW0WUhbOuR3/o3ax65Xx3wzfbJp98N/fb4985Rn2pnf//n4CzI/5/ne71dXuEro7fp8IZSE5de5+X8H/bBzApxRfZYL01cxrgHwyK5/AEUZiWo7w1dtrzs5sU0aHuxsWiRUYSSIPlcrZFmikdCJnId0+jKSvWTkuwFlvyT6YEdi6fJsHx3Rv9uN7H9P16+VvfoE9/CX3to+f83EKhtBN6CFN8SinZdjnY8+J9Kf1+mnPf+N6JvLyNz/ffv53HyupOGch/rvyZJBniampVCObjTPfRObTvzQOZMGoLM+RAh+SF7CwnBGwX4n+2CaT9uksfYZBwodMKi0I8gQNAbiXo9w/ISTuZfiqA23B/0w62fUi/OfmPH8f/ifOOdse/+oH26vf+eI9BR0EvLtdZznma9bify3+rOKfWDePdQ3/o8G/4Idl0ZjgowBgxE/L+zQutInJUVajk2W5VMe6KUrE0Nx/R5EL+RtJr9zQw/kHJ0ckIFZ03AUf4Cxk0IQs2nSMUALEwLno3ichX2wxWL6yPR4AZyQsHum9T2FgsQ98pqeb/d60mLoGL3TiQva4055ht//mu9q+15zTnv7aJ9jP/tZPEAsZFDAgH5t70Mtq7XeLTjUL6fJN2kC2g2zxzCYT8cXjoLUys/ZUUgRm4k7d8PkkX8yPdJLdb8tcsdfFXz/TZJiJmYn9vX2UteAX+v1PVb5/+aV+7QRnezkDJ/yEgsIBMI/s/zIZ9OdsWPxnB/zvd0Aj4Z/n7/JJxz6O57zhCfb8P/yZPWUdXH7M94Lnv3AdTRp/NrGUvRrjreF/Ev75Xul86VPs7zrxsTCZ5vjD8v1uiT9Ehop8GkAcushfvFoJwmH4NxsHz4FIgYLYmadVDCo+uohMIbzBgp1FDdGzEKrDraZNdIaZasGaQ6v80DnJx8pMrGtFvqaSvN9iwSSZYuDEBRGU5OP+t4t/3iXtqXc52jHdT5zzcXvUyx9gL/5fz4H+qEwRgmMgQ3wJ497tOsr7BNz2c8lEnr9kIr/y5ufbU1/7WLERM7O8p+QGZOsFi47S1MBcA5dT+tQOsv9K0hxy+WSWGVmZatH0ByQwId99wiiYzJKFrC0k+cSQRyPeS7M8fZpjzCqmz/hj/ZFzclwLlrnI3gH/exETwr9nRfqN1RRwBwLcnNNe8bbn2U//9o8c6eVe17rCDey/3fLgmO+cu+F/BP6B+13w39p3Jv9MWXdkyWkMaGt0w2fv+0Q24ls8QfMFU4tTAtRlshgb0iKtw+UgT/LSgLWchQ0svri2rBWJBoxFflIQ3T8JTM6O5EsTJdF115iiC5d/+UtdwZ79A79iV/rSq9u+14c/9kF78Fmn2+//+WskWOozCw5CXlC5Dr+32KI/ObiUyzSW9TLteW98ij3kl3/Anva7jxUS5WBiZq/1fQqazJbMAqyW/MLlS0mraR9gba1HgyT5cYrGEotkvwx7K9OTTelR8SNjC/FqPycyrECZPql/UnrMG6+hZzrp2EmXxTXhH2NTXr2Pb0kWRfgP/fFYqKzobf/wb37HHvmrZ5zUMd/LXvzLt+Bf/6165vizjn+OzUL2I4szIUmqgPP2+0TkS2jifqpXZoCK4hlbVDbgVZX5H6fJB21WuMxE23pipSmBTMrmmGoK56RTPNy+W3kNSmfGgDILs7IhuhjLMd1nff/L7EuPeEz3Xr94e3vHe96Sh6/6t+SgnAG2tObwq3ufCNdncQrOWa9AzcyGvfndbzTGJcczHr+zMgBq4P+J3wvhdoplKDUwQ5bszAfA5MuMQKrg9nEwsZDgK+OnEkYpOy0jZ8bN9pOahjLAbU+tyz4k+bw6oP8bPiP4GTGNFA5Gwb/KR6a1T1VpqgMn/K82irZzTvuL973dHvorp5/UMd+v/+KrreB/VXzg//h9IuxLwH+8D0QAbzwQLCSZlUVqzBM1ds4DqRIgSE1WQKLXefV9Ije44s3tyaefdeRjuvf8H7ez93zg3erXhLb8JWwun3WVzLfTNTtdiHh1NimR5bEYgJRZ86pMkc9PIozoL6lfSmAoLTia3X/QXtjbJECxjSMDSA9m5d9lQUegbE/8+frEZTLWn2mg58x/rCgwfM77AhjCT/gwwKl+n8je1474j6WV8D9t2j9+6G/tR19+55M85nuTIFpzh/gjo8r7WSv41/2p5TPTsl+QGPFfHcvgcJVX2234TyVPth/lH5Ktcube7jnJYuPx5+APeKVto7gZI5mWWVl+xF5+XTpHek0nqpa/od5o1pWpmCVwLdn/lt8n4vIGTU7SewK79+tsU05pSckG+tATLUaAwJ7E933LGfaTt/v5ox3T/YvX2gNecEf70Mc+0DDVxF4pIGjghAFSONj50hMrVT6mn9LPRBxirMyeSH/YEyGfc0d1QE19gtbvSeoHQ2RdzF4+5ICZ5XeGMLCL/FBUle++iHECXHmR7BYGLifABRN+DHIw/hz4aZ5c3mMGmjGbdeHSpF5eaObh/rQF/6y/Cj/KEhb7ffDfP3CSx3z923w5/qx87c+W+FPwjzqtlLyEl3b4IcLC8vwmLo/LKahd8e8Zg7H/puzJEEvD/lvwz/HHbBx8FxZlKcGAjH5WRm80FJMOYiUO30O6xR6C9B7zbhe/rFgZiq+g6DgRybIw8PqQSweWjOzy++nTZG3YD37Ho+0BNz3aMd1f+d8vsIe99N728U9+DAuqIZ3lcWcGwaWb2Rlgx2v9fSJrwcJZV0QBH1XYZPXE1aBMZTEGvsBODbjmPzpVb6OLiBw/JPbv6pksP5WzJv0cefzuICQ/9uGIUOCIscvXrAru1gBVAls+kajfOWekssDr8iHCBXsQzZX1YAn/HaNO3njYtQ3/HOBy6bu0X+R/4pyz7fGvebC9+p2/tPMYYtSDjvnOUXy9KUSUjECmP5OvE4klSPQq4/K4C5CqiuMnN98P/zUhZupG8ZOIwj7vE9m4JwYDSwqMQSdA86CFcVEHfKewn5gQgtZWxhyATkwgAsQOzIiyF1ZopG9za+sm3T1gUBc83wXt8d/zDLv9te5q+15zTnvaax9vP/ubj7I5z1VPSeMpDs2lLGeXc0sHO4yFB1A2o7fc1zEu8QYKRMhE1I0PO66Z/cdrzjD/lvZ+I8kXIpHHa/RHmvdI8nkChcCK1dBXPqSgLM8/H+VerX9/trxPZIfLcW7cnj5P8tulqeB/2nPe8PiTPOb7M3aBExcS/K/Ni9xHM2lywLLw5e5y/PAMMsefUZrI7y3+7XD88/iJutksDqzkYg3/vpBsAonLpFiYb/AoKyTDS1fMbEy65ZKX/1dOWw1/cniUYIJUjMokzEwHeq3BL3lB/Ezn5ZfB7vs+kUt83qXtaXd7sX3b19/U9r0Ojuk+0F70R89ZlIWU1nUzknxL8pFW8XMzyAL2KllTSs7MrOqSyy3sNvnJW/0Km7X3iaDX9JUxlFZnAw6IMJh/kO+zxtxwAwBTV2Yv0Dk3J1WO3yeiYz70Klmhj2uKUx+Gf2vw/6tve7496SSO+f7krZ67fJsv4d+qz7P7hF6SA3J0C/t7dlwArD6a40+Us5a5H4p/A/5nwj9KTooZPZxNDpTw35aFDPjfoAyFVUiPfkULrFxsfKqNoQ7njkP/DKaqm3vhZJ4+hYPUAbPzmIo3ToD/I94n8mWXvII9++5HP6b7oLNOt9/7s1dF73qEc5C+sXil4csM+JRaOeSwy+XM0jeQy/xn/ayxXyyGiZVpDd6UwRv8J4Aw0/jJgOw/EZ8pszl+n0iWj3Fy8Mi65MBVMpKM/z0vzjx3wn/tQG2xTP+Nf/3b9qhX3vOkv82XN5KP3ydC3+lHkjr847uwHPi0YCYel2ri+TtW+MyzdjDX2vOCs8jn2m6WLzXxbuMrGLQ0KaUBWsbjHp+BHLHjP3qzaXbVy1/Tnn33XzniMd3/Z/f6H7ezd/6/t0jAGP5fDxS8D8DyaTCoBmBe7si8mb3XxXVQZiKW6/BqF+jaXb16kJ6ss+Q/y2fEgPyoLzmQ6Ev9x0X6QgF2NwnYtfyQmpt/TvZnnxNVfS6/T2THa6y1PwT/1uMfNgP+3/Xet9qPvvx0e9+HT+aY79Wlz+P3iRwIOOx9IvE+kEiLHIRl9Uqfp3KWZxlmlLaZ3hubTMtdJZ1dlZ9pQJeR8CP2vF5Dlu6f5PHTt0w6254qa5rZDa50C3vKXV54pGO67/r7t9s9fuE29ncfeHewYWaE8pODA8nHJmdKZ71EZA7CfRePGhz599F8Ln/Herew8exAGFeYmo//8M8sn3NwyR61nKXm584QcIJ9L2y4dT9T/U0eEy3qn9PvE9nnCpXr0XuU+XbHv9hiAP//8MG/tYe87M72V+/7072H58d8r/1VN5bDJFl+HlMuZ01yRF4cJWOmWMj4Hy3+1YBr+AcAQqBk1F2WKeUsHz/7W5I/SD5fG9yT3ifA/ayWPIn5evSwxIkm7stMiThfYoMDxyyp3yKdTgno0cgRPXGtkrvJ8hkysZ+Q0tU7XPsMe8ztj3ZM9w1/8Vq735l3sA/++wdCL8wI2eHcMW2oweJzVmvNa5c+oINdLqlPh5wuyxPDJn3CdrEpQFnG2NLewkzwISYlGBME5ukXtmpZfxSMTRtkP+cFE/YoDhT9xnKv6iP5I42AGa2eJFR3JzmUgdVFBgsS91HuG0kOkSTBf2ul+vfDrs59Uk5PJAn9y1ZZrgKI3oH/D539AXvEK+9ub3r363Yen19+zPdWVz3dONsWvZSJDArIn5vvE9lw3Qyr/8RqNeCeTPBkw9cDtKEEISxuacRMcQgjYWAsLWO11s1YvuJEzQAwwB4wYt5cZKZsNgvA4lQDlXLG2NgP3vzR9sCb/tgRj+meaT/6y/eysz/5MYx7YPyQTrVH0W1iuhMsPjtInOhILOqwK3TsOgkdmrAyzvh4THAJ2E42c5l9e6ZHjAyEZRYGVb9HCFmALyTwCSP9ufr0e4QixZcxko+5/04CzVQH/lx/n8hefpUCCEo8U3wJBpziGxn/QbQT/ocN+/gnP2ZPOIljvne9zg/ZGdd9aOjr+H0i1owfmIt3oheBwSILV5SyigCHJix8Ky+CTZ9I0pbpDC4RpMbdRQbHyazUfrUDX8lrFnLBExeyJ3zvM+20Ix7T/fnfebw96TWPwtyIZWvkyywgn2qiJvxMg5GNGItj7LXYuS+T2U2CEvfFjJDZakoWDnufSNYVm99tEH87NJua2pwShnL0VrXJBggFsB40C4q7lakTmLtvPRC7rsgPFkt7SiRN9Z0yLt170kqABmL/JWWQtMBux//+BMqy+UYil9bj31bw3wxf8D/t3FNwzBff5tvtQWWdRHkn/E4DP+s+wQvj76ogSQGO/5xYRtCnzv8j3ieycQFlI9YZV0qRkHLRGKR8ZeY1QD6ZVU7gMCMxLUf46u01Z2e2KaPD3Q2LxILII6bsZ2omQqlVjPcLPu+S9rS7Hv2Y7iNf9gB70R8+O5gFj5WZZkrtQj5ODmmdNcjLnLU5otZ+TFHKGRZjgFM07Kfpn30+9pzowMMsHoSvQIc/kV2tliosZSTKk0GeJaZSn/yNtXjYj29S9xffLA5kkVFZnmNWn7Nm04yk1M8ki0s2mbRPZ+mzpMDI+Ya2jwAids74TxkyzW2fJUTsxjpJ8qOc63ic+L/sE0nfNKcG/6946/NO6pjvf7vlc+zzL3QJObCzFn+YFMzGAdV/1/E/tuI/yaIxreLf/Z3iRzaAuv9I3jPFgTL+N54r6ACdBVRXGTRgqYlxWWZ4/sHJUerAPPUb0qeykEETsmjTMUIJEIOfi+gNTkNXJS7yL3+pK9hzz3iFXflyV9/b+T78sQ/aA19wZ/u9d70aiz2xaj6uGCpKiylrMCuANxDRPH1zgPe/44XNPehlZOWaAUwpw+kAtuv7RCQtlizKWysza08lRWAm7tRNn0/ykSDZXF93f5mrDfg4AnuTYabMTOzv7dNiGvYd6/I/0+8T2e2q+OeyJe91obKxBf88f58Q6Tjj/3/+ze+c9DHfy14cpy1z/MkmlrJXGz97/E/CP98rnS99iv1dJz4WXkx9HzXLj2oIxx8iQ0U+DSDhfxPZRhiTHkbxtIqiSiEwc4rLMjvTv9dyBDKF8AYzkb9ImVoz/3S/T+Sql/9Ge+7dX37kY7r3+IXb2dv/7s3BJJliMNsKgpIAGQQmOAB/344zAouyiQQt0sl+6fsQX/Jxt3V42f9qbOLDYIbE6fyALnyeKFuwfPxkZiYPHJIBGUyt/7pi08IUmYh0MIt/c0LjcvlklhlZmWrR9Ac2H1n3vPk+kZ2uBv+DAsh2/Lv8o71PxO3wrvf+yUkd8338bc60K172Gm38UW6HU3WKn+34b+07k3+WfUBkyAXlk3SzCPp0vU9kww5RBAwLwXxFXpF9iyfo96Wz4wLUpQ+MzeXTgkTBHkGe5Imv5k1RbGDJ+BEBUkVi2g2vdHN76hGP6f7Z37/dznjubez/vf//BDs66vtEeEFPCuAOlhQVftBmZzteckw0sphIdMUqVhYEK8FMDi7lMo1lvUyRzyTKwSR+ubKg5U3lKI0kv3D5UtJq2gdYW+vRIEl+nKKxxCLZL8PeyvRAsAbtI+UQoYb9TL5P5LBr9X0izYLE+sssWBcZjT9+YTFHW8f/P3zwb+2hv3L6kY/5Puq7nnXwbb5Fnv5b9czxZx3/HJuF7Df4Fxf2xZVUqfsdAJKQpOZ+F5EPtSB89fin94HAabiGGwGCgnPUhmt2SmkoApqeuCDFM7Yoa+VVdaYA4wxtGlK4ck20rSdWmhLIEoPudJ172GNPe5pd8PwX2tvJ3vAXv2P3fd732b/++/s1OxPKuciPWSGQwWCZneUz2NkAQ1xT2dkeE2AGSAZgQEgdt8k6TsX7RPAcC/rgAOM/nZUBUAP/T/xeCLdTLEOpgRkyHsBMCpC5TLrX7wHiJkUCCb4yfiphyOJM42fGTeRC9qYM94T9J5ijZPxhP6gfS+GgLiv+Z8L/rhfkI9MK/8p8KODAO2WU/xX8rwlFWx7/B//9/csx39/ffQLLdXDM97/bra92F40fXWZI9kb8hC7W8D9M3FcIPeN/Mv5Hwr9pdjZFfSn+8QLFhKN3/4T/g/nH+0DgcTwQ+mwkYcT+BfDGA2HuqqwsUmOeKA0DT1JSf6QmKyDRa9/3idzluve1B97saMd0X/amM+1Hf/ne9vFzzob+ZFNY0Io5U4qKtUEZQA5wmBHRFS6zSAa3xzX1l1EChX7fD+udmXtniwiWmBKxsqqLMHfDmqVfISQsXzms95fULyUwlBYcze4/aC/sbRKg2MaRAaQHs/LvvCBEX/Xbg7lrKZMlhsCBkjP/saLA8DnbDf/lfSJ7Xnk/lPEvzDvhHx3shv9YWgn/k/D/iXPOtif+5g/aq9/54v3nsBzzvc01fqBZpOu9Mqq8n3Uo/pXQ57N7Hf55LINNlVfbWIQJc8LYuPIAezD+fXHbzHwzpew24UgsUBjXTGMjxc3ob1pmZfkRe/l1EY70mk5ULX87le8TucZXfIvd64Y/tLdDzTntqb/9OHvSax5lnzr3U2QxNgSxB1ZMAIK+diTPZaos/xAB2aPswCLSnnjaYS5Y+ehf9DXls4R4Q3Bl+21/nwCmn9LPJnBEeW9W/WFPhHxueuBA/Z+zH78nqR8MkReR2cuHHDCzz8n3iex6yX4ZyRf78e0U+Cf8ocM/648qvzJGZv9+z6fO/ZQ95w1POPIx3zte6/525S+5Jg5EkM/DydfjT8H/6PA/Jaa1+CHCwvL8Ji6Py+krIgRKnEzx7xUDq/h3QrDxFSrGEDWLuaRHSHeyw0ZKaSZA8TLWoHu6fFMznGVuvhKH7yX5JJqBVBlz40jk0yz4e7/l++18m/Pt5USfOOfj9oiX3X/5Nl0ELu7Z5ffTx2TdIM5EpKoRlKrqPgIMlIUFtdhs+4XAqQbwf3L2Bug7a+bSyfH7RPikimYEan4j+bFQE6HAEWOXr1kV3K0u1BrY8olE/c65w/E/TBnw7n41W/yDxWZfx2nAeSj+OcDl0nfWR/YfM7NXvO159qTffsjex3zPtzmffec33KkpHap5VX6ZPvA/E/4VEtoGE0N53AVIVcXxk5trBsGl21X82zr+N8Er8B/SwJTO9fuElsEIM6sBVO5LKzVOfBhWTOqA78zsxzfUceKiSkVz/b4fDOHg8ytf7hp7OZCZ2UfO/rB96N//FeWbuSodvkLjNy96LsxK/GRUc1jTfsS/wU4lQO4xH6SxtQMfpsubWVAwRHxeNqNDD/W+jnGJN1Bqj0xEl7HDmGRhz6p+26otUkDUf8muUyQ0RjcQidnYic2n5p6lr3xIQbM8/3yUe7X+fareJ3L4Fctuku9/PRT/A/dpic/wb4o/7dKW8M/Z7ofP/qB99OMf3nk+fn3NF14F+os+e71k/AjYE/7F/tvwP4B/0cEoTeR3WZCplLUN/5bGz/jfxIoy2PFMHCmzsmBm0RCGYmG+waOskAyPqehvU7vlkpf/V05b+RFOLheJIba/T+QLP/+L93agS130MvbUu7zQHnDThx98N5brb6r8KC1hWnDkmCS2kCWLc3YcDdFklg+R0rpudueJC8dMWYDTQ8mSW/lue5Qbjt8nYhgDlZb+s7xPZNdrG/5Fb6PDfxd/fFyMf09y1vFvCf8nNue3u13nB+0nbvVsu8TnXXrn+fh1qYt+EWLS4pOfi+8T2fivUWIlR5LUmFakCOjMGqhGq0e/LP4e02LjU70edTiTBRAr7eJ8GEj8lCPAh+6JVNZ2lGuMYXe6zj3tefd6lX3dF18ZgbuppymbpkQy2Hcaf1EAOqmlCzqC6ieh5j48kZhMBOLKQJy51vH7DZBfQTTrZ439wgETK9MavCmDN/gPjm6mFIz8U04Zeh+U2Ry/T2T0+DcOHvtds8G/x4hpal/gP2VQ++C/DiBs8ZWXvqL9zPe8xG599bse6dAMdIKu+SDJ59L7RDYuQG6cgeFEMtNXfhunjCNWjsK4qb2kr7yQMLNJHcy19uxwi3yu7Wb5UhPvNr6OeF3hMl9tzz3jFXbX6943FtZErzFMTIYCcVAowz4I7WNUsmlc3+QMJuqga5tC2y5nHIY6vDLc/JXvpHv6UE4Exfy3fDdX1JE9uPUedPw+Ec02hIUOdrW8UGtGop+Pgv/IDjP+rQnMh1zb8O8AgKZxgKALICf7PpHN5nx2u2v8gD3xdi+wy1/yK/ecSXeBMId+sq5Tkj4F/+f994nE+0CcUUYRo6w+noWAxcnXoAwC9Ozby+dNOiunh3KkGkbBFWMVSr8qv1D3VVAd9TpxvvPbfW78EHv23X/FLnfJLxcGjHkxC6jvEzD6yeAQxky6yOmk/MxlmMMuLxGZg7Cyz+lM3VUd1SSX2+ic55o+l78P9MlyIBjjClPzSS7+meVzDs7Zg2k5K1RW5CM4RHq/sOHW/Szrj8a0TPIA25opKOO25nc+ZLCEFypn8bFgMqzoBKXDk3ufyD5XeGLBP+KH+1EXf6DyKWNBme9w/F/24l9mj7/N8+z0az/ITpzv/HvPYf3ir7HpviW5t0uH/3kS+B8t/tWAk+Ui/BIAQqBk1JLx8VyGP0gYg2S2SHYmZRXGKQoh1sVZ/GocwyrNdev6tRy6TkMnxEiEDep3LNnKItE9ZXuy11Uudw17wb1fY7e+5h1KutoMwCwMOuVz/eoXVj+CJjNCdjh3zH3WD2vlJP0MFmDyudSnXb5ty/IyS0ZnY6A9O+DY0t7dl0+VMCnBmCCQ+WxJZpp6NvslH5GM8QtDtGgPe+QG6DfYpqqP5I80Ama0g/CQ3Z3kUAZWFxksSNxHuW8F/2uXWgmd525z1qclHut6wXyzAQbj3+ymV769/dz3vtS+7ouvtvO4d7vgQernQ8jB6p4RpSRyNJtO3MmhAda92z30zPgfJgpgbfHeIGfUHD+H22A7/oeZndAyA7NNSmEWPfnROrCouZS7qMfJ54SnxWmBpHKu0x9sQoF9oASU5RtiyrAkn1dxjN/lG4aNuZ6iEla+LnSBC9vDbvl4+/avv5k99tceYu//6D+XAXBww/ChE1IU9DdxEkZKcF0KveceiPeT2fAgpw0wuP2XekPxn6n5iB5a0NKWHoVkm2T5qKGD6TXyffwjBU72NcoCLNgjTMT6G8MApAnSEeXC6JPbT5ux6Q+7kpKLTmIGnv3NIeOXzUybYmsjWawTuJuXRjhY5XJLyoYE/2DFgf/93MqjCjKNbBO28gr+SX1JJ5VITht2ic+7lD3wRj9p3/jl190XCTteODZf4w/5Hvnm2IZ/8SkD/tmuRnbdgn+sJ0zmHbfJ/nA0xQ/Fnxh/wr+8kRDJJtXUfZwxDv9FB49N0oFBl5Mw1CQP3tOzxWGFb+VFsOkTSdqIMe71PpFPw3Xtr/l2e+F9f9tucMWbh4F0vJiVp5eOV/pF2T1nIZKS8X0Hf9zr23hZfctY84mdwf+hjMF1HNof+W9p5eZ9IQGY3nL8PhH8Tey6Ij9YLC3IJE31nTKujP+iv4L/3a82Cyn4n9vxP7SLWeIP3zjsW7/6pvbUO/7qp3HxSHNMABqmWYjo3vbE/8z4V1V6h0wZWT4HQM9CagZoKQ2n8W/B/8aDef7qj2mog3V1VnN/MzAiMa7XexO1Y34JccrMne3wyaxyAof8Periok0/H334+0Q+ndfFL/wF9rjvebo98tY/bRe94MV0AMwIyZqxB+DjF2Yzg4WJLZjFuO32mCz0B6fjkxlap1ULghHJtIxDYp5rrhPHOMjn4+QQM6PiQfQgI5k/dGWUQYT+Bvwj2jFPhvpVt2Bhstk4803q/uKbvNFD9ezz3PtEdr0K/vXLP9WBtuA/Mesu/kwzu8gFL2YPuvFj7CHf8dN2sQtdfPdxHuHCsPM3AwB/me13kNyKf4O9Qw9b8D8S/r00OBP+xCZzHf8afyr+N16bBUvUVRRG4zKDEdMa0jFqfkTh6Bo0YF8NVTGR96OfrgNDeYH71CzEGTQ1lzKJ7YWFk7lucfXb2Vn3+U37pq/8Vik9cEaF9B76jcU+pakHfx5QZFpMhcHtcEX2wnsOTQYp3xdlkI/NPZhdZ4c+5bix39EA7Ph9InX6TIY+o+8T2fuqmWbgf+yH/0kBhPe6rna5b7Enf9+v2A2//lZHGN8RZpTdJ4zlsXK0bXRfDa3cNuel94ls+Pw0WciiFk81OV8Yw898hYsUFxsvXp/UmiZP1LR/lz1W5DfliDl9pfWPACacRPAsBN9Js/Y+kU/39UUX/xJ7yuln2YNu9gi7wPkuUMVTvdNZiKbGYL1uC6VymJLrZterHlxghtO9T8B1C6OGM/r4bRKwUjmLMpBiE1P5qDObBDq3PRza2H2jLc9P9Uc3JTC1/hsAsOiL+9QOZvFvTmhcLp/MMiMrT5KPPyCBCfnuE6aLecpC1haSmgnCNj5+swb/O17QH/kWxzUfn8veAf+DAsi0aSc2F7AfuO4P23+79XPsMhfb/6Hgo15zZp2wA1jx7y7+KLnFqTrFz3b8tzaZyT9T1h1ZchoD2uoE194nsjwHAkCFAF6FjI3sn7sQE0DpaSwLwalpsEXxLZbv93FtxB2JiQktaPIwkUpKRiZ5ezjMb7/z147ubeQkd7j2Gfb8e7/avu6Lryz0bhKYnJ2d7PtEdr1iLcrZGdlWn1kYEb54cZAMyhB4lNmaZJ7H7xNR+bFxbYlFkvzAz+R7aB/Bs7OEHxkb+aTonzOXNfzveB32PhFZXBP+MTbl1eyXX3XpK9mT7/BS++5rnNxDgX694a9es8fdM+LPnNV/+/hDrT1A079Vz8NQWlzHP+IfhRMi9DwAcWEn12QL3e8YW/B/cD/eiZ5OwqDUlVc/rHyqEIAzn1s+z71PZOV6xEsfYI946QPswx/70B6t+usrLv1V9twzXmF3ud59bTM28jfJzoRyepmFWdkQXeT3iex6IV7w+wRMEJ73wcRBOQMkAzAgpI7bZB3H7xMxlBhoz0AUYuq/EQga+cx4uWYue1OGe8L+hH/J+MN+O7uV7AEw/tnn4EuKf5Wv8WdjG7v9N51hP3XaWXa5S5z8Q4EfPfvD9tO/9RB70m8/dPdGVOLN8cfiLxp/Sgm1ywzJ3oif0MUa/oeJ+wqhBzmkb2nw7QuyRdwb8i3hX0u4cgrLjbPK/Jm9GzsZGX3yQOizkYINsX8BPBuHFpLMyiI15okaO+fB+CVAkJq4zT7+8jt/+ut2x6fd1P74r9+wX+PmOnG+89t9bvQQe9b3v9Qud8mvUP3JpnDKCn3OlKJGaVBSmN0vxMbmfSK02jsLmUk+DTabL3RO+ccyBQqIaXGq4pV9gZVVXbh8Ts6S6CLfRD4/iQBildQvJTCUFhzNHknQXtiblBjIxpEB8OZ+MwFZ0EGU5Ghvch8pk7H+3O4j1ded3a4pcNdrOlnbhn/ShY+fs1Hyyste/MvsCbc/0+5yih4KfNvf/aE98Jdua2/869/cqyKR4w/Hz5xn6ZPp3SKt13nlfSJRwsJ96Ux8pLCc4MyAmN+ihgeDlfReWBnSBz3hyQ/HWDhSZmX5EXv5dRE+A8AYv/+N3yeys78s9/7Th99rD3zB6fakVz/azv7k2bt3sHJd5fLfaC+416vt1t94B6LrYCnBHlgxEZF2e5/ILpML+zfsVz6jgKCBk/zF/YTTe+kVAeH4fSLNl46uyQ9FVfnu1xgnwJUXyW5h4I18uGDCz56O1eG/lqnUrqv4t2k3u/Lt7Sl3eJl9/Sl4KPDj55xtz3n9E+zRv35ve/9H/4k0sc9Fe3JiPo4/uthr/Dlvv08kSlgsKJhoTGxolDfUv32FijHEEjyX9AjpDrcPJVEFZpJ8o5+yoorpOMNZ5uYrsaEcJ/JJdAXSbpe3eckf/6Kd/oxb2J/9/dv37yRdF7rAhe1Hb/k4+5k7Pc8uddHLCCPop4/JOmd2JpKqGrtPypnU4D5FbfFb3u9C4FQDVPfh0O2smUsnx+8TCbklI1DzG8mPhZoIBY4Yu3zNqhBTGqKQ8J/fJ7LrhWJLLjdiAOyqgn9i1Je4yGXs0bd6pt3vho+yC53/wjvLX7v+6n1/av/1l06zV73zRcJB9uJc5GusU43LFUF+Xy0dqnnZHq36Z/J1WsQIEr3JuDzuAjgrMsdPbp7w/w0PuexUNpfKTwZw4ycHFxdFzjtMvKJjqmVzOPK/kZvXlXJwGDpEfgTEKR/zSv2/f/LvdnKYaz3qy8F0idmdON/57Aeu/yC72/XuZyfOd2IPF+yvD33sg/bff+PH7Pf+7NVhspl+0u4wohLNn/ceug6gsVzm0e+HWpO/9o2hevQW5RshOiS/XsrM6oWAljfcgQcdcfHfWNFmI73zt6qBFfULfuJno4DW/bP8mFvGHzVoJgD56w4QkCc9R6W06PZw/LMdsgNuw79itsf/t37Nzex+N/jxU/Jcx6fOPcde+ubn2C+/+dl27rmfshx/xhj2q/d7x0593ebpVyMSqrqtC4n+LDpmX2l8clf8i/wtHeRv7N5XvuN/o6WgxanYyAbFxk9x0BHjP8++T2TXixYPZgafOvdce87v/6yd8dzb2t/+y9/s2Wm9Ln7hL7DHnvY0e+R3Hzx8WJ3HmcmID0Y4AbE4Z8eMxog9+UOktDMWaQsnE+7K8hcl4MlXZAGeCtXFo1m6KCXPJ7P0wudMnoQlxz4G/nn8PhEa/wozHkPlfzrfJwIfa/C/9HqRC36+Pfgmj7UfvfmTTsni8Z5/fbc95GV3the/6Rl27rnnFEy0XwN/yIXFAz/X9jT4fsneF588L75PZMMnK5Cu1IlIDZZKJx4Koj05kqTGxFYjoE8uQ2EAYGec01HRgYM/1ebLmXmaNGqIaXN/b4cZSS+Y4bv+4e12+jNuYS9705mtE+173eJqy8OHV7gOhirT5/PidIR5JTtgVasC6AjqGA070fR+a/sIxFP0G7Vf68bvN0B+BdGsn0G8yNd9GL+Xa/DG7AL9O8GJk1BJWN4b8lsCAAfaOn6fyOjxHyNBe8EiBa6rXu5b7Kl3/BW70RVvbSd7zTnt1e/4JXvwi0+zv/6nP6v4J//Zm1MKFvLCq2PgPSURL/6bYkzG7Ej2d/wn+dvwbzLmpT0RR9sD/5vMIMSoMl1y7KS9kT/KWT+1F0zmNJs24JvmqSaeswg+86wdzLX2+64gknl03zQ77OPnnG0/9aoftwe94C72Tx9+7379N5c/fPjAmz7CLni+C/BkKBAHhTLsg+z3PoER99Legtfha/NYyNDadX3gAE0hstpf0m98WMo1LmVtw4rYHTZ7e/mWQJ0jRtR2B5efVE5kIUxY/GcsFGB3tWyLe0tzVQyzsUZ/5933iWgWhA/Pv7mA3f16D7HH3Oa5dpmLXdZO9nr/R99nj/q1e9kz/+Cx9slzP2Et/lFCKZndtqt/5kM3r7kaWW0Bwhz6yboefV+8P5Y96Cj4t7jXA/CIn9vwv2FD6kkBK83kQZlI83ki59H3iezuMcV5eKORz6z/8d+83u74tJva7/zpr+/e/8p18PDh3e1593qVfe1l8S7mks7STwaHMGbSRS4nyU8ODsSYscmZ0lkvEZk/h1HZ5ySWGWzVEIhycOTfR/O5/B3rnciBYIwrsiDe++OfWb5Rx5w9pHIWmT/JR3AI9u1slDLK+GlZfzQmWtTPy+8T4c1598mvuswV7Sl3fKl99zXusk4W9rje8Je/afd/8W3tbX/3R4J/HwvKfMkAu17DhEjycxp6Ib7V7J2/xua89z6RTZR1EhvBNMGSsCp23+bIdIM36YT3VMYpCiHWxVn8qlGJ+VLdun4tR10qcjp5lIufstUTXQcL40fO/rA94qX3P3UPH17mq+25d3+53fW6y8OHvi+FCYX+ujLkgfoRNJkRssO5Y9rQ9vE5q7XmtSQngWmwADUjA9pCTpflhQX1X5xNDbRnBxxb2rv78qkyJiUYEwTm6StDq/pnv+QjkjF+YYgW7WGP3AD9xnKv6iP5I42AGa2eJNLYTXIoA6uLDBYk7qPcN5KcabYZGzvtm86wJ33Pi+zyl/wqO9nro2d/yH7qN3/Efuq3fsQ+evaHy99H+g342W/R4uxyip/pohtoKOajclbKZs4r7xPZ8ErobCQzkvzdQeXpUqMBO38itud6kuzF9LtV+CRG1J8nr5JamJAN3+UmZD8xCswcpBpMNWVKh135Xh8nnihlnWDEr/3/locP/+bUPHx47xv9iD37B15mX3qJL+f1UXSiWUS1XwQXie8jdKe6TUx3gsXnBSKed6CaclnMQr7RPXBkZBCa5ZWj5abAg/+SH5MDMsOSp7NpAHheI+1JRH9wINdTKeGE/lx96uvYA+Qxko+5/04C7VQHzkyVq0/QIcbPe0iahVDgI5uovzf2L0yZ71H865PUFvOYc9plv+Dy9tPf80K763UefEoeCnzr3/2h3e+Ft7HX/9VvlvhjUF/YoR542D0gZPwPU53EoYFqvsjieOFmm8iRdvZN0rZjFbdwTCT8k69zxgxn9T6RJdc9xQ7//iBhTMa/3sEZQk5ROe3PwOEQP1LgMCKe/gsFdzMxJr7vilY7uphxC3BowsK3Mglu+tzp2kZQJoCFkxmY/z9/5H32wDNPtye9+lGn5OHDK1/uGvaCey8PH/ICEfYmwzO75yxEDMj3HfxxNDSSWQj/d/p/aDE7fp8I9W1dF8UAoQDWQ84iQ98ydz2SKffOZNcV+cFi5cRQSFN9p4wr47/or8H/d1zlNHvqHV9uX/fFV7WTvT5+ztn2rD94nP34K+9lH/j3f674l9QrkcuY4f5ZiJhP8J/iX6NxaZ4ANEyzENG95fh1CP5nxn8zmEQGWT4m4CdukblsMEBNr8HitA+wKJruTJuNyENihcxZTXRgqMGJcX3JTiUSpFwsjstXZl4D5JNZ5QSOTGC3K2V0ZPzKIrEg8ojNXvLHz7e7PPMUPXx4/oOHD590x1+0S1/0MjHKYPDL/3lzDtlHsgVSO/IBbAhznTXIy5y1OaIWZSHr7xMQ82Vfo5Aoqbpppiw2Ip8P/+U6dfEgepDR6E+G+dVShWYkmDf0EYxTlSNZCGciepO6P/2F0ueJTM7OW+8TucTnXcZ+4tbPtAfc6NGn5KHAv3zfO+1BLz7NfuPtL1rH/0w6aeKPJAM7XDz/XfFfzLcspuV8UspC+v0p9im/Ev4p6+axruF/bMV/kjXjFNaAoMhCLK2mOjkzT90GBKSjF5oBgNWg6oWvUNMBLmNqNtI8eIHpKcvBOOTr2WoH5qnffoyjnB5JKQ1ncWsbgX/7L39jZzz3tvYLr3uynfOpc/aS313X/urr21n3/W270ZVuQSwyJijA8GAepQU1P8oOpEGhO7Tpqe8TOH6fiDNBVn/nQLwwxZhgANvi/jLXjJ/zwvtErve1N7NnnP6r9k1fcT072etT555jL37TM+xHXnpne8+/vntn/HPZkve6uLKxy8XxZx3/VYGT4g8+i9+gvy7+pfiTTSxlrzZ+9vifhH++Vzpf+mT7bxKXN3dGzkIEVHSrr5B5BfTVby6aCRZiiW36ChcpLp4h8JNUcaKKz1YPGvWc4rK8vOvfaznCmcKuV9QR9ZQBGRdg4lpwVeCwT537KXv27/+s3eMXTt3Dh4857Wn247d5kl3kAhdDLV3kg/W6LYr5YZrgb8Fww1YjUnZwnKoTZrjH7xNhAFj0xX1qB7P4d0maXQcpAw/2y/5dzSd1Aq96RIBNWcjaQlIzQdjGx29mdtELXsx+8GaPt4fd4mfsYhf6gpP29/f867vth19yZ3vR/3qafercT+2F/0EBJPaLWAE7Xjw/MxDq0ItkIYp/byoxURzAin938Ue5He9jL561A/5b+87kn2Uf8KBdnMLCcECBvI5cT9LoxYAKAUGuRkxkaCPLsVUDjPtDPRYXZs5rG8v3++TstSlQswUOuWBkksc6D/kkrTlbzrXlP/v7d9hdnnkLe+kfn5qHD29+1dvaC+/7W/bNV7gOWHpZxKRQJbrgen0cbjiYnHoZlC7BrWRnZFt9ZmFQEAO4JYMyBDtltlAiAyoHMzm4lMs0xQGnyE/ui/GTblymHF4I+WDhEWho7i5fSlpN+wBraz0aZCoZlhOJ0gEyyzlNbMyHYrCPlP1Sg8Bh7xO52uW/xZ5+51+1G13x5N8UOOe033j7i+2BL7q9/dU//akurgn/GJvy6oL/gb73wuC0gn/JwFfwTwzADO7TL8a02JQy19QBxGJP7T/d7xPZ9Hk72HNe/ULposfz9vtEdvYXKpMdyF8pgMXwtYaZ9wFcZx//5MftSa/5cXvQmaefkocPv/DzL2tPPv0se+BNfszOvzm/sl9D/XpQIJOyk7Az/UbYaoCh3jOwPyZ8hPyHSzhabvFyDOlQ1je23/H7RNrF3UsMgQGJMDR+KmGUstN2/MvelOGesP+C//Of7wJ2xvUeYo+77S/YpU/BmwL/5aPvs0f+6j3tma97rH3iUx9PdGAU/MNmffzhDo6QgKyWGA/DP9JaEAEnTbKVnACk+4lsv1Z8xMxP5/tENtB3H9z877JfMOBMbCg3zirzZ/ZO5YkZ6EIT3rj0wUqwIfYvgGfr0kKSWVmUFva6aJGdPP7aUT5UoPXk9NUQiy7e9O43ntKHD7/v2ne359/rVQdvPszO5uVDtoXblU2VAhzbjw2I2Hj8PhGEMzRq1C8lMJQWHM3uP2jPHXD5FRnOAFOUzf1mArKgIxOcKbhx11ImY/253Qfq61/zRVe2p97xZXbba951dS9wn+v1f/kau/9Zt7G3/b8/WsE/6cLHz9loE394jZ4lgBx+dfiPpZXwPzv8s89T5gDCJN4CHS4r3dwh/sio8n7WofhXQp/P7jn+Nwd9I83B+yd44FMBn9gf6sM68BmBg/YEXCHEdSTWUspuE8Ge5QvjSpnMkd4nsrvLxMD4fSJdmsoLMdeSq/70fQIf/fiH7REvfYA98mWn7uHD55zxCrvLde9rG39/GFMeoz2JPJeUHvuHCMgeZQcWkfbEU2Kv07O3+i2t4S+hGwTbFOINwVVLFt1ikkF+/D6RKp/xD/lUqpOafO7s4PPzbc5n33ute9nPft+L7csudWoeCnzia37YnviaH7aPfPxDGIvYXO26in/6i9qPZrLPYkf6o8qv+Buzf8G/9fiH+fz+If1xXI4DEeTzcW2JPwX/o8P/lJjW4meMgxLWTEAl1SZGpayKGTQLCiY60F49DvVvz6BDcbEEH3xY0nU2k5eUYEuMn37Kiso63j8FEdEMpMqYG0cy3EumSI5y8Pfffuev252eflP7X3/9+v3HmK4TmxN27xv+sD3rB16GNx9GBoGTO85EpKoRlKoqIAJMBGEHAfeZmnP1lYCEwOlUyJZyjCX3YehDf/lhQ+h8zcbOumgRpOTe9wbaE1dDlzEvp+FACDKBcuIKcYOmCj3yIsLymf27eibLT+WsST9HHr+qT/FPhAJHjF1+j3/X8Zd8wZfbT3/PWXbXb32QnW9z8q81+JO//Z9237O+217/l7+ZGDDNlfVgCf8do04+mH19vz2Qqe7feNua/7j8NfzjZ0WQ31dLh2pelV+mD/zPhH+FRCc+FuWNz1r9lL/rnyerCs5HyiiNKPdq/Z++h8bAzJTy4t8ZUFKDFWZWU0m5L63Uwnx39hk2CJ+4qFJZUbJ/Qnrqzor79c8feZ896AV3OaUPH555r1fZra95R4uip2SGGqBkOMSeoD3D+AsFa5trQA194NRd1wGn9tA13RcZLj5fB169r2NcQi8oECET0WXssMBT8KPqN9vmh6QAl88xoOZ79Eea90jyeQKFwIrV0Nca/m/+Dd9jT7vzy+3rL3s1O9nr4+ecbc/8/cfZI3/1nvb+f/unKJl0+J/b8B968oUw403jz/6Esspv85eEf852t+FfTan6j6wrqivr7TN+BOwJ/1l/+gH7zwH+453ovv+nWUjewV94JTmOZAaysnKZ4LP7fSL7uQy1J7nO8nIwCcfiMgkz04Feu4XXzOylbzq1Dx8+9Lsea0+64y/apS76haGPYcgYwv7OjpniRekkfwgHct04E0x3AkjByvncPLIAp4eS2rfyXZEolx6/T8QwhonS1Kl+n8glL3IZ+8nbPMseeONT9FDge99p93/h7ezX3/FCd0At7SX8y8k+3pRe/r0N/yX+7BkLMia24d9OAv/ehu+X7H3xyc/E+0Tiu7C8xOlH9+A43qpmEwd3aHseTs5AkPEubIB6iPa0kJUMaOL3Qc6VB4CSrjKoYK4c/PdIWT3VlM395SeOUNZ0knWx7X0ikXE1IP/bf/k/dsZzb2vPfd3PnbKHD194n9+yG1zxFuZBV8bPKYSbn1SdFaBHOAfpuzTf3j4CsaYwUfs1Nl8+7Qf5FUT1iOZs7BcOmFiZ7gGaMnjv3wnOADMVYZM93oi5+t8PtHVeeZ/I9b7mZvasu/zaKXso8IX/62n2Qy+5k/3DB/+2x3+MpMaf0CGN1tr4A/z7PdPUvjtf2/Bf7k22SCY6DP/IlBGL2fX5IMl/5PtENpZWXa7tg0hVtg4WgpURm1nKu4pjJ6WO/NEMDCeSmb7y2zhlHLFyaL6k7SV95YVkh2v1fSJIoSIOyIpPSltbSFhb/DHvrZw7z7Xnvu7nTtnDh58fbz78GbvohS5mvueEmqjFQp0N5cdd8S+/l/YWvGxYm6OqEK0NjMdQh1efy1/5TrqnD+VEUPjc+jcDGLE7lBR6+ZZAnf1Hjm7af873iVzkghezH/mOx9vDv+tn7WIX/oK9fK673vOBd9sP/vKd7IX/6+n2qXM/heww49+GqLLgZ0/8+0ICTTeBf8u1Ff/W4x82y/jnDLpt0tiCsxjt8z/qfSIbUYQwHtzKq6TW4jSd1ZMCVqTKgzKxOvFEPjPvE9nHYZj9hvJJbi+/UPdmIeFvmeXlnvSy9Puufzh4+PBUvfnw5le9jZ11n9+yb/qKa8d8GBzCmIO9AXyxGcg/uQxEjBmbnFB/lHwmHFPYt7Bk/I5qksttdM4y0+fydyJMLAeCMa4wNR//4Z9ZvlHHnD2kcpaanztDcAj27Wy0cz/L+qMx0aJ+lPeJXO3y32LPvMuv2Y2udOuT9rs5p/36219k93/hbe2v3venosBD8R/xZwX/LGdRa8W/xh/2k10ulPl2x7/YYpgQSX5OI2kq5lezd/4am//494kcfBtvLuZZ6JYGsnBMCrpY0fQrtpnoyaFLKjrnNSZXyjkL1yzDzBozy9G4gXlIuWHFBfZzGOqX8ythg/odS7bCfA97nwiM7zVOtD37kx+3n371o+xBLzi1Dx8+6KaPsAucuGBbhjSuExNLOfjnpHtgAz20YDGJrD5r5XTfgjCq2QZno+rA6wusfi7Z1DAGALrc0t7CTMxns/6U6ufpF7ZqWX9ExkwbZD/nBRP2yA3Qbyz3K/i/wIkL2b2u/zB7wu3/h13mFD0U+IhX3MOe8fuPtU98yt8USN+9V0o8Zhn/Q+CX8N9a6ZD4s88RXuoPJAn9y1YZn8CU1vVLDv1zmAlErJoPCsjZzH/U+0Q29fzwwX8ikzekTmWl5JsoGyknBkw3l7jEgIXHA8sM+REUFj0pk9fvVgrn9z6dxQ2omQmeng/f7WKmOAZnSlj4XCdeCvANdhid+zsY52HvE5HDDSTfbNof/80b7U5Pv6n99jt/bed5rF1jDPve//ID9rx7/oZ97WWvTFlEtV8EF4nvzpLJDrTyif0XfeQFIk61cE05O3PIN7rH3dd9F755/D4Rzn4Oft/nfSJf80VXtp+/08vsNtc8NW8KfN1fvNru+4Lvtj/52z9MBNUUP3b4+0T4YI1x/KEsjrOyyDQE//CyffZBsK+WDDCn+EbGv4eMjP9hapNZ8G8Sf2xr/KHDJOybpG3HKm5hnVAVgXydM2abE6ewaj3OWsHMEuKTmMx5+H0iO14IVNmZ/L8jxlg2w7YJm3BsZHmp/UoHHzn7I/bjL3vgqX348O6vsLte7/62GRtl95yFiAE5Czj44/H7RFIWufWa2pwShnL0VrXJBggFsB5yFhn6lrnzoYeDzzebjd3hW+5lT77jL52ShwI/cvaH7Amv/mF74qt/2D569oe34r/obw3/pL1CJlv8q09i4Zw72qk3QYd/W8F/M/wG/yn+aRflmglAwzQLMUu+niYRBDH8Tomf4h+DifeBtE8QRwZCq6ewf/1Mjak1O743GG0o8zP8PpE9Lq1TQ96Q/iYcMrIGWr1Ln5VFYkHkEVP2M5WJ2DD7nXf+ut3p6TezPz5FDx/e64Y/ZM/6/pfa5S95hSb7SLZAakc+gA1hzloj+5izNieAIwvJdVq1YOgh+xqFREnVTTNlvnjNCP/tsEEOMKdnCWKqlIGz/jQjUZ4M8iwxteAH7FudMtxPFlWMLTuQRUZlNMcv+YIvt5/9vhfZ3a774FPyUOBb/u//tPuceWv7g794NTKqGNJ+7xMJAiF2zvhPGTLNjeGrDrTn8pHiD9yfDTA1ftXmpwT/5XxSykL6/Wn2Kb/8u+jUAXOpzfGxqd/nrzU4ETpMgiG/TwBgOm++T2Tni1aBMSLfQblAWIgzaGpOziSK4QAx+LmI3uB56K6Tf/7Ie+1BZ93VfvrVP37KHj58/r1eZd/9TXcMm4j91fwoOxh0kxXAG4hofvw+EfeV0F9nfj7Jx6ULGMC2uL/MNePHF8Hvuur32TPu8opT9lDg03/vMfZjL7+Hvf/f/knkH+V9IoNsbRx/hKBoBUSMQf0F/tl/ugi7dgn++X0iW/DP83f5ZlvwX424iv/oqJt/0l/SSl7M1xww43+jtV7vLNfhENt1BfQVqgKMsxABFd3qsvMKGHXERTPBQiyxTWe4keLiGYJgIZHakzMygdnHYcJ4XDZBrdodB/JnKG3t+/xNwAEwcS24KlCBBSaCcPyyN515Sh8+fMh3PtZ+5o6/aJe86KWRQXbmh2mCQQbDFQeyKJt4OM464Zr38ftEGAAWfXGf2kHCD5mqlG0W+Ze8yGXssbd9tj3wJqfmocC/eO877X4vuI392tte1C5mjH9csA3jcw3/MauY/hr+ybc4Zk8+Wbll1e2uQ/Hv8vUbcfUbq5XcGOFfs5Ae/6ITcQAr/t3FH+V2vI+9eJbEn5n8159EZ0B7HTFlI1ql0lNSOjmswF5Hridp9GJABcCDXI2YyNBGlmOrBhj3h3osLtb1aekvh18C1KUPxEbe+BVJyciuu3TcsCzm2MCSMSAClAWdwfh373+33eMXbnfKHj78L199fXvhfX7bbnilW3ChSnTB9fqoR6sC1A+mlhRKdka21WcW8H1qvDjEaZLIYgJOYhUrC0LVnxxcSmXa6oBT5Cf3xfhJNy6TF7S8qRylkeQXLl9KWk37wLaMPmV2Y9i3fe3N7Fl3/TX75iucmocCz/qjp9kP/tId7e8/+LdWUaZB4LD3iWzDP8efsqm9Bf9+yeK6UtbcenH84fgZsnL8JB9M8QeLOdp+tr9PZFN6T6czZED0WbCyNm8He86rXyhdbPDZ8T6RQ32FdZKYjAetYEo0Nw4wniYftFk5YDfRtjuxVkogtOaCnR384VPnnmPPfd2TT+nDhz95+5+3R373k+xiF/x8CyRz2SmSAyyoWByyAYZ6j7Azcq1pxSdlgWIGSAZgQEgdt8k6PhffJ3KRC17MHnLzJ9ojbvlz9vmn4KHA//eBd9t/ffEd7Kw/+nl6KFDxL3tTRhh1+xP+JeMP+5n4vDqg/xs+I/gZnBWS7SmD3fnKfCjW9dni3wr+V/o9BP+YAM0+xR90pPGnlFDHqviImdveJ7KJBkxlGUhdkI7+yaC2Etyoa9noTssqb66OaE9sMJlXN/ENSqWSgRwGGCnYzMxLdnGYoX1TlOhLFlMDBC+yBSRZFHvCbu8TCd+KlQTt//wf3nnw5sM3PX9/ltVc33HV29gL7vOb9k1XuE6SP83yVI1sT/ZjpSE2Hr9PBOEMjTLWlZBxaWHRZPgP2nMHc5pd/cu+xZ59t1+3G1/p1Lwp8Nfe+kK77wtuY3/5vj8V/wt+ShvVoj+3+0j7a9Z/bbzreR/8jy34Rxlyz4oEyQfhhXzpbUf8x9JK+J8d/pv4w/Ez51mfrveJbAQcxNbDqJxqS4duCDNOc86L7xPZ3WEQJPRLJIf+ughHes1nq6EXrNeHfXeWFYOvvU8E5mP5B20+fs7H7UmvfvSpffjwzi+wB930kXaBExdIvqC65dNT8LlwICwi7YmnxF4pIGjgJH8J3SDYphBvCK5sv/xksNXfuU1yQA4cUd7zYE96aX1+WuDPSZ2UVwwuNBL+PONjctPJn2Z2gfNd0O5zw4fZE0/7xVPzUOBH3mcP/5Uz7Om//xj75Kc+QeMEzvIi2S0MvD+wTN8KfsKuR8f/ZPybhoJ9n3PJmYQE/gl/6PBf4ydly0zEO/zb/viHTk/d+0Q2I24mQXQqoj0xEgVI//W8/T6Ro16a4VhkqcG6KdPKz06gvOeOlxlz40iGe1mwOookknAMEv+m//NGu9PTb3ZKHz58/j1fZV972SuL+oWEEXvygUaAgbKwoJqDPzVP9W4u3czGANV9OHRDf58r7xP52i+6sj3jLq84ZW8KfN2fv8rudeat7K1/94fB5JF953JLj/+cifhPxn+OP1IFPRT/Q/Av+3Lkqix/l4vjjyzUEhPX8W9eEjXAIEtf8x+XvzP+S/XIiq/z1GeRb0W+zWkbEKO5OvhsWO3E4MwhCN+0y8rOfeYjZUQjVuTjSUsPG8Erpsrjf2dASQ12n3JOWqlHkj+TfL4zzz/0NOnEyVqwcrleuiE9ZWa2ehF7MTt48+GP/8qpe/jwyy/9Vfacu7/C7na9+9lmsynmyPKDm83sQJ3+GofmUpbbdPYdcGoPXasDZ6CtA6/ep4wPI2Z3lmOiDHj//yF+WPAzMK+q7HQNs40Nu+O172NPudMv25dd6itP2t4fOftD9rjf+CF7/KsOHgosBFasZmHfbfhHDNkV/7CnmmUk/Nsq/jkz2ysWePvD8D9wH8ZPnyf57ZKe8M/Z7q74L/uHA5+jz759xg+Hz407YsxJhNTUsnu62AdUs5C8g+9solmZaQCoI9fS2qflfSK7XtQmB0L5zVlvmJWZMrWPhnhuJgeTcCwuk0hmyHPoyo3JuDT+YcN+509/3e789JvZH//NqXn48J43+CF75t1eape/5FeAHTPFGwC0fggHct04O093AkjB6vjcPLIAp4eS2rfyXZEoN/xnep/Il178y+3n7vhL9v3XPTVvCnzL/32j3fP5t7I/+ItXd+rbgn/XU79ADxl/jT8o1wxZBLwtx581/Lum4WMcAPfLyEr8Kfjv4o+Pa6r723b820ni/9P1PpGNA5TXsdKRN5BVjBmcG84NufY+ASvtZ2pPJikMBBnvsppTD9GeHKlkQBO/s3F3vYLPsPGpNo86vAmDDua7UBIpfS0/5QjwoXsilbWxBfv3CdC/KXU3M/un5c2HP/WqR9rZn/zYzvpYu+Lhw2+8o5o/shDVqAdtHOEcsXA0zbe3j0CsKUzUfo3Nl0/7QX4FUT3iORv7oV7WHNEmX0/wCf/B0c2cgk3xtZAbpgfl5feJfNfVvs+eebdftSt+ydVO2q5nf/Jj9vO/+5P2sJedYR/46D/JWEh9W/B/ePzA/dXno+S9d/whUhq/a/zRNGa3y4O7B/2K/xTz9sF/EZZiceHxh+Ff92RFvPhvijEZs4MJgh28D4TXr5rKocyTa6aZ6fBguA6njhR6kPZxgtFU8bz0fHrfJ3L4tf19IvzMAw185PFTe3a4JfBwbbdoN+1J9exYSym8t5JPYsCuBx+//H+fZXd55nfa//eet+2hlf660PkvbD/ynY+xn7nj8+zSF/lCkgttccAY/l93dN4HsNKch29cX3Y6NKw6wOfS+0QuddEvssfd7jn24Jv+xCl5KPDP//Eddt8X3NZ+7W0vkvHrszkd/tXnWWVr+M+llHlI/Mn4j+ww49+GqLLgJ9nn0IszZcogV8y/H/6txz9iXsb//9/et8d9W015f/evI8pZyCnnU15nM8MwzIwzU0Yh0YkKSeVNGJQwjFORQjqfkApDlBmaMWnmfVVmUAxeZTII5VCNnjxPz37/uH9rre937X397t91P3d54r58dD/3776uvfZea33X/q619/XbnEF3H+nYQvHfXbMr/bYsFk14RuGttEwGYqYKllhJCO96Zt26omiW1FqcprO6U4AVk+S78abpbI2Fey9iNOzTspBgcaN3ftfEWCUdpP4n9mv3Wr+4r5LR0M/MHrJi2omEv2WW+TrpRdrN/V9w6B/+4lLscexzcdQ/HbpsLx+e9PKz8ecPeoYzLQ/0qZwkPzk4UMbkto7uR8mnxsQk7E9Ycvw7qkmc0Sads8z0ufydCBPLCcHRLzd13glYB+SDGpbsUctZ9vPP7vd0HLXrZ/CYez1hne13/do1OPG8D2Dfj+6A//7FpTKpL+U8EV0LWBr+jZTOF38G8O/y0/rCOEaJjP9e/AkiqVvvo8w3P/45FlvZKcfUzmq2j6/N3vlrbMafJzLxtMpYHwJYfCNThJJakxzGJq5pbNZaJ3/TLM9o+hXbTDRk0yUVnbOP5Uo5l6ML35gZ5zpdxHwj3VJOVOO+JlPi/EqyKf2OpaHa7LqcJ9Kms6HRtWvX4th/OQx7HPvcG+jlQ0SwdzUFGwt/00Dqn7NaeUKnG/07nqCfs4/y51Kfdjm9LE8Mm/QZtiMAsJsMPg83E/PZNGElA+bhb7bJ5njdM96FN22zXC8FXoJXffQFOPnfjsBarO05kPfVp/vF8M9qF/yHhtTdSQ5lYO0kExMSt9Hcl+JPwG/GuRmLXU6I1Hat/Ogt/yviaXRelspK6TxreqfJgzKJMFMQsZn4T9nMvOeJTHyvODXMOxsctMx+an+mCntXLyWF4dvsQ3cQ8Pew6KDydwe18ilgTtk3sz3TkzL52B8+78X8XhZ8LUAjShAVGhSJVAdTdUbCwKD+T28cckarq67LeSIZYFbLrbXiWz/6OnY+8pnL/vLhI7d6bAQXie/Fdae6TUxXMmWdIHxXC9eUoc97RlhB95iNzXfDN28K54k84h5/gqN3OxN/+eBt1tlOtVZ8+msn42UnPAffu/yihP+Ff485T4S/x8x0LPinoO86EX/v2L+JP3yP4n/seSIjFCXxp4d/jj8I9Xnwb5YBpnpm38j4t5CR8V+gOqkN/iHxBzPjD20mYd8kbddap++BhOWN6uuM1WFBFXxDO4Pxj3Z2UzvEYH5354mMuTgDE+BQwBO+lUmwfkS/02RYuESQHu5dNYAVWV56frCB4hM/WQmllOnLhwfhUxd+FMtx2cuH+z71QGy80Sbaf1mTyruaaAScCYP8UZLQ+DZT2bhr/2mCk7h/+lvKApkRCgb0lhvjPJGNN9wEr/iLN+Bdz1uelwIB4MyvfxwfPOdtWH39dSRfVNLFP1FBvbcmu+bGpi16Fi07hlya6jtVmzL+G/0N4T+kLykLiS7W2fjX1KFZv+rhHwP473S/g/8U/zoal8cTgPj7EHtrUNbkxKek6TRZvDMBKukvs6AOIzBj8EO8+MJ1uvyZGlNrdnyvZySuzHU7T2TMxfpodEL94f+xTkjVwUig5QgzgO18s/57StsYv5NFOrtRC2bz+SaHSK3IBgv//8utn41tH7HDeGUNXKUUbP+YXXDc7mfi/nfeOqd2Kn9aGuCs1bMP9zdOxiNoRxaS14nUgq6H7GsUEsXXoZmyjo1sYP7bwwY5QK3G0tXJNAMn/50a8L5bPAhH7vJp/PUynRRo1zMf+nw84X5Pl0l1EP/mvwTyZpcRhRjFv2YEIBkz8W8ZDdJnSYGKf9ZpEQBL+XuEGkfhvyadJPlezm0C8Pp9nsjEtFbJmX0SHFAmb+/9/ThPZP7LgpfzHJ6lCwHc0uLcPs0CpcRd4QPZAOk8gZxmp5SGs7ilnCci+isFj73vk/Dm5xyCyWSC5b62uv298ZGXfBI7P34vTIzLIEpKbp2kAF5ADO/5wzlPpKBgxz95BY7Y6bRlOSkwX5Myweue+a7BRXjB/1SBEdjbDEQy8AH8c/zh9xJ6LsyM+IY4T2Tey/FfxuGfy5a81hWVjRn45/GbfNJxi/9WgYP494a0AiTdT/Fn+mWK+TyBKQOetsw+LVyBWJ7MgE29M2K7zoA2Q7YA4yyk6QApgmvdZKG2/0Y6eJ6pVcA5z9UQGNFP4cGlv7fliGAK7g1wdmbKgrGQG/c8EQB46N0fjbc/70PYcIONRulozOUvH+56Ou562628h64bEMMVBwLVmhNpSQze9SdlCtNtGDW5P+nPdKMZQK7Jt77CrK+ke8nHzSYUyzLztvFteZu74wMvOhW7PWF5TgoctMsGG+HAvzoMD7nLIyUL6eE/M3DHv48tGiDzSZ2A3c/a5CxkaCJpM8GwjeEPGMa/j8rVPz+hdHzXcfgvFEBm4x8eB9bX80QmvIWztyjtYBXV5VmVAF1vgueJjLxcO3luY/l2n+y9hk7U0zYiNvLCr0hKRiZ57NDNZF6gqT2pZCo8T+jmNA+489Z47w7HYNONNh2voCVcD77rw3DCHvryoS9uqgLCCNPPObg12RmxeH1n4aZ3nshfPfyFOGrXzyzLS4HzXJtstCne+tdH4r5bPFgnDsqVQ0laMmx2JGb8Tz9bcNewsSxKlxY/anwTn/TPmcsi+Of4M3ZTjVqvxX/0TXPIjP8YPsVP1VSaZDT+eF+orGjP3tDniUxEmHc4sTNmD6KODrjT7gjpEH3GqWqbtwd7zrOfK12MuBzniczhLJ6maqmjUTfVK/MEHYYm9VlbRmBoiDUFGGNoFVHCaTsaz/Z2rDWLYjTnlgJsdbv74H0vOhG32HTzcQpax8tfPtxh4eXDyBh4csgG+P0/T+R2m2+Bd25/DPZ9yvKcFDjmusUmm+Ed2x2Nu9/mXg3+ywz8BwYG8I8+/ssc+M/xR8rn7uvwv/EE4d0QnkkeNCImKB0oDf5Vfht/uAHJwGiEVR044X+gY4vgP9JaGn2KP9GQxp/8suEkDDoNLp5Oc0CHsLLQUQRKobIMpDzt8zilbjwQ3KhpeeM4Tau8uDrI/Jm9S3liXoehMRH7F8D7zYVAZJlHgMRSVGugX7K48c8TudOt7orDdj4Zt77FbUfp5p+/ffaynXz4R/d5Qrx8WEh/dEWJL2xREH5Q9GZlxIV9HmoLC44FyT/028xY74OEScQrf2f8IPfFuluBJz3g6ThmtzPx6Hstz0mBJ573AZz73X8Y9dytbn4bvPN5x+GOt7oLjZ0Csn2Q8G/TDOuQlcL4rwn/6OBfymSpfMCBkvFfBuKPbuIB+dL8elH8V308OVAv/jBJqSmAxERK7c2Bf59aCf+1h/9O/OH4qXYbPk9kghrCYjdA9d+FvZlMIhwCDq/VBZh632sFa7dYW7/b80Tmdximpcrew878clw4UmZl+iWSRf85HXuk11TLJL0EXpfnPJHb3OIOOHznU7DFLcdtB/3q98/FG0/fG8d8+f3L+/Lhcw/Hgdsegs022Zz8h9hrOFBMIt0dT4m9Vsve1t/zRG6xyeZ4/bPfjQO3ff/yvBR45SXY++QX4MTzDsfbPvNqXPiD80Y9f/vN74h3bX8cbn3z2wt7F8zxJDL9Xco73GDCPxL+I/5Q/JCafG6MJhHXOdDgByEn+p8C/8grx8JB/LN8iVncFgX+Gv7Qw38bP7myW6W9Bv9o8a/m4/jTkn2LPxNLmXqTSOkwAku1qg/QWiVBtCuil1FEA/bP3/F5IuNdhi3MSWb0n356bShdst2RslRvkzKtdm+9AqllzB1HQtzLgmsFNt/0VvjATifhrre9xyhNfPOHX8NrT90T169dA9SKb//4G9j5yGfijPNPGl1P7l1Pfci2OOllZ+NR93pco3sPMKGsmFBhmZ485f/SBXXOCtUArfsw9EN/y3meyCO2ehyO3e1zePIyvRT49187BXuesC2+c/k3gQKsWbsaB31qL1z8o38f1daWt7k73rn9Mdhs01tKcQMckAj/HgeQ8Y9h/Htw/R2eJzK/cl06B27XieG3wX/4oFTwatwfOhnGv8tAW/rO+rihzhOZ+MTWVVzVJ6xDNnG40aM7vc5nw0p/XD75iQOfWVvL6vKWMqIRA/L754nMe8Wb0qRUyczaVFLuownV27PWatJg5TZu2PNEbrbxzfC+F5+A+9zxAXPrAgC+d/m3sN8pu+Da3/5G+nvdmuvwns8fiH1P3nnZTj58344nYp+nvAkbbbAxaQ8IZtb6Vcp5VX9cyjKb1n4DnNqHrtWBM9CGgdfeZ6xuow02wV5/8Qa85/nH4Q4js8De9fOrf4rXfmI3HPbFt+C6NatE/qo11+JvTt8d3//Zf45q8553uD/e/tyjcLONbj5tbxj/eS0g7IVB/Ku9BuKPabBkjNvn8+I/7DlgrkWu4fNEDNNOu5N8f34x/Je4T0t8ffnd7if8c7abM6Ohq1k/nAqa2ETAWz8iCyAr85pICUAhHuunT9aesULdfiXO0GYhN855IvNexo74PAFVAM3iZjj/QJXGgaTkf1VtlkteoZcqco3lWRYUfebx2+0hf+MNN8a7dzgaW9/14XPrAQAuu/JS7HPSzrhm1VUejPNXRnz1knPxog8+BV+86LOj2u5dpRQ87492xfF7nIkH3PkhDig3PDmQ6caYYLozgOSsjvfNx3qg0UNJ7b1ywK2a7aPcMPY8kfvd6SE4ere/x3aP3qW7JXjs9U/f/hxeeuyzcIGXqtTLagX+57dX47Wf2A3//csfjGr7gVs+FG/e9ghsvMFG5KelwT9m4D+rhSuSw/ifyhlgxgH3fvyJcs3s80TmvkoQERkv5sO/6K308N+rCk1vFvxjUfxjAP+6s3PIZ0OXRfpfFs5E9ylYBEBYmbM08z7qnM1hNQljR8o1TKUgNnGYIW/c80Tmvqr96JwnQh2Ikq4yKGeubHyqzTd75nn0zlSX7zyRDSYb4G+3PwKP9vLQfNdPf/1j7H3ijvjF/1zh3eAtxLwOdvWqq/CmZT758MjdzsAuj38lJrSOo1s4C+mbyouqclEg71JpNjn4M8t/nsikTPDix+6FI3b6xLK8FHj1ql/jbZ/ZD2/9zH64ZtVVKox8zYb/y99ciQM+vgt+dtVPRsl5xD3+BG949vswwQZeDs74xwz8MzlK6puB/8XjR9zf+jyvAcyKP2MuwaKT2k5G0sG/xM/aw3+KeWPw33Q02aLh8aHfMeeJTEjf0RloHVcYvUY1KIPuBE6qY66v54nMe80+T6T4zKH5kj4v6StPJOB3HrSBOvQ8O9xUPtd2G+2mNak3bvMu/NkDnzJKB7/8nyux94kvwk9//ROZMG0ElTtAf/zixWfiRR96Kr76/XNHyetdG042xO5PfDU+tMvpuNtt7wnzQauZ+9qClQ3DQqSLlnBY7RmIOrz63PKeJ3LX226Fw1+88FLghsvwUuAFl56HlxzzLJzz7c85buc5T+Rn1/wEB3xiV/zqN78YJe+x9/kL7P/0tw/gn+zPgVz0t36eJzLv1TD1kfi3iSQykZveeSITmgei5laTcmoIrEg3l2AUvJWWyUCQtGCJks52anBap4+OaC1uaecJ+E2yMDeHw1CxNspKnfMEak2zd/xDGGtKZ/NOIWmgGIsN9tuks4Pya+oIsP8zDsYzHvbcuccOANesugqvOnEnXHblJeYU1H/6llmzU1X5P7/6p9jn5J1wyFlvxqrVq0bJ7l0PvuvDcPweZ2LbR74QAaibxnki2zz8hTh6t8/gQXd52Drr4brVq/CBf3wrDjh1V1xxzU9b+UbtJQuB66dW4L9/eSle+4ndcM11V4+S/eQHb4O9/vxN6n7I+qOx9/CfMyOgjx8qL64L/o2Uzoo/812UbWb8010eyBv8R/yQ+JmCeIRc3XrflLPnwL/YwrM9jamd1WwfX87eJyGkZWgiHDpX8xZfD/JUJ2PAFP+wRNPdduNBi+1a6+RvmuXZcR3PExnhMA3jlHFS5zlFLDPaAzSIJT3HrJ4SxZROcvpsevLglpjXK/7yAGz/RzuPGvmq316LV5+yK757+cVd+Zr1Fd9myMHTrtO+egJ2PvKZ+NaPvr4kK/C16UY3w/7PeCve+8LjcPvNtiATleQ/9DmrlQFNNzo5gH7OPsqfN2tqFBz4ut1mW+Bdzz8W+z1t+U4K3OO4bfCpC0+ifkc+K/IFGO15It//2bfxhjP2GH2s8TaP2BG7/ul+ypa93Rb/Wd/GvMs8+Ge1C/5Dqro7yaEMrJ1kYkKa9yoCv4T/RjppJccfy3yL2i6pqdGtxIWU9QX+tT+iP/JvroZInCci1pqv2FeZQDrsadS0T/l7hGINgNZF+Hmv6xFocw2Utj3KNRVuNdEwfJt95B0NxkaaHQNY7DyR+S5l8qoTd/5K7JtSVFLnNHiVuHd6U7APK6RQihqk2slLMBIGRnX9+ZoA2WbHx+2BXZ6w19xjBoDVa36LAz6+J75+2QVNaTED0bJU2dLa2TjxwysvwR7HPBfHfPn9WLN2GV4+vPcTcNLLzsaTHvj0qC27bhPTlUxZJwjf1cI1ZejznhFWoMGP+274pvnaEx/wdBy/++fxmGV6KfCErxyOvU58Hn74y0uV8NXg6ibf9ZFLe2mCv+i/v4aDPvVKrL7+t6P6s8Mf74ntH7Wbj30Y/wv/Xr/PE5nvMl9n/NeMf2hWVki++ChKF/9FG6CCw/pxnshElQEBQ5OFNLOz5iTRQJqxOiyogm/IhivyI/8ts4QIZks/T2Sey+d7q4FwH8mY8X1XNNbcTg84FPCEb2US3GkzChPF+5gXw7Z91A7Y56lvGDXm69dejwPP2Af/9/v/AgxqzOqUnSyE7ZeY2fX1ehz9z+/Dnsdut6wvHx607aHYbJNbdnf8cRbC//Xu+1wc32YqG3e97qUWqer+8rdbbLwZ3rjNIXjzcw5blpcCL7vyEux14vNx/FcOw9p6feg4Abj3BZ7DV+D/wh98BW8/c39cv/b6Uf3a44kH4Bn/a/sG/5oFmTQ0+CcqqPdWXWvs82kqT8mOIZc2/Sw6oBk9U7zxV5dMdvGvPhldrLPxr6lDWv/o4x8J/6LWTgDx+Nn4T9N7vybORCgfk6xeaHOkarFryPLIhZuKd4ayGe4vs6AOIzBj8EO8kMN1uvyZGlNrdrXp/9LcpfI0LvVIKkd1FZB029OJG7eC/8c6qWyPGvK4HGEGsJpzKcBfPPiZeP2z3z56rO/4zOtwzrfOCt9I5vNNDpFakQ1qY9tecdtOPjz9qyeOYoBD11Mesg1OfNlZeORWj/XSAGetnn2QTUJ/AfDIQpZ+nsgjt3osjtv983jyg/9qncdVa8WnLjwZux+3Db5z+Te857UaS6euIWfgXKrQjER58sJ//+U7X8AhX3jTaHvs85SD8Wf3e5q4v/hm40BT/yWQN7uMKMQo/rUiQIqajX/LaJA+G/0u52IAAHRbSURBVOt6ZGc0+KdJnTrAWB2F/5p00ok/AT+OPzfseSITecprkVNd9KIr7+Th0gk5s0+CA9GZGel6cZ7IiIvfB4BnO7oQVWYowIKXE0Vm6YUAjmi728D00ah1M5dm+QV/ct8n4q3bvX/0mR7v/8Lb8Nl//8Sg/ZqaqFMbzQDFa3kyofLadWuuwyFnHYR9Tt4JP1/Glw/3feqB2HgDOvmQFj1vyPNENt5wE7zqyW/Ce3c4AVvc8s7rPJ6fX305XnPqrjjsH9+C61avglme17qS+iU7lv5X8v9kQE5ivnDRGfjwP/3dqH4unCXybjz6Xo+fD/+En/XnPJE5L44/QlCS/8tgIp45/ss4/FcKIL/r80QmPiIBE82iXJqqEIAxO74pnycy7+XDJ114tuHG7H2ffxjKmZR1RfRTeHDp7205IpiCewMg8isedo9H450vOHL0mR4fOedQfOzfjp46e9+CsiRA8oOtkH/YFkMiCskcQCm44NKvYMcPPXXZXj5cOPnws3jAlv8rOVCUTSRoUaeY4Y45T+R+d9oaR+/2GWz36J3breNLuM751uew2zHPwoU/OE8Cnfu42YRiWWbe8QUslIEnA/bwf/oFx+GEr3xgVH833GAjHPRXH8CD7/JI8e8m66csmRk47+LrrQOWQn2ErUNAJ/OUhQxNJG0MGGEvjj+u/iH8k29xzLb+mew58F8ogMzGf1RDbqjzRCY5pc2LSs3eZBqMd4hSSl4UmvbKcTZoJAa01RFTNqJZajCLWrk9HmycJ9DupFnaVdIvWS8aYMwf2m1xrp3sW1RW8PsSK5KJetpGTK688Avc/84PwaEvOm70mR4f/z/H4uh/ft9Uh0s7TySNtAviypEOAfZrVl2FA894FQ4841XL9/Lhrqdjl8fvjUnxQzhNqAS3pl5PttV3FtrzRAoKdnrcXvjQLqfjHrdfnpcC3/L3++Itf78vrrn211APzA7IJcNURajU/+mjQkgWwf+J/3o4PnnhiaP6vslGm+Jtf30k7nPHBzd+zrmydzKVDJsdiRn/088Wgm8EA1mULhjIKtQRh85zWexy7kCTs5TTZ+Cf2wg+qviPvmkOmfEfw+d1GNFUmmQ0/nhfqKxozy52nsgkbGIdYzhFah/K0hRQhHmHEztj9iDqoFmAt9iSIcWg9Bmnqm3ePoU2z7iV2hqRparDzDpPJJyGa7jNjgsLtkATUGNiMd23E3QYmtRnbRmBwULQPHznk7DZyDM9zvz303HI5w/28bY7VhY/T4ToDZACXFNC6VBDe+qLF30WL/rQU/F/l+nlw5c+cT98eNczcLfbbCVKE+8Rdibdb3yyEFTverut8MGdT8dL/my/ZXkp8PxLzsWuRz0T53zrcxJgop6dAo2jrz1PhAOM/bSsUPFfxID23wLgiC/9Lb5w0adGjeEWm2yGv9vuaNztdvfs4r/MwH+zHuKDiczxhjpPZN4rwp9OGujgvyb8h/SwX8Z/2CwyTo4/3IBkYDTCqg7sGVov/oTQeLaH/xgAnQcC+SO9FWmGKdRJUg47pKVPUX/T56VKUKOnnkrRFsMb+zyROV2GdJwW6NLkJF8RPrWW1HZrFZCHwU1UAU8kmZV5ajxtgPty51vfFR/c9WOjz/T4p2+djbd9+jWhP+/M/OeJ8PoQWUrHDmiQEJIAl1+x8PLhfifvhPee9eZp7X/drgfd5aE4bo8zse0jd5Q6j8OMMjjpEzPiwj4PbPvIF+LYl3wWD7rLQ9e5f9etXoX3/8PBeM2pu8VLgVB/9iAC7r8GR5sHZsAnERK2hXJYa++9Z/0NvvLdfxw1nlvd/LZ41/bH4063ukuD/7oI/jn+NAOoiv+a8I8O/qVMxvozu/P63BzXGPyXRfFf+XHBv7WX4w+ZP26tfD9n0/x8STGD9OC3B/5rD/9T+RNzzmxE+13SKzOcKcGc1MtUN83zROa/wsyFTCSxlkt2NRyJ5QvjSpnMup4ncvvN74AP7vLR0Wd6/N//dy7ecNorsbauFX2POU+EY4D9jmS/wHdxtinApdIS6+P0ZX/58C147wuPx+02u4P4/JjzRG6/2R3x7hcci1c/7S3L81Lgj7+Blx77V/jkBSeJzObfYMxAHJADRw9/9gx/KT2fwVFm4P/6uhZv+8x+9AWN81233/yO+Lvtj8Vtbn57wX9p5FcNnL34Y1cn/jD+I/6Q/3Fc6cysY+PCUvHflqnUroP4p7+o/ahPHPhr+IM/z3GxiZ8MvyrtNfif3jmxlCnWOpQJtDuuKEsz1onanUTk+1Z4m1oxp+CUTWuyObDckOeJjL/SeSLs9zGohXGg1Z+W7iIbNaCETai9bqmHMxxg801uhcN3PgV3u91Wo0bzjcsuxGs+tjtWr1ndyujon9dAgDnPE0gJJZcXvP0OE4odNwvvP+x57HY45p/ft6wvH/75A59BQA0QRxaO7P144gOfjhP2+Dz+6N5PWOd+rFm7BsefexheccL2uOzKS1I5ZchJLevzKIAoXhQPHl38UJnVfc18dRH8r6lLO0vkLre5B965/THYfJNbZvh6/JkaPORaHMj9B4bx78F13c4TmefK6h/Gf0nxk8bKekDCv+Gnwb9FuN/9eSITIyYVw4rj1N6ZgHRkSPH0Warf+0TixKgOdp7/3TJVk09+4sDngFSbNiXAzXX1zxOJbJjHG7/nCVVqsJKZtQFU7kspdiH5N9vo5jhs5xNxnzuNPdPj29jnpJ1x7eprgSEfoK2vzERYH71eqzHVjpF08o6bGY9P/7hm7Roc8+X3L+vLh2957gdw4DYLJx9KibbtPm6x8WY4cNtD8Za//sDyvRR4wvY47tzDcH29HjljGyrb8n2a8UWPyUxiPwawWW8xHDB+Vq2+Fn9zxu64ZAlnifztc4/CphveXIlE7i/ojzRuiz+iloR/tddA/DG1lBxjxtvPd/KJWUrCPwbxX2fh3+Ik1YYVb7/780QmMTHR8hNlBDYYT61KvHfA+uKtH5EFkJV5TcTiYfyqd6dZT/aI6/YrcYY2Cxl5nsji3uJ7o332txYK91cdKWdlzgwbBRCLN8P5B6o0DiQbb7Ax3rvj0XjI3R4+/1iwcKbHK4/fEddcd7WzvBxM3LG4TCKZIVuuV25MxqX+8/c2uf4yGeH1CVLrt370dez8kWfh9POX8+XDs/GorR7rtjEmaHIfdc/H4sQ9z8KTt16mlwIvOBkvOebZ+M+ffJMYcixc9nXJmDB7TLUo2NCvsDHdRukiU5RY9+QSS01yrd1rVl2NA07bDf/9ix+MGvcDt3woDn7OEdhwslFy/9LgHzPwn9VC6puBf9NTf4Je2o7r4s/K6wUD+EfCf+nhH/Phv4k/kRrE7038sX5VweRi+McA/idRBaHhUTrLpYSoSbYzJXhmsro5TYM+85LzWuecBSGez47UW+ijHvhCkm/dlYxASwHyLsVM3qtXZLzT2Zxa8O6RIzUZEOmajSsDANmqE0iz8TcoE7zjBUfgMff+07nHAQA//fVPsNdx0zM9amQC7kiZ0cmaSI+1hQX75wnQ72x/d5/YpZLLWaJJGv5v16zCez9/EPY9ZflePjx0xxOx71MPwsYbbOwyN9lwE+zzlANxyAtPXJ6XAq+6HPt/fBe87x/ejOtWX0c6WXDgMeeJmHJkl0yz9RNg5tuBD+zdgdi6mVMwwt/0D7/6nyvxmk/sip9fPU73C2eJHIpSNnD2K7w8k8QO/qP7NKZF8b94/Bh/zRN/op9hmRR/KI3xaJUysIx/iZ+c2dhEmmOexWKWmfyHJxIdZrLFVH3Nq8n5XQYGMzcsLlqkAfiaiD9DgUUaUKbUU1ykb20dNGdKYcjx54nMcw2dJ1LyR9UxLH+8Ic4TOeiv34snPvCpc48BWDjTY6/jX4if/Pq/SS1l6hyWcbbypSbe3bFiDFoeId8rKi+Vs5yZVf5QNMQswyeS8y85Dy/68FPxj8v08uF2j9kZx+1+Ju5/p61x/y3/F4596Wex3WOW56XAL118JnY+6hm44NLzNFO1q0YGoou6ZVi+Y818uu9BurMOEgj8M8qAeG1TbRFf/Pezq36M15y6y+izRB5337/E/k/7W/DoFf9k/078sf7ruzk9/CtmWGWMf9/BPOKqKX5l+Q3+UUSVDX5G4t8AEJnIjX+eyETIOTsXzV91+jBv941mwt6VvCBvzdT6H91cglHEz8Q4yWC+uOYKQe6pG9IVRSxZ11LGfX2zvGjksxOnk/3v8/dHqFgbi31LP0/kgGe/Bc98+PgzPfY+4UX4ryu+36azg/JpzOmzmEj4K/U5nyS9SLs5HV/8PBFu1XU+lX/1qqtx0HK/fLjbGThy12V6KfDaX+PNn9oHB396H1yz6qpgqwhfzMGR/106n8vfiTBVYrNht6gKuKl5+w//zPJBDUv2uODBP/zFpXjdaUs5S2Rb7PUXb2zdD4xptTl6+E+ZkQ+5+TdvMgj8d985m+OaL/4M4N/l37TPE5lkIVyXLkhK5WhbdcGlITMlCYfO1bzF0IM8MSkGTPEPSzTdbTcetJqo1jptwmDGNt5hkJiQGSfXWVu9FA+a+eKsT9eTurfjFU8+AM//413n7zwWzvTY96Rd8Z2fXDwdN7EHyab0O5aGZlnOLnVrZPGWoqzSuI/I13dti9fqax1Y2CMDsj988eIz8aIPP23ZXj5cjpcCv3rJudj5qGfgnG9/DuyjNGCtT9vYUGYENf2cCdPCow6AaHLG80vFv/31ez/9Nt54+p6jzxLZ9hEvwq6P37fx81n4TwN25l3mwT+rvYQfhj8u5Qq+nhPnmgNFij9MkgT/XSstEn+K2q6Vr7oFe1zK+mSpLFcBSO+T2CYWA7EylDU5fJ4A1c2ow55GmVPKvevreSKLX3VQPgVM40/E9pqszBln6MSdvxL7phSVCxM7Pm4PvOSJe8/db2DhTI/XfGwP/Mdl5wdTdUYSE5/pxOxgmyZ6zug76koAI3QSPZbNDcSUc7nLn5/qxUs4HTR6RiPdX2j851ddjv1O2Qnv/fxBy/Ly4VKv61avwvu+8Gbs/7FdccXVP03ZK+mEhuA2Id9kX+OMz20gww/byWIus2/L9NzGGMS/ye/jH0IkL/rRhXjzp/cefZbIC//4ZdjuUbuGiWfif0oaEv49hFTWYfSf15A0C6kcN0cRSo0/bA/Ff7M5hOIPb6xBoTYpi+SszDMNeT8kJsd456SNPwj1eRxuyvhTPbNvZPwb5hZKWKSMmDGgHe/U+lhprkx9vM1CSvu8zLUxY9kP7Tniwwq+IaefSrny39allD10nojWnvX7/ImE0z9UJ2zMWecJbPuoHfDqZ7xpVJ/Xrl2LN52+D/7te1+mQKVXFCaK97FZDJ+ltxqOHVleen6wgUKsw63U3Uyh/Y273U99vik444KTsPNHluflw7HXt3/8Dex29LPxyQtOjjVA/k/SSVX3T39LWaC8k8MY0FvyrizQf4fIgOI/ZZEzr4VRXnDpuXjHma/xF1LnvfZ80mvx9K236+JfsyCThgb/4aYt/plD9/m0TdDz93kW/hv9DeGftNeQyQ7+tTTBE6duopB8K5vPKyZJnwn/GMA/d39iziRf+qVVDZ/ZQhnECGh7L3fDn6/eABlz/TpPZMwV/dfaZP7qD2MAlgE2dVZiSPJmuRm3UUDFk7d+Ft6wzbiv1waAv/371+IfLzozbJIZCbQcYQbwnXdUSurpLC/GGvvqvSPScR84C6R0ImchvXUYsb9/WILB14rLrrgELzt2Oxy9TC8fLnatWbsGx375/Xj5cdvhsisvCX+RrFcdwPWQhti8LwS2Qyf7hiZrvubUwwY5QOBfTEXsftx5Il/+ztk45OxxJAcA9n3qW/Bn939ag3/xzcaB4BkVBvDPIUbxrxnB2Cugmc8TiX4E/lmnpcE/GvzTpE5OwVhtdIKIR/w/tiVa9/P4E/BjA8w+T2TCtW7/muCoaDQP9d4uZyPI4z2b8E4eLp2QM/skOGBTlr8854mMdZwoLVhttkoUSP2gwFjImReYQgEHlqiFqgIee78n4W3PO2z0mR6HnPVW/P2Fp7IBg70Uz3eoVJ4NkM4TIGfy9nyMlIVQBjFkv477qP5KzwH754l4oDEWaQyqAGvq9Tj2X+zlw0tG23ve67IrL8HLj9sOx31l4aXAdTlPxO7NCijkayUxcNcj3dtRoGS6in8M4F8zQ95AkQ1oj5/9zdOXdpbIMxbOEpkb/4Sf5TpPZN5r+DyRnIG08oPhuwPEOLL/y2CU2JsBdSHe8o9OfBP5jP+lnScyMbbIztzW68zxYwaUkVCtPGbH6SzKpSljhskxnYF7A1MGPG2bfVq4Qg2WKgy4qXdGbFcCI/P4fJcQYGLJaqG2/4WGT7rwbMON2X6f/8Pv8Ri8Z8ePYKORZ3ocec6hOOUrHxFQaf3cdOXeCIj86kobOs9DwRlg4lowBiyY3AfigOSouWY/6zwRSU6ryv/2j7+OnT/yDJz+1RO67H2pV60VZ5x/InY96lkLLwUmBu/6ozKFU0BzCoJ7JNecJadyFmUgjU2g8i3D0Hur2z7jn5J7ClaRGcoLh2TAjP/Tzz8OJ5y3tLNEtt7yEQ3+Jeu3v2kq69USXsuhPwT+oXUCcb8Rdm8zwbCN9R8Yxr+PytV/0zpPZAKEQ3Mwlh0BNU0cNDNlh86LSs3eZBqMd4hSyrwozXujxUjyawzO64gpG9EsVXdJjbpK76PQhetD0jA2MvlZ4xD6Dg4K8MC7PATv3+n40V/W9/F/OxZHnXNo2vsNnain8mNyzZsi4l8a5E13abthM5n3zxOIWFebCb1dy8ryVR43XglMxs74i/aAgt+uuQ6Hnn0w9jtl52V5+fDnV12OV390Zxz6hYNx3Zrr2uyMbKvvLLTniUTJDtn9xVGceUInj6w/2bjUlGmyA1aRn9w3+j99VOv7w/g/6bzD8akLTxql00022hRve+5HcJ8tHiT4F5IG8uokP39zdVJffOrcLYLBUohFo/8S8WUx/FeqTjSL2gW6tCCj12E18Uf6pjlkxn8Mn9dhRFNpkoliwSTaiLQnWAmlO8JKFly/PU8gFBZuf1M4T2S+q6kjug34xcloXzUfTMeIR8ke5Y618PBWt783jtjllNFnenz2a6fh3Wce5E6lOy4s8JL6zGwFxM5ibBxgLAWuU/t11Vfj2d6OtaYEUofchzkn7eIT/yld8cHOmHJO5aPiq5d8BS/+8NPW6eXDL178Wex05NNx/qXnUcBd2nkiwgDJABx4BJOdrMMyQNeDYAY+OdSOA7b4jzY4wNjP2sV/EQPaf4/40tuWeJbIMbjbbe45iP8yA/+8ZiAKgfqvR0IivPNf7SQevs46iwnCuyE8UycNAlCLn8JZIfeEClaJVA3FH26AMzDegVfVgRP+6UjbCPS69UwcPFUuNCBNBVF9tUbXQlk082WHNHB7JEvPi3xHaAQL3mI45jyR+d2Fgnx6lheZXX+Z+TN7BzsZGX36Y8tb3xUf2u2juM3IMz3OufgsvOWT+4cu3FeUlXlqbPbvlizarJMU0BAC0VXaVPC7Ok/EB5XJQq24atWvcdAn98GBZ+w96uXDq679NQ785Kvw5k/ug6tXXUVlgvAD8TSfoSMDDJ+H2sJQUyQOILxPM0D72SVMIl75O+MHuS/W3ToTPh38R8DS75cA3nv2Us4SuQ3e+bzjsMUtt+zivy6Cf44/zQAk/kSgHBcTNFD7WggC/2VAgYvhnzcuoBpZIwxQ9t/owgzI2Wgn/jBJCcLL93M23cf/xJ3bSens8zx8QPA/hbE4nZ3+LumVGc6UYE4qZbIb/zyR+d2F2m3YW9KF+YSnsJVbcIiR+t1Qt7vFHfChl3wMd7zVlvN3DgtnevzNJ/bG9XamBzlSZmXCtCTlhSs50mvaUTX9m00Ilsll3HGWEOWp+NuNfZ5I9t8ARMWXLv4cXvTh+U4+/Or3z8WLj3wazvnW50AOHJNId8cT9DMKCOLzZAD3k4LQn7QagNav2tcNGVk++6noohM4ZuO/4/OO5Rb/16+9Hm/77H648Af/Osqn77D5nfCu7Y/DrW9+uwb/s+IPkvxcbu3Fn/DFsZdmIoL/jB+36zD+ZZxUPWh2wtEjjS1MmqyXkXyxH42EOhPlvT7+UYBJUI1IcwA6DyGXG6Y6kSyoxsJaZgLtjivK0ox1onYnkd6Or8Lya8iXQNMJLLPOExnrKCHLzJGYCDuT9S3Jt+nEdGEq23zTW+JDL/ko7n67e47pGL5x2YXY7+SX4LdrriObkJK6pR5iPZSlmnp4x1WbAdgYwzw98tbTP6+BeMmGdEru00wMPD/k0gFSkGR7tMOPwVYAV179M+x3yk54z+cP7H6v069+8wu85/MH4tUf3QVXXP3TYO1FlBUTKhCYALL3e1DgN79rxwCt+zD0Q3/5ZcPQ+RBDii2+XfzXxfBP/N4DZ52J/9XXr8ZBn37FEs8SORabbXJLxT/LT+UsiQO5/6q+afxRJj/PFe7WIQoJ/zn+eBVZOQgHtYX+uye1hFUrDCE/bGLxEE38MR8s3ECN+0Mnw/hHrdjQBZZggFoxg6fckaKVXFae4aiU2pNhZVcUhgxHn0n9fCqfSh68OTIbMxuUT+Mak4FEm1FWEzbtf+JZuyffAgY5SAU23WhTHLHLSbjvnR44qk/f/cm3sPcJO2PVb3/jjqK6SIB2s6p8yUzqgn7tzqifRkCuNU/wAzMyydUtvKEP4pMDikc8XwJw7OCz+ID7mfk7ChYGbYBZ+PRTF5yMs75xBv78gc/Evba4LwDgkp9/F+dc/HmsWnOt2Lj4JEB+FIkV6Y8w6iWuglrIR5iOpgas5MQBoSQHDldTNpw1optUKtkj8G/yZ+FfMyXpwID5FuRe+9vf4G9O3wOH7HAS7r3F/GfX3PMO98fbtzsKB3xiZ6xavaqJPz38YwT+R4aBqc4U/x4/0zpsKz/81e0h/mN4jUk6E2rZvoyy4CpkwIqFx92DGvxPn18M/4ZTkh9wLdiQO12mSPAgjzCSrIlQ4OZg5A7FjMAGY6mVtVvpcQkg6AQVYnok3yYRzQs4yKWvgACn7qPTDxuJOI6WguyuYG2y4MnO5pnWQgsbbbgx3r/T8XjI3R8xqkeXXXEpXnHcjrh61a/DecyPzGGFFSIcr1goYxv6MEn7sVPPHFIWp20xlUoJRRy5zQZdf+EA/rP2bCO3pC9gnHbWtifypgbUisrlAseTBZJKI1/o/7W//Q0+//XT4z6okzGgRVkmT/w85CPJZ/oZaqBtl1Og1Brlwr58ED5ogwggAS7rmDM9xj9m4Z/xI64fft3YPxnwf667Cq/9xG54344fxV1vs9Xcvr5wlsiH8MZP7oHVa1Yn/Ee+F0HOssIW/6n7rL6RV5tZZz/nrdP6BYwRQCUsgeJfraiFy5z03kYpKBIAk87nwL9H6oKFtqgBmzBYfp6QJvaAbKFN7MKBAGKRRJRMIZ5sUTrLpYSoSaZSg3mpY4F2gtUYcNRkKz1ruz1oEifwmGJ7C30ygBHX0M6KIJNJvuvPfwHC3VHKBH/3gg/ij+4z/kyPlx37gumZHtGBAINmcM5nxH7WC9p7Ydlhtr/ZItM28p+YuHs6g0wk2sWw4I11nogFWyNN0v9GAdFIW7rgLfDF5Q88Pvt5xNpIk4B7Fpj7bzeE/GaTR8qIpR+L4N/sJ7uIuviPLfSyZpIMWFHxy99ciQNOXeJZIs86BJMy8dhRXT7EfzAD/9F9GpNkYPNeLf6R8D9rZ1Z+PjIY9g8ipf5vjT+RjhEV78afAIDEz9rDvz7vsZhkTuwBK0u4JoldiWEsCyAFqTpTbZfAfFM4T2T2pWwjl7OiklXlicaxowMAgIO3ey/+/MFPG9EP4JfXXIk9j3k+Lv/Vj0KSbIZg9sfyQ4FCBEDZVGqgDj0v9iuAT/yUnIj62iyk1W8V8/FccEOdJ8IAsN0xURLL5QWWxb/ZvbS2YGWD9nHufui9mO+k7Ib0n2MypS7+YVOuMSlD0bGED9cO/sV/ZFKrDXxk67bhuKocG/FPr/oR9l/SWSJPxv5Pf7sEzPAeUYw40Lznicx7DeE/k9K6SPyR8FcjO8wAkjW10om/I/FvAIgMLr2zl+V38D+hOKw/M/2jLMCAKLXEpDfdS4zEAmKLncgnL8hbMwvJl5u9zMA/E+Mkg1UC9fgdF3m7ZBFD5p1C3oEs324qBa999tvw7EdsP6oXV6+6Ci8/7oW47IpL3S6SGdbamg/p85zOcv8T+w3GUino5nQW8lPlN9S9M5Hwt8wyXw9ZVdrN/advmTU7VZWlWUCUOWoHADw5MuPiRUYuJ8WEqovhhcZdWW50X8qB+T0st4c1Qz7m8BNMJZ2zzPS5/J3KWcP4h+Ofy2Rd/NfU/1i0olsLfvSLS/HaTyz1LJE39d0PWX/Upw7+e7vm5ruWhn8rFf4+nCcyqU2Hi9fPQ5D/RZ0CrRDeVcJBaeFDnerzzJsZGtLzjXyfvGy3CrEBMprXQ3kn1xiqwT0gxhfkRr9iW4ZJqWc+T2SvJx+AHR6766geXPvba/GqE3bBd35ysaqfsj5WwOwki5ivO1TiRJRxZnsJexA2qN+xNFQXWB/PE7HPu9u/yb892Cc7O6Mj+aJtqlMr+erJSW8hFxagZpT6tMuZ9V5DZsmkvRLPK/6Hn18q/iuA//ezb+MNSzxLZJc/3Sf6L2zdxLT4z/qWbHMEp1T8h1R1d5JDGVg7yQQh5Taa+1L8YZIk+O9aSeMPf+yTPNmula+6BQomSA7uLM9T8RhgMJ35zxPwwEnsP1gA1Z2pw55GmVPKvbRwakwx+YXV+4JkJ/ZDKX4dMZHk7EP3VgcbyYwkf3dQrRU7PX5P7P7nr5pbNgCsvn419j9ld/zHD77qdvBdcU6HiX1TipoLE7zA6AEaUYIQFudZISKmCCNhYEyfdN8Ydkbr5/p2nohnup5FtPbzyUHie4k2RbeJ6UqmrBOE46cyNtJk5vLR4geBX+f5eTMJRVuZ4Nx/OVsPB+AMa7nPE7noRxfi4E/vjTXXrx6FiR3/+OXY7tFBwjx2hZoS/qekIeF/oPo083I/pbjtOhF369i/iT9F2uRsb30+T2TCmmsmu7xjqaiilZHWiFDEWAJ4vS8JSOmdPt5mIaV9XubamLHsB/XfHmEGOIJusMz0GO9e451ZbYq68NlzHr0D/vczDxwlde3atXjDqXvjX7/3ZUuhVEc0wcf3XdFYs9Y7wOGAx4GrIcGdNqMwMbUg+U/CSP+q4diR5aXnBxsoxDrcSt3NFNrfuNv91OM9BX5m95yFCAD4vmkPBiYuyYRBNmIWbYvxlIUU/k8TnMT9099SFsjrQqyTBJMb+zyRr156Lt5+5v7jzxJ54mvx9IdsN4j/nEW6vmXs4wtY2QE8i6ZKCElTfffiZ1Kgft8YxAebDLJHJrv4V5+MLtbZ+C/ahGlrwuyRBx0sZOFDrhP625HGSGpkCdxjjvtcqhBGYEyE8jHJ6oU2R6rG8sPBo75szUeJgRpNGcmYi7OwWvUzNSbpj3Tx5K2fhQOf867Rct/yqdfgH795JrEQ0gmqBLXaVUDSbU8nNgpj8cQjmx04zEhQ2URugNjCrKy7q9OcRfqEqBbsuA8cjZRO5Cyktw4jGal/aN9FFTrk/feRfUBtMSR/WhrgrNWzD7JJ6C8AGFlIXidSC7oe0hBlH1iT/fSz73nwr/IZ/2KqlIG3+Of1SNPAv6zrWSLhfjKpDuLf/Lezc2+xK2cE7FdD+OcNBhXps6RAj3BFn3cCIXbO+E8ZssTvJeCffZ3MrycSQnU4+zwBY3lRDvAdKzonpafbt8vZCImEtVdR+d4ncmYnwQOkh+WPWkgvkGDI5wkEmOJrCvj7nwqAx93vSXj7Cz4w+kyP937uYHz6glNdJzHG+Ao1LY8MK8CCl/McZumFAI5ou9vA9NGodTOXZvlab212jyQX4yxufTlPhOYF91+3v5o/yg6kwa78KcOPx9M3B1D/G/ykTC/sBg84dm9WwE3hPJGzv3k6PnzOEs4Seea78eitHj8O/4SfvEtrsWvoPBHzC/3+t1b+78N5IhMb0FznCVQWQEzbBk1gyozP68ic5ktNl8FEsyiXpowZJsd0Bu4NTBnwtG32aeEKAyxs8CLWGwxS5nI3ImchqMDD7/kYHPLio8af6fHFQ3DSV47ybbHCNo3heoob7xC0+iNnZAIj+ik8uPT3thwRmYJ7IyDyqyvt9+E8EeOEsSbSMT+5qfG32JbODgSqNXOwj/YYQ39o54mcdsGxOOm8w0dhZcMNNsJB23wAW2/5yC7+Q9c+QM+Staw43xXWrez+3iZnIUMTSZsJhm2s/1PX7OLfR+XqH8I/+RbzKuufyZ4D/4UCyEScJw1G5h8ycgx0oRv8hVtRr3Ma5QPxZ4mZZofOi0rN3mQajIFQvnCMUxCRz9cYN+k9FsyiMj0VFy1eR37Allvj8F1OHH2mx8f+9Vh86EuHwAKB9DrULxOq7sYApLSY7Zp9i8oKfp/s/YZO1NM2IjbmTRHxLw3yJI/6pQu3pue23s615TyhN2Bs5Ks8brwSmIyd5fNE1BXSJg4mTjShdzsQSpfg1mRnZFvdJRSEjCcHyaAQgUeZbSiR8Z/1JxuXcpmmccAq8gu1EfgnvxyY0Bj/J5z3gSWeJXIk7rPFg0UBfetRJ7vBfJHLuVuOn4r/hmGk+HNTPk9Eayk5re0I8BkWIYj5T97H7gFBWMnC8+vNeSJzO0yMiVNVdU/KoSpwj9vfGx96yUdHn+nxmQtPwzs/eyABN5hOUr+OpdD4mHFTcPbacJudRhmFbM4TtOs/MRkLWs6U3Ic0wJj/1Kn9uhao8Wy7Y6VTAqlD7qMerOsJZr/SFR/srELoH6J+7ZyZMUsKiAmdJ4dsgFy2LUPdV/0jTVCcAZIBOPAIJjtZx/p4nsjhX3or/uGiTy+KF75usclmeMf2R+Nut73nTPx3J/cRJe3h80QC/7y+0a4jtZP4Te08ES9hZefkKwebaCS8NAK9bj0TB09ZugYkApeXYmKYtNNTlMMOaeD2SJaeF/mO0DGXOpfWjdvgdudb3wUfeenHcdvNbjdKyjkXn403n/G/pX+5HqmL+GyLuF82NZQUbIj9C+BdYHiaB8tStG1qoF+yaLNO70ADkqTpoM5wssHsm583XYT7pECg7Ndl9ny+hvwQL2iNMRPJCflVfb2Q/qRHNeHHzFIzVASAsl2T5LOukvnEg3IGaD8Xx7/yd8FP7ot1t8Oapd0G/xGweH3zPWe9Hud9b9xZIre++W3xzu2Pwxa3vEv0J+E/+kw2HpGBMP5rwj/SRCy7s7L+zO4lra+h9kkixuP/hjpPZILsHKV0nYlX4d2hbLKVNDGCi6f3FuwpSll3rK1sRPtd0iuSzw2s63ki46/ayDeHsLHc5ha3x1G7n4o73XrcmR7/5/+diwM++nKsrWunQYnYO5nZF69D/WR4GidlD+FQqgDd4ckvx4UjCcg5INs9/M+p8EivaUcV6cl89KZ+nohbIo+ltuPxUFPEgWIS6e54SuyVAoL4PBnA/cQSntqEeB/s+n6eyPV1Ld76mX2XdpbI847DrW92uy7+B+PPvFeKP4z/iD/kf6TX3sSQF/K7+EHIWSr+2zKV2nUQ/yx/2ueJzZqD5wlQTZJ/OIMsBAJwJoC2XED6oixo6ijtJMI7ZtLqizQQ2/B0Eunt+CosPzOkMZ7TyA+g3upmt8JHXvox3P329xzV6jcuuxD7nrAr1lz/2xTYcqklbUjgwOmDmuoPrf6IhksFxgJl2ITa65Z6OMMBnFQXcuxsPxLNQBoifz3/4TUQL9k4CMV9momB54dhX+fkqg4MPwbLxInVT7GUHC0U4AEmlBUTqreZHqdyhuy4ceKkBmjdh0N36G99P09kzfVrcOCnXoFv/fg/MObys0Q2vVXIG4g/7hjzXj38E6Gwl52nCiArliSqQxQS/tfX80QmzhaS4rpbbdPnlnIr4+TmyWGo/s2prT1eMWw4Tu2dSbEOatv/bBhJkSs50sgUpGWqJn/h15tvfDMcsevJuN+dHzSq3e/+5Ft4xbEvxrWrrw0NdmqRvn407YTzivgPDT2CN0+oUoMVZtYGULmPmTq1K4yLGuA7a/IzW1D3nSgdqfG4ft9PJcfKzGjYcGq/2ARRIex00O7J/jAKq97LAUoa7Dzv+GEH4hJt+7hOyAWkP3ugbcC6KfhJDpw3r+TfkeTzfZrxRY9n4T+iRBCXWVdFxarV1+L1p70U3//Zf2LMda8t7o+/fe5HsOnGNxuMP7Mj0MyOifnUXgPxx9RSkDBun8+L/7BnneGANrX38F9n4d/1FLVhxVuJRXQ+fCbvzNCLPpcJNb/5q19h0T1PJJqTkozsJEBKrXziUn1xjdpnUQYJr4mUANSYFMT6IdYmZ9h4w43xvp2Pw0Pv8cj5G8XCmR57HrPDwpkeIHZGsvQ8Ef1ufhuHvPlNjpSzMmeG/iANAqybXlZIjsfy+V9Vm+WSl0984j/x3kwOJiaf10T0bBE24pDPovHVzN5df5mMWGkphhWB0AcZS8iSxRnTrio/ikz8YdFygTVdmztVvuuveMYg22otK4oY0JFvioxyyTz413Xn/Ob9AP69dpQpSvrKGNqgw3Kvue5qvPYTu+FHv/wvjLketOXDcPA2R2CjDTZu8C84WuLFFUmOP7HWQSiRiaPNrHPWxlun87cTeO/DfRTbCf+madktm/HvfjYb/wXARJlV+j5/vqiGF5/FT9lCm7Z+BfMhFlK0Dd7ZcmOfJzL3JSxCB1Awwbte+CH8yX2fMMrxLv/Vj7HH0c/HlVdfQZNin4FExjtlA645Mg85kqTGxEg9oHPWQPaNkm4bSBV9rEtiNgakbH+zBZe+kv/4RNK4X4Cqx9qCy6aJlO6rVR/ivIV3qaycJ9Lin3fhNbpfBP9mP9lF1MX/fOeJ/PI3V2D/U3cZf5bIVo/FG559qH9/k0GkuvzxV3dnVCkJf2rBXvzQ8Kr4X5/PE5kogwtHac8TgJSzxEUKlck8xQnO5mr0yDTMFJvaLoH5hjpPZN5r1nkib33eofiLrZ8+d1sA8ItrrsQeR78AP/nVj2IHIxR6bsyOfDa4fFQdw4lkpq/8plQ4Zp5svTz+lP6WeL757pzpzzr0vNhvQT7XdhvrlDI4kbC2+GOeC1bOE8lf+U66oA/7+J/xrQ2OtSCiGJCvk1pFhp/EH9SE2ejLz6/6MV6zpLNE/hL7P+0dQiQ5uxsziXicUvV5duaZV8eCoSvNIEwLWY7rr/m8NPj37DDjX2JxJ/6OxD9qjW28Jjx3OgytQb96l8IR5Wemf5QFGBDXl/NExjhMJVCbQV+3zVvxV48ceabHtVfh5ce8EP91xfdJ/60dZHKvxALdJpFOOsNMQdQfQdCcKCsNnCfQeV4+76SzeaeQNFBAwTX6KpR+UH5D3TsTCX/LLPN10ou0m/tP3zJrbLuqLM0CVs4Tkb/HfDcD/0FaIriyUgfkgxomXfzwF5fidae9ZPxZIltvi72e9AaYAbL7zXvNOk+kix+qs8TiOON+PvyXqQOsD+eJ+ImEQbp4Pm5ZHucqEvuZTXk6olYp8nRyRMt+qSLJQWlqMdFKnnkzQ0N6vpE/lnLwTq5pu698ygHY8XEvGdEIsGr1tXjl8TvhP39yUZR1EhvJerLSiN2QfSxXyjvqh0esDkw469P1JMxAFTFfIhnt13IUvjvaZQMIG9TvWBraWrlyngh6ACQ56S3kwgLUjLym5mND6U4YZNikz7CdLwoI/oefXyr+v/fTb+ENp++J61avwphr20e+GLv86au4uXGzh6iPsk1VH/Xfc0wZTuA/NKTuTvanDKydZGJC4jaa+0qSQyRJ8N+1Uht/Jl63pUeifqYsz9k3M5bk4M7yPBWPAcZz69l5IvNelYNVwU6P3xN7/uW+o5xt9fWrse8JL8G//+B8Svfhxucsg3fcVPo9b7uWgGkVXWJ7TVZGdjCduPNXYt+VWbKmtro/vAib9p0hXKIKUh1M1X2NgUH9n97ItlVzVM1kwTqJHvPiIjPl8HWIfB+DlXA6aHRfl+6HTjSLaO3nwUXie4k2RbeJ6dZg8XmCcPxUxkaazFw+Wvwg8NvD//p4nsjFP7oQB336lePPEvmTV+C5j9xFJo7B+bJzMVa5+hQ6jP7zGpJmITTBkk20Lx37C/7zPYr/G/I8kUkIjg4rk6MH2KB6C5Ire+DmDgv5SRlD1J6jTe84p/NIQtiY+nibhZT2+dGkYzqm5zx6B7zm2QeNenTt2rV4/cdeiX/93j93mgyA5m/TFHbMO7Oy/kgDGjhAurd/qE7CwWkyaXbC0CM94FDAE76VSXCnzShMFO/jynki/YlLMmGQjSQJtef5XSD6TxOcSPsd/AstHogFOVm4Mc8TOf/Sf1nSWSIve9Lr8LSHPNcMMC4LkbHzpge1r2axzRtt1kJk0bSmZH9r9N2Ln0mB+n1jA/gP6S2Z7OJffXJi/27Te360fTtV2W80zD7j2QgtePKWspiJY5ZmsRz35T0CrofS9l4OQ/680OZI1Vj+qKtWPOWhz8abn/vucc8BOPiTB+AL3/gsgv2z8SUHVP2RLqL/5O81LTZGHuKlyWw/LujzNlsrZ7h+U4kkSi4srmpQMxZPPLLZgUMDcGZDGohMaOU8Ecn6Ofsgm4T+AoCRheR1IrWg6yH7GuE/j1XZb1zz4F/lM/7FVCkDb/HP65FAwZe/cxYO/cK4g9oAYL+nvBVPuP/TxQPnusyW0PNEml2GJfyeqzA5I+B2Z+LfMhqkz5ICFf+s09LgHw3+U4Ys8Tsen0itTtJ7csY0AwbT0xmYB2r35ufZiQu01u07VnROSk/3v28myjJaUWiuovLHXo+7/5Pwzh2OGH2mx3vOPBifPP+jEgzHnicS7hGlBdu+USUKKAPhwFTImaNWrwHOv/emo0ALXs5zmKUXAjii7W4D00ej1s1cmuXrek+zeyS5GGdxK+eJtAyS3wdwNsr4J72UrFwE/rHO+DcbMf4xgH/NDLu7kqZtfv4bp+HD/zT+LJHXP/PdeNQ9Hz9uDkn44W8Q4P5LBj6A/0ym3b4dF+bx/67PE5lEvbN4m1HO4hpxBAqv1aaa3NBAXSmVAwwxbRs0gSkzvmDdy3+eyLzXw7d6DN6/8zGjz/T48BcPxYnnHmnEOtU6hcu7ETkLEVAJAWaWSXaaGrBOdeMsJFTlv3i24cGcsjPRHzkjE5haxWXZgfTvbTkiMgX7KMAUawiWhUTNfOU8kcBS8PhWJ4yhP6TzRE47/zic9K9HYMy14QYb4c3bHI6t7/qI+R+iLJkzcN7F11sHdCxSnYDdz9rkLGRoImkzwbCN4W/qml38ux+4+ofwT75FvGqigOJtYnDBzZOl5xAQpyJ9NEaOgS60aw7NC2+yI6CmiYOYaXbovKgU37HF3Q8NDO8yaa8P7nbS6DM9TjnvGBzxD+9OWaruklLrBDu0OnK7k0YvBpTrQ9KwyvNmVr9MqLoboyOf7Zp9i+XbfbJ3fKp7dgxyaF34VQ/SIE/yqF+6cGt6buvt7NN5Qm/A2MhXedy4g92eMpbeTGKRbfluQNMn0TuvR/c6EEqXkkKTnZFt9Z2FQkGsg3+Fn/Q/Z57r43kix3/lsCWdJfLWvz5y7vtjblX5hbL35t0o/tS5W46fiv82LVJH/F2eJ5LqMJaOkZLk2WAcXdaR01qwe1CabDMfpdix7Kr72D0gCCtZeH45zxOZ59r8Zrec/2YsnOnxjk+/sVFmsAqTn/P2YM9c35SauViFX5yM9kMms98gHiV71PQH13B5x4XU74EmoMbEEiFH1pxo/JnJWNAKdhZj4wBj/lMBtb8qxJ/t7VhrSiB1yH3Ug3U9wexXuuI9+xLKOZXvozLKSeonBcSEzpNDNkAu25ah7qv+kSYozgDJABx4BJMd/K9v54kc/qW34R8u+hTGXJttMv+5Pd3J3Up8lL2KQqD+m/Ff5sC/rE0h7nH7E/4l43f7QXw+Jwfo4L8m/NutkwBUQNbsoZPHrBS1Ns4p96ElT1E6W/gZgf7GP0/khri+dNFZeNMn9mun/a7+woi9+m4kFRTkU995cXWQ+TN7BzsZ2yLul8XAkoINsX8BvAssBCLLPIq2TQ30SxYr54nE/JJ8RxlVzBOSwVGfmBH7JEwBqfLNffxT/iHjng//mn2Fz7e6cHPXmfDp4D8CpvX23Wf9Dc777rizROa9os9kY88ANP40A5AJPYhSd8efzU9cJmP9QQM9478MKHAs/ofOE5l4fddlcODpnSfAnYlZLx5f5DyBSg5lorxMpcHF03tTNkUpk25tZSPa78x+KsmXBpb5+j/fOxevOeXluH7t9Zpqs/eQ/N55Ivy7sV9mgKVhb0kX1gY9zy7vi9eh/rC/6aiGPVi+MK6UyaycJ8LKp4wgz7IlHMAtkcdS2/F4qCniQDGJMP5SgPHPKCDEmgIHLvKTBv8e4rEk/JOfii4ScXBJg/jv+Hw14kDrb3Ut3vrZ/fC1kWeJzHPNij/mA0384YcJ/+zXEacCXHmS7E0MvJAfLpjwg5CzVPxzmXrCb37CWU3x4BM7PrL6rEMKopxOBRqUwTmDLAQCSu59Mukwcq/fWXM1FtYyE+jtuCra/WW9vv5fF2Lv43fBb9dcJ2BqdjSQ/JqAymmlMiouczFpSEyEncmobZJv04npwk3lNYup/tDqj2i4VGAqyQf9bBl96jc14Ewc1qckn0QzkFrGHPrI+s/rejpRiPs0EwPPD8O+zsnVynki/WsR/FvwGsQ/8XsPnLWL/9XXr17SWSKLXTn+sANV+hkZQXq4h38iFPay81QBZEXFf85E3O8I/zfUeSKTdscK13jidq9lxlQlne+VVGLg/c8t0CnjZBcnh/H6W3UCb0qsendzcWrvTIDsvVzXd3/ybbz8mB2nZ3r0GVjLVBGxxNUV37Trz3f0LAFObi8D8qNcaWHDeUVVefy7MFXOROBeH5N37grfx0yd2hXGRQ3wnXn8rqdKO06GfICIkKwPDZRvuxdlLyEfLl/723k8PQ8UAlSqapfWHOg87/gRB+rpTyc0f7qA9Bd4zw0o/iV0w9GXiGL+HUk+36cZX/R4Fv4jSgRxmXVdu/o3eP1pu+OSn38Hy3lFYtSJQAl/YS8M4l/tVZu2ZuFfsmNgDvyHPesMB7SpvYf/iXUkZqlgATYTZVaWOxed1lSqd584WNFO/87OE1mG67IrLsXuRz0fV13764Y1cWo56zyRNgvhr2X2hLPPzGkwUUcOWSvniVCZRDJD9oIhn0Xjq5m9u/5qntRrsh4iEPogYwlZsjhj2lXlR5GJPwwHip2MKh89+a6/+fDfl2+KjHLJ+nieyDXXXYUDlnCWyNCl7s/9VfLcw39WC1ckh/FveupP0Dk23xjniUyse7xLhWuydjFT04lE/26O2DgO1fDis/jJ8rUOy8yHWIgmQOT2toBVHTzeP69JDjHlpV2X/+rH2O3I5+GKq3/eGM6s01vo4x7Yn0uxAMe901LA0M6KmBT7DCQy3ikboRb8eXKkJgMiXRdyrtyBKOm2gTSyEe6L2Y8pL1r7T5mnlL6S//hE0rhfgKrH2oLL9kEu7ut9pic5cHfqacqmyXrOvlP/GwVEI23pgrfAF8g6QPv47Oc9EGf8L9zH2YhkDRYfSh//vAuv0f0i+Df7yS6iLv4XP0/kl/9zBfY/defRZ4n0LoOI5ZCu7xwcO/hncpTUNwP/i8ePuL/1eY3VY+IPkVL/98LzGwJUoijMDIQzwWe+ZBO9NwLN/OeJTNmb0zSa/cCBDsQiaWbNKbLJB824rMie/HW87nTrLfHFN5y/zu2sXCvXynUTuihTkiyz0m8D8Wfh8UoZFTWJWBMZc54ItZy6mSoSST5LYPlNkimxeOH5CUo0VGvMPrUz+/giC/rlLGVsiTEnVs4FGNOD/Mz0j+pv08y6Ub4wJhpBnY6Yt/uy/JVr5Vq5Vq7xV5TTZZ0I/SpHJZqv5SyuBdi96PybNxlMJ6/C8beNw1LKtyx3GkCX4zyRScx8VWT6d7zQgkunT/77gkL4j4UG2h1OZ+aDK0VqZLTOwaqUy5OZqEha6SOEU8drXZk8Vq6Va+Va+qXhJLF1+zwOHsvxJ+696Z4nMpFAbB1ONWWtl9libCy4FOjEEPWzXIOrkQmAFlh5GFars59Uzornlvc8kZVr5Vq5Vq7RF6170Ue+/sSbSWSRsVaNiaAmLHbRotX6fJ5InAcCAIms986jMGFt52TNqOnU+n6eyMq1cq1cK9e4SyIQxZ/4Ylqgre5M75ZUgTe53JTOE5mU3BWK2ZYNyFeo694Tv7efnYVK2jod7bogwaUjn98f4C1l8tJRaXfnxK4kXsepyghKwc+u+ul431m5Vq6V6w/2uvKan9FuRF5CB2ypgDlthMQcf+AVFUiGAQ6flLxEFSZnBCAZEj8B+rm854lMAP4Dj5QzBa3DReAvWqsreTLJz+vurPXlPJGLf/gfy+haK9fKtXL9vl/fvfwiygXojBUi8WWgwKEvU0dMvSmeJzLxxKX3VROy44rOE3BBsV7hy+5c7uN94mnrLdffmu2+A/K9DkeltdgxViL7aup1sVAlmwKmfzvmnCOwdu24ozBXrpVr5frDvNbWtTj1q0dHVcMyEYo//h5O1RdJJVewGEgxzaolvJZLf4gEBvY32pnKZD5lIUMTia6DwBqIkppPNj6s2OJbKya2G6n6Z6le5yw+v3PBX7dRpEP9Vz9Idby+wpNHGowszk97LvW/6SS1rueJXPiDr+Kws9+5MomsXCvXyjXzWlvX4vivHIaLfvQ1J6ryhYNpUTriDzR2gRIL2uTjlZSiWYA2sP6cJ1Luudftqk2ePFPmm2NHAE+Y3bupYxic/azjQ9nHgPhB+bn/ts/Z28927XTwUff6I+z2xFfgwXd7GLa45R3HedbKtXKtXL+315XX/AzfufwinHb+MfjmDy9wklol/vBpj9D4wh+BFqS799LuVSHuiYTLaxZtBLR/977tO8vnWJnfYNelBNqXW2wCoT3AQwFdBNCUauWoJqDTwkt+W33omjWhSKznGZ30xt/X1OhxSCarhYQ0j/fsM0J+8zhNrEPyIU45ewCmY7OFfh1Bad4s7em50YUruj9B54m7pwvYXZlr1FYBXVugld/qpW2gzGOAGT7f/74szbYzsPrkxnrA289NL/ANIiXronOfDKCj9Jn4Zd+kLe7sQAXDz9vguvjv2GIY/8NxYDb+Kc6EW4rOsi6Wgv/e29m97o+NPwPuN3/8mWMAEovj+4TCHtRWj9jzeSKLK3ChtYnNSu5Upd0xxf/mryoRULCj0U4t3pusbhMFqpv6eSK+PoO6qPzu5EElPNmNUQOYWqesjfzMMPh3L++B2pWvlSnSF1eTo5S+sdnsypMHJXhsC9Swh3yLZ5o8tOS5cp4I37hyngjafwtm1AGX+zyRIfyXZcD/rPiDIfmuqFY+4z/kk//JmnNuLPxa8J/xQz5fAExgDkdA5W+OzFwhFF8lwP0hnycS2/DUiXo7vgrLryFfAs1AOjk0gPgeM5t0HBpeE105T6Q0ohlI4moso6P/vK6nE4W4TzMx8Pww7OsEVd9x047esWa+bpNY0okIJgV4gBH8B+5XzhMpg/6jQw09jsI/yxdM3HTOE5kEM9OBZjTVJICZMb+9qBqOO82xo9kiLbff1Jn60/ncAp0yTnZxchgLVtP7Bch6d3N5QLXxUvdDfb3nhQJG/ys5khOjtgfdDLBhqj3zrZwn4m1SP3lMXPJjdtx3gJXzRLr4LyD9Bd5zA4p/Cd1w9CWi2CxGJ/mQ+AMw/q3dWfiPKBHEZdbV4EfVP9v2pICh+NONQAl/JcnnATQZtFgt2pqFf8mOgTnw7y8STikClwvSRJIJkDKFhTv+YM8TMYpIYyvcOKWSIPklftW7E2vKWWF2LrNBm4WsnCdi41k5T0TcLzDqH2b8BzuubfcVI+UP4zwR9rKkfnG4HD8iw4v7Wve/aZ4nMvGZympkpT1PwLqQ50jmbfxm+R/ceSLV+meGoG80rmbIkO9sYDouZ0GI57Mj5Rpmm8GFXlfOE1H3c/ubLaIjjf/4RNK4X4Cqx9rYgivnifz+nicCbtluEfyz/morv8F/xNaMfy4rNGsYpJekvhn4Xzx+xP2tz2usXrhnwg9YSz4D08w3VU3cRzHJmZTPbA1ncsVmmyiDC0eZ/zwR+CxeJKcM+WKYGvJ6TLGp7RKY++eJqPqccVMdVxi9RjXRqqtU+qXypa+Z6bgj8HkC2ZFClfy8EVDTQcfMnTpsTa2qI7ckM9mfUuGYefreE/JjLEIEnLg05k/9p+fFfgUoUdvNu1ZMSUMTiXhFlUea0gDReL/HRlC5A/xHe6xyX4K9GgBiHYTeam7NP5XFv9m9tLZgZcP2ce5+6N0yHkQdXn2uxT9ReP+wj//S+h8rGVgk/iT8IRFJ+4zjD2rCbMpCMv6nmObFa9mN2MV/elwVIw7UPU+EU2308K8+r37Zx7/OnG1Gwp9POJ204fTYnzXLu6HCkf6wzxNxueQFeW1B6/85naWFa3MCtzQzv5jcKxm0dgbAwYEZo66lLO08ATUgbf1DZGgd9/Gszv7NX+MgmWHtPy+fp3KW6S/kQBso0S/uq1D6QfkNde9MJPwVP8zXSS/Sbu4/72iMdZHs8+wLhf0yAYCDmzBm0kUuJ8lPJjcJ/0W7T4QzJqZ58R92a4Mj8ljT5/J3IkzD+A/SEsGVlTogH9TwHPEHjfzF8J/cD1l/1Kce/nNm1Bu+36G+uhT8GyktpVgJi9igTWgUHKyZ+FyDZWPYEpxGWWbTJ/89SBfPxzed80QaMpMmx658HwDthEMAy553vfNOjm678aDVRLXWWUTHQW44+KVhguxPrDj7WK6Ud9RP/WuZJGd9up7UvV2VzEEs6ZkzziZTUgcG3ynBbYD5cnbJNXlCC5VVGvcR+Zr1FSc3tdYZwy/hh8lPu9u/yb89qCU7C/5L9t9wjqw+zMB/amAA/2ndMMWf9sosmbRX4nnF//DzS8V/w2fSvYvin/svGSL8+Yz/rO/f5XkiG/rkSh0GgFJ5TcAEtW93y558ns08bRN1uFHzuwvc4QXMascz42v2TgNicOdTLj9Sc2d6Hfne/0IBhWrCXtKiOrM+P+0z2Y1rwvJ2qbTJzxOjK2BLh1Mlnai9K2pNqbvrtX2eJ5eennWL5mz5EVAXZPJLVbbdcFB/xv7d1St80wL1lO3g/y60PuWGz/Ld/abqZfnMzKL/Jj+5mmKlEHtPZSl08WN/r6lNson5UQ4aPV8PpbhOSFGhP8t0sv2JYPXwL2SI8WdjmhP/ThK8nQ7+zCYpcPX8kn0xYKrphODfdDwC/26DLv4RsYxMJPpbIv7rIP45foZOfASW/SX8h/yI2bJYz9lb46cWP1r8+7fxOu7c3InF5Kkrfglzpcm6LbEwUNLzlZRf8t/W//NEaq358TYL6aRiDJ1oIL6YkrxKlFOTHZSpKeXKf8uEOoJZTBis55rAbH1q9EcaYL5D6qd/qE5ikbRE0OKx5tFJxjBVnwtS+Q0J7rQZhYnifWwWwwdTgZAf34DKWQgWaaA0AIpdTVCgd/vPu4cI9GQ/1n3zToP1X6oFeVcTPcKZcMa/k1R7nt8Fov/08A+o30v8Ycz3Y0EdiD9M7+2/ObHp45/1P8v4pmV6nBKGWfhPBujiP2eRru+E/3DTFv9i1wH5nkXThEzSVN/T+DkR/Vo6M1WH7w/yqUnrzdyxNmjaPcpsKNfxf7fMLne8fTtVdl2wa3Tk8+InbykN1sgsMsSy3WUfONdDjX3QYpWwEdFtsDCWzwaw2GrNZ60hy7c20xj5ISYwUW/u76qw50V/0Od9u6M9RRkpqAc+woLGfmT+NovtKiDptqcT6g//j3WideqQx1mOGcB33lnWJr7J/qpsxGrtvPMw+zq5DxyNnjrE80220Clu5wCxIDZ0WDJ+XD7ZYkg+KuGniB54bSb0FwCMGJHXidSCrofsa5x3prHKehxd8+Bf5TP+xVRUzUjvEVlGwviH4t/huQj+S8I/uZ9MqoP4N/8lkDe7DEmE4p8Vrg48E/+2Tgdg4lMmdwbMIwVZYYxS0Ev9NAvJfK+QE00lFBoYlRfifm1USiu91HOmfIgTW3nOHNJ3rKRZMfH3LiP0CZYf75GWovK9T+TMToIHSA/LNz1IKp+oDjNoDobx7o25KJetQGy64Sqh3+n/q0SB1A8KTIXx4tmOBrgyQwHkqsKGdSHevLeknlMD00ej1s1cmuWX7P5dRogEMM4ghuzXcR/VX+k5oPofi3c/drOWIPvEqsX+av4G/2VI/pThx+PpmwOo/w1+UqYn+Ce9lKxcBP6xzvg3GzH+MYB/zQz7pWPFv2ZSffv18I+x+Cf88DcIcP9zZaiH/0ym3b5lWH4pZWENpDGXB5w6TUB41vNeSBrVAwsbVetwNFvX8F7Pbl0/XCOeumliVLO+gC3LN2YqLzyRfFa4zOq8DsBpPrOBkt29otRpvbOal07/So7JL9hlA1TrcydQ2H1kvhg36Tn2tjfmW+hjJ60OMmBZkeqGU+NWfOn33z4WtlmT+oP9Lrgf688mCkRQBKhWj7BhV38x0WhpjWheIz/GPLhm1wlYPEFUw09Hgcl90j3M8GfU7MV0U28y/HgGGDzWkJZcUS77GyugNA4Ez06ARFoSg0etg/hHxn+YbxD/eU1ybvxb/Cihix7+mR+auJw1WJZc5sY/A8DuG8K/YUPxzzTcOhr4dwSEnnPbaj5YLEvuT35HthmYSCa8G8DTUicHJYTlNCfVwi1ba9hZUhb/URPgSEv75U6SXxSsXOvMQS0Hew10pqZwLmdXQaNiQpFOpbdWKWVnMzNYmQXakCSllbJcls9XZtXF27L2cjai5tNdUuq5mh1Kaa8jmsfI24w1DePts436xUd0N1ZHPmunyuMq3+7jYGX6YMegCY3LskUldYL89H7qF/tP6Lmtt7NPa0Uil2V68lUeNx4l48jO+Iv20jRvGlfiFLOPcXR0O0DRfhT+STcVMaWx/krr/tJ/G5s9w7FA8M8sPsevxgGryE/uq/GLyc7c+Fe/MPl9/JOCCf+t9aiTqWTYTOwZ/25viI1zdaj/fWTRk0lbtinuDbxvXozNTAS5bJNqiWEfN47VhttlaUvH4hMFXzCzLuvIaa2K1zIHsafgP9NMw9gVPQPCqvefJyQvBzCcYuKpyM9HqgiXbP1wAwBJPnGn0DqDuxRxxNpRpgcaly8WDGu7zYrUvLM/RVYXKXKUupn90jpCExADnFzDjR1/lexH7td4D40TLUBdJzJxuSuz+/vYlP3GxCH2b900JkSxSacEUofcRz24l333qGE8zow9bBGrbxHIIl5l/Os3ws6L/073G5+UCcon5+L+4a4ttoiJM+O/LWtD41eKP7IY3+A/uS+0/+bziv8iBrT/Cv4JAL5V2+Un/LMCOvgvM/AfGBjAP/r4L3Pgn+PPxD9w3zDn9Ht8gGwu3tYJYj66oBcezXuIwwcZUAFZk6+TRwcoEhA7AZNazOSpakQnQ1N9kGfnol2oST4YXOaI1G+3VYft+WIlqBbK+oJjNflCBMqmnNZbvEg61LrxQHCjpnvbNbkt0+sg82f2jrRAlyYnXrg0A4otiP0L4F1gIRBZ5lG0bWpA+oIAUs46SQENIRBNp00FWk9OXw1hugj3SRODsl/1uUwSQn6IpxmKPuMNBiG/qq+nAMf2U/wo/overIy4sM9DbTED/5R/yLjnw7/yd8ZP1oWbu86ETwf/McnKu1noql9KfFIaYyYzA/91EfzXptMawBj/NeEfHfxLmWyqv4nW9AL41qnIAFXFsQCjNUXZDZTSa3YWfr9AnF0CD31NcSoXsJfnLb6z5Ptc6atncGOZ6a2Pnt6bsilKxegJrJzOkv5ssqkknxvI79TMkm9t8Ppq70sPbczdF8rSAHJ9PeI52ZZBlthfrF1o4KoeOGJHknmBL16DsAKILWwCr0m+MC4lkirf26vIrEwCovgPXHiU92hHFekl8LrYd2dZkIu/8QJv+55Olp8n+8g+ml1aAVjRR/ZfMH7dydJYajueHv57axJxpz7fxT+TBY4/XfwH/14S/hvMqAPyasNs/Hd83rG8OP7LMuB/VvzBkHxXVCuf8R/yyf84rkzVN+G3GIMVFh9lOyFFsIotfhCg+m4Anhj8aVO81rvDiW0mhANECLm4QcyaXCbg76EKNCRGboAuBAJwJoC2XEAqCOlmqI4RyZmb3dfUQCzYqxP1dnwVll9DvgSaTmDRdL905AdQCRqJUSmrYgbNQHUmWuJ5JPk2nZguYo2xgj9s0vXkg1yBqSQf9LNl9Knf1IAzcXfpJJ9EM5Baxhz6yPrP63o6UYj7NBMDzw/Dvk6xzjKCHn5q8nWbxJJORHAH/6SsmFC9zfT4DPzXjgFa9+HQHfobxD86RrEezMK/kZdB/Mc0Bo95dXH8SwWC2loK/lm+YKJoHMj9V/Up/olQxBZjk9/ifxLMsDox5UEGEBQQHvKdmaWZJpc4oM8zM/Y+1CS8shxOndpO9koq0p/O595/YXzs4uQwFqwq6QmmdA2i+eLU3pkAq6m2/R8ygMgvIb/Xg24G2DDVnvl4gwOk9bxI2SufZNYc/45ypcHB84qq8vj3DChZAxJm1gZQuY+ZOrUrjIsa4Dvz+F1PtYZNh3yAiJCsD5E+MOt5+lMuMTt+6synu/gNQKVVtdKaA53n+/jv6W8A/wWkv8B7bkDxL6Ebjr5EFJvF6CQfEn8Axr+1Owv/ESWCuMy6Gvyo+mfbnhQwFH+6ESjhryT5PIAmgxarRVsZ//5tvLZzpyYhvD4iA3eOYR8WLRekiSQTIGUK0z4kFmBUKLOyPJCFNmKGzDszWmuEQ8RH+c1f3VYoayLdxIaWnyorzMhUvHDIE6FP2FQkjSyArNxZQyrxq96dWFPOCrNzmQ3aLCRKW5Qw95k5dSDqyCHLGDK/ncy554ILUWZDkSyzMmdmjQKIxU9/94mlqNJyIJR/VW2WS16hlypyjeXlYGLyeU1EM0O23JDPovHVJnsv4aN544RaDxGIfJCxhGz9D/XPxn98mPEf7Li23VeMFH5vZjb++/JNkdO/zIl/zh4Z/5iFf68dZYpSRH/uix0DFuhYsh/n+BEZXtzXuj/3V8lzD/9ZLVxSG8a/6SlkTKyHsQWM00kaOxGlEE7My2pktoCbam49ls68jXepcE02cBAd6MxPxGyLAJQaGJpmXWlablFW5iyJ2Ai3wTtbOJ0V5uU1yRxgrH9mTNoJVs2QtOWyVnq2umm8vxk8eWeGOGjo1PTKayLqAK2D1/Q8u3LOQMJtptkIteDP00TWZECka9s9KOsiFJRzRhK2YPSxLimzSe7n9jdbREca//GJpHG/mFRVL+wJeeIfcF+2v7sPBe5OPU3ZNFnP2Xfq/5z4d4sQccz4T4/Pft4Dccb/wn2cjUjWYPGh9PHPu/Aa3S+Cf7Mf+3of/yn+1CSMfM3lhgEd6/zOWiO/wX/E1ox/Lis0axikl6S+Gfhv40ecBzJlwRwIfR5ObNubZK8kRcXWQV0gb9hqCjgxszWcyRWbbaIMLhyl+4JR3olBAcOSAHTki2FqyOvv+Ei1XQKz6kLlUwPwNREQmEU+G0D3ezSBEypf+pqZDigDkYyvdYCwVdgu1iWVdzWOzcLy8MmRW5KZ7I8KsahshmgeTzXxlEU4cWnMn/pPz4v9CuATf0xiMuK0JtVnx1pK4blAd9axXWMElTvAf7THKvcl2Kvgv86Df/0+u+L30tqClQ3bx7n7oXfLeBB1ePW5Fv9E4f3DPv6HvxnA1xdmxp+EPyQiaZ9x/EFNmE1ZSMb/FNO8eM0bDPr4T4+rYsSBWv3ld3N6+FefV7+s068yMYH0U1kyzZhWiyO/44Vn/5npE4Ip+S/uSPztj/oeBsuvldoKHXubNRtXDK1B3/o6MPxO/yMLMCDKTi4ekzkSfywsoPTlkxfktQWt/+d0lhauzQnc0sz8YnKv5pBsX2E80YBknCmL4XS2ZweZ3CuxQLdJLPQ5w0xBNFxGWRx/jYNkhrX/vHyeylmmv5ADbaBEv7ivQukH5TfUvTOR8Ff8MF8nvUi7uf+8ozHWRbLPsy8U9ssh/BcM4L928E8/mdwk/BftPhHOmJjmxX/YrQ2OyGNNn8vfiTAN4z9ISwRXVuqAfFDDc8QfNPIXw39yP2T9UZ96+M+ZUW/4fof66iTnlVFXS7Mkfc7+W6lpqclRcLB243MNlo1hXQ7XyiF/z78H6eL5uGV5nKtI/5lNeTpCVgGNPevFBkT6cf1lOklWycw7M7Ssl0a+D4B2wiGAZc+73nknR7fdeNBqorroWETHQW44+KVhguxPrDjPMblS3lE/9a9lkpz16XpS93ZVMgexpGfOOJtMSR0YfKcEtwHmy9kl1+QJLVRWadxH5GvWV5zc1FpnDL+EHyY/7W7/bvBfBP9qopL8Zzb+MQP/qYEB/Kd1wxR/2ks/7+O/JPwPP79U/Dd8Jt27KP65/5Ihwp/P+M/6lmxzMfynLm7ocWf6D5+N/DuCSuoMbxGNhmSWA1bOE1k5T8Tv0y2as+VHQF2Q6U5tvhL0r9WfsX939er+yz1lO/i/V84TET8lRYX+GvzHpDHtaRf/QoZKjh/z499JgrfTwZ/ZhCfUAfyzLwZMNZ0Q/JuOR+DfbdDFPyKWkYlEf0vE/411nsiEnotpsJjjGluQaAapi4pg5k6JxeSpK34h+XpLK5+Bkp6vpPyS/5ZefJN1EXE9+TzvyhDyk4YUtWcQoCJtz7N3Eo5aa368zUI6qRhDJxqwXUHeeKP7muygTE0pV/5bJtQRzGLCYD3XBGbrU6M/0gDzHVI//UN1EoukJYIWjzWPTjKGqfpckMpvSDC67i/9Z/+ReXboquGnEbTS84MNlAZAsauJ/Ue8RZ53P3WiWkh/VXTfvNNg/ZdqQd7VRI9wJpzxbw3YYjxlIYX/08M/oH4v8Ycx348FdSD+ML23/+bEpo9/1v8s45uWJfw2Jfoe/pMBuvjPWaTrO+E/3LTFv9iV/u3ngQRLKxb1vGbGzIIng2ZXgpUzpn/z/UE+A2q9mTvWBk27R5kN5Tr+75bZId3bvp0quy7YNTryJTND1JuDNTKLDLFsd9kHzvVQYx+0WCVsRHRLWSDJZwNYbLXms9aQ5VubaYz8EBOYqDfX5rPQelX9QZ/37Y72FGWk7Fk+woLGfmT+NovtKiDptqcT6g//b9DXa8jjLMcM4PixrE18k/1V2YjV2nnnYfZ1ch84m/HUIZ5vsoVOcTsHCF8DmIF/s693bUg+KuGniB54bUbij9nAY0ReJ1ILuh6yrzHxTWOV9Ti65sG/ymf8i6mompHeI7KMhPEPxb/DcxH8l4R/cj+ZVAfxb/5LIG92GZIIxX/FpJAAZ2b2odUxWcFIpQdvoAqYhhicG6MU9FI/zUIy3yvkRFMJhQZG5YW4XxuV0kov9ZwpH+LEVp4zh/TMLM2KQ/prZ72ij/dIS1H53idyZifBA6SH5ZseJJVPVIcZNAfDePcmPCiyEBCbzlyJ/aeIT7AC1X9igo8xxhvyVQLEsALIVYUN60K8eW9JPacGYPDQF101CzEGLebrMkIJEIXfixi2X8d9VH+l54Dqfyze/biHf2LVYv8UQDL+y5D8KcOPx9M3B1D/G/ykTE/wT3opWbkI/GOd8W82YvxjAP+aGfZLx4p/zaT69uvhH2PxT/jhbxDg/ufKENt/Q5mDU8bJ+yp8d4cbEU58GnN5wKnTBIRnPe+FpFE9sLBRtQ5Hs/XKeSLBRJIBVs4TYf3ZRAEhRSvnibDppt6U8b9yngitA+p3//2hnycy4SmXshpnZ1zH1uqXfVpFcZUa8MDjWiUjpVq4ZWsNO0vK4j9qAhxpab/cSfKLgpVrnTmo5WCvgW5qaHJOZ1dBo2JCkU6lt1YpZWcNM1iZBdqQJKWVslyWz1dm1cXbsvZyNqLm011S6rmaHUppryOax8jbjDUN4+2zjfrFR3Q3Vkc+a6fK4yrf7uNgZfpgx6AJjcuyRSV1gvz0fuoX+0/oua23s09rRSKXZXryVZ7iv/bxnxUdrQr+TQeu+8hB2g5QtB+Ff9JNRUxprL/Sur/038Zmz3AsEPwzi8/xq3HAKvKT+2r8YrIzN/7VL0x+H/+kYMJ/az3qZCoZNhN7xv/0s4kuaMW91ml3aHcOzUTask3xBnjfvBibmQhy2SbVEsM+bhyrDbfL0paO0VgEfMHMuqwjp7UqXsscxJ6C/0wzDWNX9AwIq95/npC8HMBwiomnIj+PKCG4ZOuHGwBI8ok7hdYZ3KWII9aOMj3QuHyxYFjbbVbamrlYpd0JE6VuZr+0jtAExAAn13Bjx18l+5H7Nd5D40QLUNeJTFzuyuz+PjZlvzFxiP1bN40JUWzSKYHUIfdRD+5l3706R4v/Qg6o+EfCf2nwr98IOy/+O91vfFImKJ+ci/uHu7bYIibOjP+2rA2NXyn+yGJ8g//kvtD+m88r/osY0P4r+CcA+FZtl5/wzwro4L/MwH9gYAD/U31N+AO+SXRrxpbP0gKj+0Z6ngaoTUpEjcHV2oKqElimLCSCdP8L6XjhlzxMm5WA2AmYafjcUtWIToam+nCFOnjRNjUgEbjMEanfrv4O2/PFSlAtlPUFx2ryhQiUTTmtt3iRdKh144HgRk33tmtyW6bXQebP7B1pgT5NTrxwaQYUW5DPC+BdYCEQWeZRtG1qQPqCAHLOOkkBDSEQTadNBbyeZHqOIdfsPg2Aeztr0PP5GvIlJiyC/5Bf1ddTgGP7KX4U/0VvVkZc2OehtpiB/0yVx+Ff+Tvjp4mF1t06Ez4d/MckK+9moat+KfFJaYyZzAz810XwX5tOawBb2MbLdThWVGJpzrqmf9AvxWvrk9apyABVxbEAqzVF2Q2U0mt2Fn6/QJxdAo9+Tbm6Rmg0b/GdJT/0UoKaSJoYuvD0vrL+wrHi8dIYkfVnkw2pXxrI79TMkm9t8Ppq70sPbczdF8rSAHJ9PeI52ZZBlthfrF1o4KrugLEjybwgXnQlrABiC5vAa5IvjEuJpMr39ioyK5OAKP7jiKTyHu2oIr0EXhf77iwLcvE3XuBt39PJ8vNkH9lHs0srACv6yP4Lxq87WRpLbcfTw39vTSLu1Oe7+GeywPGni//g30vCf4MZdUBebZiN/47PO5YXx39ZBvzPij8Yku+KWvi/l7AkcFnD4nD8ZDAIfosxWGHxUQ4977O23UNA5W+OzHyAF0o5wIUTGxOGA0QIubhBsGYuE/D3UAUaEiM3QBcCATgTQFsuIBWEdIgeMxNod1zYM9FALNirE/V2fBWWX0O+BJpOYNF0v3TkB1AJGolRKatiBs1AdSZa4nkk+TadmC5ijbGCP2zS9eSDXIGpJB/0s2X0qd/UgDNxd+kkn0Tzel3LmEMfWf95XU8nCnGfZmLg+WHY1ynWWUbQw09Nvm6TWNKJCO7gn5QVE6q3mR6fgf/aMUDrPhy6Q3+D+EfHKNaDWfg38jKIf+L3HvPq4viXCgS1tRT8s3zBRNE4kPtP6pt4+lZbVQnnJPbjI3EHtR1J0cHcQO/5gni+mWlyiQP6PDNj70NNwivL0Qkxd7JXUpH+dD73/gvjkyk2HMaCVSU9TftT9e7m4tTemQCrqbb9HzKAyC8hv9eDbgbYMNWe+XiDA6T1vEjZK59k1hz/jnKlwcHziqry+PcMKFkDEmbWBlC5j5k6tRvMUOXznXn8rqdaw6ZDPkBESNaHSB+Y9Tz9KZeYZ+FffSH7RCFApVW10poDnef7+O/pbwD/BaS/wHtuQPEvoRuOvkQUm8XoJB8SfwDGv7U7C/8RJYK4zLoa/Kj6Z9ueFDAUf7oRKOGvJPnA9Nt4zRixAKazI5OJwh0iRmk7d2oSwusjMnDnGPZh0XJBmkgyAVKmMO1DYgFGhTIrU0eYdouKhHlnRmuNcIj4KL/5q9sKZU2km9jQ8pfo1shUvHAomaH9h4qkkQUQSDprSCV+1bsTa8pZYXYus0GbhURpiz2oy8ypA1FHDlnGkLV0Si0U7i8ppsPKnJk1CiAWP/3dJ5aiSsuBUP5VtVkueYVeqsg1lpeDicnnNRHNDNlyQz6Lxleb7J3wnzdO9PAfmWGMnHfThfpn4z8+zPhv4w968l1/8+G/L98UOf3LnPjn7JHxj1n499pRpihF9Oe+2DEgh98wv+JfxuYZXtzXuj/3V8lzD/92y8QcvJLhcjlLB8JjD+YTW8A4naSxE1Hi55151UjfyoD8PEcyb+NdKlyTjT5HBzrzEzHbIgCVQTefxU+Wr3VYZj7EAlKWJjvbKJ0V5uU1yRxgrH9md9oJNnUalu/ZyHRczoIQz2dH6i308QDIfLImog7QOnhNz7Mr5wwk3GaajVAL/jxNZE0GRLq23YOyLkJBOWckYQtGH+uSMpvkfm5/s0V0pPEfn0ga94tJVfXCnpAn/gH3Zfu7+1Dg7tTTlE2T9Zx9p/7PiX+3CBHHjP/0+OznPRBn/C/cx9mIZA0WH0of/7wLr9H9Ivg3+7Gv9/Gf4k8OuuRrLjcM6Fjnd9Ya+Q3+I7Zm/HNZIePfuj/hB5yZ8YyVdh/EL+n7qKYTDwdCn4dr20C/nATNQGjms/5pA/p5MNuGM7lis02UwYWjdF8wyjsxKGDYvIuOfDFMDXn9HR+ptps2ONQB+dQAfE0EBGaRzwbQ/R5N4ITKl75mpgPKQCTjax0gbBW2i3VJ5V2NY7OwPPyIA2r+pD+TIxaVzRDN46kmnrIIJy6N+VP/6XmxX3FMCfwgHRicSMQrqjxCcaCovFTOavDPf7THKvcl2Kvgv86Df40fxe+ltQUrG7aPc/dD75bxeManGuzhnyi8f9jH//A3A/j6wsz4k/CHRCTtM44/qAmzKQvJ+J9i2tdETM8z8Z8eV8WIA7X6q5hwOqur+M30LVkAp6kukH4qS6YZ02px5He88Ow/h+TXaCscib+lVN/DgPSZ2gode5s1G1cMrUHf+jow/E7/IwswIMpOLh6TORJ/LCyg9OWTF+S1Ba3/53SWFq4hyYwEQGaJ1RyS7SuMJxqQjDNlMVzO6tlBJvdKLNBtEgt9zjBTEA2XURbHX+MgmWHtPy+fp3KW6S/kQBso0S/uq1D6QfkNde9MJPwVP8zXSS/Sbu4/72iMdZHs8+wLhf1yCP8FA/ivHfzTTyY3Cf9Fu0+EMyamefEfdmuDI/JY0+fydyJMw/gP0mKxygfGP7N8UMNzxB808hfDf3I/ZP1RnxL+J/ZnZdOFtesN5VoZb1+T2awEH5NErtDT1FmTLzU5Cg7WbnyuwbIxrMvhWjnk7/n3IF08H7csj3MV6T+zKU9HyCqquZTgwskK16U5KLm+w8Ma5p0ZWtZLI98HQDvhEKa3513vvJOj2248aCVlXXQsouMgNxz80jBB9idWnOeYXCnvqJ/61zJJzvp0Pal7uyqZg1jSM2ecTaakDgy+U4LbAPPl7JJr8oQWKqs07iPyNesrTm5qrTOGX8IPk592t383+C+CfzVRSf4zG/+Ygf/UwAD+07phij/tpZ/38V8S/oefXyr+Gz6T7l0U/9x/yRDhz2f884A3ZP+UbV+cHnIw8i12zILgEdjZysp5ImlSitTcmV5HvugPBBrTh6T2NTKZ5Mgr54ksyHT/NV8J+tfqz9i/g626/3JP2Q7+75XzRMRPSVGhvwb/MWlMe9rFfxN/Mn7nxL+TBG+ngz+zCU+oA/hnXwyYajoh+Dcdj8C/26CLf0QsIxOJ/paI/3nPE5m4O6S0L3Y1QB8W9UB/t2mwmOMaW5BoBqmLUgM2MekcHGkvaZR/Ifl6Sys/nmHGYF3nCU3/ll58k3URcT35PO/KEPKThhS1ZxCgIm1PvLa1R6358TYL6aRiYlFvwHYFeeON7muygzI1pVz5b5lQRzCLCYP1XBOYrU+N/kgD8V9RP/1DdRKLpCWCVrMThh6RjGGqPhek8hsSjAH8sAXZf1v4tVcNP42glZ4fbKA0AGL81xYYqf+8e4iCJtmPdd+802D9l2pBL/5oFsL/9e5bA7YYT1lI4f/08A+o30v8Ycz3Y0EdiD9M7+2/ObHp4z9lkTOvhH9KGGbhPxmgi/+cRbq+S5meiU7ljPyintXfuD6cNca1MzeO1auJdYQxeMikXytnmPzpv2IG1Hozp9dt0LR7UmYlBUfqf5ud0b3t26my64JdoyNfMjPQdys5a2QWGWLZ7rIPnOuhxj5ogVbYiOiWskCSzwYwd7Dms9aQ5VubaYz8EBOYqDfX5jOGgugP+rxvd7SnKCNlz/IRFjT2I/O3WWxXAUm3PZ1Qf/h/g75eQx5nOWYAx49lbeKb7K/KRqzWzjsPs6+T+4Dxj4z/nC108a+Bv1aQ/vr4N/t614bkc/wR/HO2keKP2cBjRF4nUgu6HrKvMfFNY5X1OLrmwb/KZ/yLqaiakd4jsoyE8Q/Fv8NzEfyXhH9yP5lUh/A/4c8dPIkBCt2Q1DPeL2Yw+4dWx+THkUoP3kAVMA0xuJjMCnqpn2Yhme8VcqKphGL+EY6dGYgwMy6t9FLPmfIhTmzlOXNIz8zSrDikv3bWK/p4j7QUle99Imd2EjxAesT+pSCn9c33HpH6ORjGuzfhQZGFgNh05krsP0V8ghWo/hMTfIwx3pCvEiCGFUCuKmxYF+LNe0vqOTUAg4e+6KpZiDFoMV+XEUqAKPxexLD9Ou6j+psT//yUr8Vk/BOrFvunAJLxX4bkTxl+PJ6+OYD63+AnZXqCf9JLycpF4B/rjH+zEeMfA/jnDGyodKz410yqb78e/jES/xt65uL53XTaqsSarE7HNbOOapj9a7dod4cbEU58GnN5wKnTBIRnPcQMjNBSDyxsVN6bztspV84ToZpoMsDKeSKsP5soIKRo5TwRNt3UmzL+V84ToXVA/e6/m/p5IhNbWMwlAwOUrkMkJVEZg39ldsZ17KIwhwfRlPYFOSjmK0yRQrvmHIiEsGFnSVn8R02AIy3tlztJflGwcq0zB7Uc7DXQTQ1NzunsKmhUTCjSqfTWKqXsrGEGK7NAG5KktFKWy/L5yqy6eFvWXs5G1Hy6S0o9V7NDKe11RPMYeZuxpmG8fbZRv/iI7sbqyGftVHlc5dt9HKxMH+wYNKFxWbaopE6Qn95P/WL/CT239Xb2aa1I5LJMT77KU/zXPv6zoqNVwb/pwHVP8afpAEX7Ufgn3VTElMb6K637S/9tbPYMxwLBP7P4HL8aB6wiP7mvxi8mO3PjX/3C5PfxTwom/LfWw8J7ICDMFbKG1MlBwniKlAUt9wPvdKydwIMTZyJt2aao/Hic0ixOm3LZJtUSwz5uHKsNt8vS0/bIBxV8wcy6rCOntSpeyxzEnoL/TDMNzv5Ef4jPEKWesEUyoAPH5PPziBKCS7Z+RBaKJJ+4U2idwV2KOGLtKNMDjcsXC4a13WalrZmLVdqdMFHqZvZL6whNQAxw8hpO7PirZD9yv8Z7aJxoAeo6kYnLXZnd38em7DcmDrF/66YxIYpNOiWQOuQ+6sG97LtX52jxX8gBFf9I+C8N/vUbYefFf6f7jU/KBOWTc3H/cNcWW8TEmfHflrWh8SvFH1mMb/Cf3Bfaf/N5xX8RA9p/Bf8EAN+q7fIT/lkBHfwXFP4qk7BNeFK4RFvXjogmTKhTX3Vjy2dpgdHlp+dpgNqkRNQYXK0tqCqBZcpCIkj3v5COF37Jw1od2Ph7ATMNn1uqGtHJ0FQfrlAHL9qmBiQ1YOyxj8AqBLa2Dmng9kiWnhf5jtAIFlJO6y1e9HxI2hrYmusBjoJ80jMvrg4yf2bvqKx+skXcL5sBSgo25PMCeBcYDuQApazMfd7sz31BADlnnaSAhhCIptOmAl5PMj3HkEfgn4NZlySEfIkJi+A/5Ff19RTg2H6KH8V/0ZtF9zEJp/hDA+jhP1PlcfhX/s74aWKhdbfOhE8H/zHJyrtZ6KpfSnxSGmMmMwP/FXXhRUIHW2XFmYMV6ayPxWY7rsOxohJLc9blcow96HfYa31Q3wBlFccCrNYUZTdQSq/ZWfj9AnF2CTypvKcaIOWScywiP/RSgppImhi68PS+sv7CseLx9E5KVf3ZZEPqlwbyOzWz5FsbvL7a+9JDG3P3hbI0gFxfj3hOtmWQJfYXaxcauKo7YOxIMi+IF10JK4DYwibwmuRLxqVEUuV7e1VBngmZ+A9ceOCPdlSRXmK+Xuy7syzIxd94gbd9TyfLz5N94L/ZpRWAFX1k/wXjFxx/aCy1HU8P/701ibhTn+/in8kCx58u/oN/Lwn/DWbUAXm1YTb+Oz7vWF4c/2UZ8F8A+yoTBgrNfsz0MgG3Rql0IazM+sd2oYZ8EchTUN7aWXyUQ8/7rG33EFD5myMzH8jblJvUzdN8OECEkIsbBGvmMgF/D1WgITFyAzQrG5wJoC0XkApCOkSPORNod1zYM9FALNirE/V2fBWWX0O+BJpOYNF0v3TkB1AJGolRKatiBs1AdSZa4nkk+TadmC5ijbGCP+R0XfqPuNd9neSDfraMPvWbGnAmDsVfmwHYGMM8HfLb1X9e19OJQtynwT/PD8O+TrHOMoIefmrydYs/SSciuIN/UlZMqN5menwG/mvHAK37cOgO/Q3iHx2jWA9m4d9i8iD+YxqDx7y6OP6lAkFtLQX/mJ4HohAkB6ikeGIvakdjV+i3QQ4nz1Mq6Yqr0cHcQO/5gni+mWlyiQP6PDNj70NNwivL0Qkxd7JXUpH+dD73/gvjkyk2HMaCVa1iF3u8DjqqpvbORFhNte3/kAFEfgn5XR/qZYANU+2Zjzc4QFrPi5S98kkva9b6f7zY5nlFVXn8ewaUrAEJM2sDqNzHTJ3aDWao8vnOPH7XU61h0yEfICIk60OkD8x6nv6US8yz8K++kH2iEKDSqlppzYHO83389/Q3gP8C0l/gPTeg+JfQDUdfIorNYnSSD4k/AOPf2p2F/4gSQVxmXQ1+VP2zbU8KyPFnojs7YlBhyEpUFxR4EnsvkQp5+jr1HCYThTtEjdrOHVHGgHwqWHkPfAHJHDpNJE0CJUxh2ofEAowKZVamjjDtFhUJ886M1hrhEPFRfvNXtxXKmkg3saHlL9Gtkal44VAyQ/sPFUkjCyCQdNaQSvyqdyfWlLNCtkvoD50sJEpb7EFdZs6+CZXPpTUtnVILhftLiumwMmdmjQKIxU9/94mlqNJyIJR/VW2WS16hlypyC9k4l0ti/OGreSJqfDNfyVdn4T9vnOjhPzLDGDnvppsVfxj/8WHGfxt/0JPv+psP/335psjpX+bEP2ePjH/Mwr+XvjNFKaI/3qCTDcjhN8yv+JexeYYX95n7TaIfwUR4zzQ/kGuT8SttAbNgVJWR9rIRacHSP3ckohBFuifPO/OyDtoCbkd+5sjM23iXCtdko8/Rgc78RMy2CEBl0M1n8ZPlax2WmQ+xgJSlyc42SmeFeVkWIszeFZACDMQHWL5nI9NxOQtCPB86QTBgyUJyBhd65TURdYDWwWt6HtDskp8Jt5lmI9SCP08TWZMBka5t96Csi1BQzhlJ2IInEtYlZTbJ/dz+ZosWgIqfRddEWC/sCXniH3Bftr+7DwXuTj1N2TRZz9l36v+c+HeLEHHM+E+Pz37eA3HG/8J9nI1I1mDxofTxbzFSbdLar4d/sx/7eh//Kf7koEu+5nLDgI51fmetkZ/wP4FcNoMGG+AynlZjwkl4z39sUSzxk1qPX9L3UU0nHg6EPg/XtgGdhHm2pAyEmK/1Lw1VPg9m23AmV2y2iTK4cJTuC0Z5JwYFDJt30ZEvgbmGvP6Oj1TbTRsc6oB8agC+JgICs8hnA+h+jyZwdvwk9JeYDigDkYyvdYCwVdgu1iWVd+WJTYTl4UccUPMn/ZkcsahshmgeTzXxlEU4cWnMn/pPz4v9imNK4AfpwOBEIl5R5REqLxaVl8pZDf75j/ZY5b5ERiX45/gziH+NH8XvpbUFKxu2j3P3Q++W8XjGpxrs4Z8ovH/Yx//wNwP4+sLM+JPwh0Qk7TOOP6gJsykLyfifYtrXREzPM/A/4YXGAGSafRCLjaG06sqzgKWr+M30LVkAp6neKP3M8uHya4AqpZMWDnrsz+XXaCscib+lVN/DgPSZ2gode5s1G1cMrUHf+jow/E7/Iwtw9Xs66x1VR+KPJQsofflujzQ5GaBrTO9sAFm4hiQzEgCZJVZzSLavMJ5oQDLOlMVwOatnB5ncK7FAt0l8tYYzzBREw2WUxVnYkvq0gbDzvHyeylmmv5ADbaBEv7ivQukH5TfUvTORKP5TB1IW5E6BBv8+CcQY2OfZFwr75RD+CwbwXzv4p59MbhL+U/giwhkT07z4D7vlyUV1XTqfy9+JMA3jP2KxxSofGP/M8kENzxF/0Mgfxn+cB1L5DewCZbmFP6LORvRSNl1Yu+BWJQ8oEl3inhJ8TBK5Qk9Xlk6TXIE7ZoCCus+1QWpADOtyuFYO+Xv+PUgXT+cty+NcRfrPbMrTEfMU/4s6BV9uptAyByXXd3hYw7wzQ8t6aeT7AGgnHML09rzrnXdydNuNB62krIuORXQc7JiDXxomyP7EivMckyvlHfVT/1omyVmfrid1b1clcxBLeuaMs8mU1IHBd0pwG2C+nF3Og//kPiJfs77i5KbWOmP4Jfww+Wl3+3eD/yL4VxOV5D+z8Y8Z+E8NDOA/rRum+NNe+nkf/yXhf/j5peK/4TPp3sXwH+eBCBDps1IIqLYTxf5eNVtlhXF6yMHIt9ihK8vZysp5ImlSitTcmV5HvugPBBq3VVAd3/kmz0/7THE7v6cTawDcJj9PjK6EfO7j4BbfajqksF1i/JZxaAkmJpeennNWPEt+BNTi/u5ZGWqUGXv6Y0zYQ6UIUMPVk/5WzhMRPyVFhf4a/MekMe1pF/9N/Mn4nRP/ThK8nQ7+zCY8oQ7gn30xYKrphODfdDwC/26DLv4RsYxMJPpbBP8TNzwNxjvdzEJp9vVfIxiT26VdBWRpApT8btNgMcc1tqDypS5KDdjEpHNwpL2kUR2Ey9dbWvnxDDMG6zpPaPq39OKbrIuI66lu064MUX8aUtSeQYCKtD3x2tYetebH2yykk4qJRb0B2xXkjTe6r8kOytSUcuW/ZUIdwSwmDNZzTWC2PjX6Iw3Ef0X99A/VSSySlghazU4YekQyhqn6XJDKb0gwBvDDFmT/beHXXrWDf6TnBxsoDYAY/7UFRuo/7x5CG3+Y3XMWorwtVQt68UezEP6vd98asMV4ykIK/6eHf0D9XuIPY74fC+pA/OE01v6bE5s+/lMWOfNK+A/1z8T/xG5QMC38p13QiVSXyungelJ+Uc/qb1wfzhqrlSUUi3pes2dmwZNBsyvBsiiTP/1XUCitN/O426Bp96TMSgqO1P/SDIvubd9OlV0X7Bod+ZKZIerNwRqZRYZYtrvsA2cDGvugBVphI2p+qXdHPTRuMnew5rPWkOW7T3XeIOYMk+QbqPNnDAXRH/R53+7o7psWG91zgoVl+5H52yy2q4Ck255OqD/8v0FfryGPsxwzgOPHsjbxTfZXZSNWa+edh9nXyX3A+EfGf84WuvjXwG/xx/7fw7/Z17s2JJ/jj+Cfs40Uf8wGHiPyOpFaUKs45GtMfNNYZT2Ornnwr/IZ/2Iqqmak94gsI2H8Q/Hv8FwE//8fhEgycqYdgAEAAAAIdEVYdGNvbW1lbnQAD7r06QAAACV0RVh0ZGF0ZTpjcmVhdGUAMjAyMi0wMy0yMlQwOTo0MDoyMSswOTowMHwQplYAAAAldEVYdGRhdGU6bW9kaWZ5ADIwMjItMDMtMjJUMDk6NDA6MjErMDk6MDANTR7qAAAAAElFTkSuQmCC;" vertex="1" parent="2">
                    <mxGeometry x="30" y="100" width="50" height="50" as="geometry"/>
                </mxCell>
                <mxCell id="4" value="" style="sketch=0;points=[[0,0,0],[0.25,0,0],[0.5,0,0],[0.75,0,0],[1,0,0],[0,1,0],[0.25,1,0],[0.5,1,0],[0.75,1,0],[1,1,0],[0,0.25,0],[0,0.5,0],[0,0.75,0],[1,0.25,0],[1,0.5,0],[1,0.75,0]];outlineConnect=0;fontColor=#232F3E;gradientColor=#FF4F8B;gradientDirection=north;fillColor=#BC1356;strokeColor=#ffffff;dashed=0;verticalLabelPosition=bottom;verticalAlign=top;align=center;html=1;fontSize=12;fontStyle=0;aspect=fixed;shape=mxgraph.aws4.resourceIcon;resIcon=mxgraph.aws4.sns;" vertex="1" parent="2">
                    <mxGeometry x="180" y="100" width="50" height="50" as="geometry"/>
                </mxCell>
                <mxCell id="6" value="" style="sketch=0;points=[[0,0,0],[0.25,0,0],[0.5,0,0],[0.75,0,0],[1,0,0],[0,1,0],[0.25,1,0],[0.5,1,0],[0.75,1,0],[1,1,0],[0,0.25,0],[0,0.5,0],[0,0.75,0],[1,0.25,0],[1,0.5,0],[1,0.75,0]];points=[[0,0,0],[0.25,0,0],[0.5,0,0],[0.75,0,0],[1,0,0],[0,1,0],[0.25,1,0],[0.5,1,0],[0.75,1,0],[1,1,0],[0,0.25,0],[0,0.5,0],[0,0.75,0],[1,0.25,0],[1,0.5,0],[1,0.75,0]];outlineConnect=0;fontColor=#232F3E;gradientColor=#F34482;gradientDirection=north;fillColor=#BC1356;strokeColor=#ffffff;dashed=0;verticalLabelPosition=bottom;verticalAlign=top;align=center;html=1;fontSize=12;fontStyle=0;aspect=fixed;shape=mxgraph.aws4.resourceIcon;resIcon=mxgraph.aws4.chatbot;" vertex="1" parent="2">
                    <mxGeometry x="334" y="100" width="50" height="50" as="geometry"/>
                </mxCell>
                <mxCell id="16" value="" style="edgeStyle=none;orthogonalLoop=1;jettySize=auto;html=1;exitX=0.92;exitY=0.5;exitDx=0;exitDy=0;exitPerimeter=0;entryX=0;entryY=0.5;entryDx=0;entryDy=0;entryPerimeter=0;" edge="1" parent="2" target="4">
                    <mxGeometry width="80" relative="1" as="geometry">
                        <mxPoint x="80" y="124.33" as="sourcePoint"/>
                        <mxPoint x="270" y="124.33" as="targetPoint"/>
                        <Array as="points"/>
                    </mxGeometry>
                </mxCell>
                <mxCell id="17" value="" style="edgeStyle=none;orthogonalLoop=1;jettySize=auto;html=1;exitX=0.92;exitY=0.5;exitDx=0;exitDy=0;exitPerimeter=0;entryX=0;entryY=0.5;entryDx=0;entryDy=0;entryPerimeter=0;" edge="1" parent="2">
                    <mxGeometry width="80" relative="1" as="geometry">
                        <mxPoint x="230" y="124.32999999999993" as="sourcePoint"/>
                        <mxPoint x="330" y="125" as="targetPoint"/>
                        <Array as="points"/>
                    </mxGeometry>
                </mxCell>
                <mxCell id="20" value="SNS" style="text;html=1;align=center;verticalAlign=middle;resizable=0;points=[];autosize=1;strokeColor=none;fillColor=none;" vertex="1" parent="2">
                    <mxGeometry x="180" y="150" width="50" height="30" as="geometry"/>
                </mxCell>
                <mxCell id="21" value="Chatbot" style="text;html=1;align=center;verticalAlign=middle;resizable=0;points=[];autosize=1;strokeColor=none;fillColor=none;" vertex="1" parent="2">
                    <mxGeometry x="324" y="150" width="70" height="30" as="geometry"/>
                </mxCell>
                <mxCell id="19" value="Budget" style="text;html=1;align=center;verticalAlign=middle;resizable=0;points=[];autosize=1;strokeColor=none;fillColor=none;" vertex="1" parent="2">
                    <mxGeometry x="25" y="150" width="60" height="30" as="geometry"/>
                </mxCell>
                <mxCell id="7" value="" style="shape=image;verticalLabelPosition=bottom;labelBackgroundColor=default;verticalAlign=top;aspect=fixed;imageAspect=0;image=data:image/png,iVBORw0KGgoAAAANSUhEUgAAAOEAAADhCAMAAAAJbSJIAAAA/FBMVEX/////Q0A2xv8NxG79ywL9ywEAw2v/Pjv9xwD/+N/p+P8bwv//Lir/5eXe9utS0pMAwGLi9v//6urm+O5n0///dXL/+eX92VT/jIv/eXeF2f922KP+3HNM0pD/PDn/+Pj+2Ez/TEn/NjL4/f///vjx/Pf/9PT/ZGL//O6t5v9Zz/9Cyv/E7P+h4v/R9OT/f33/qaj/vbz+7LP/h4X/sbAlynzV8v921//G79ma472m5P//3Nz/z8//88n+5aD+4H/93Gb90zf/oJ7/l5X/VlT/aGb/8sL/09Kp6coyzoV53ay67NOv7M+c5cCF4bZz3Kv+5ZL91Cj+6qn+3V8ynWgiAAAMzUlEQVR4nO2cCVfiPhfGi7RF8a8gKjooIJRFBFEUUByQ1QUXBvX7f5c3LYK0Tdobmrbg28c5zJw5RPrjudlzw3EMJe0UYntnxeLZXuyuLklUZXef/8WHNb+/Fv/3Xs6yfCpmCtbPi5uba9/a3CzGSkFg0Wy5MQyHRdEvSxTFcO1l+SCl0s3aDG9KuVeAMGZvX/zhCd1UiDL0umv7Q9OoHlvDafOmZBqr5ZFfjfcN6T+6pYtzOyUVzrCASMVzExtf4yIOUGYcNpYlVKXzIgkQ6WbHqOh7jcA3sXE5ECV8hM60R3Yx28BG6A9jfCkC9Ubbwmh1RkKURmEjPiVSHUXB69wMELWpBCfezQARYsj1QC2ZAiLEc2zRW8MInarhMJBWO8RWVKU6pmjWoJGZM7F26ziUSiatzFS4OB2BLPSLR652/XWjfmJeBV3RW5CFsp5dAJvKrKOYM1HXnr5AAcXQthtsE9VhtRCpqDXxdggl9IuvrsApKkAB19ZimprYgPLJNdG1HiMIDlIUpurmdPcIbCGaM7oWpsCuYhKmJVVRiiD1+8OuhWkdDqhtTd/gfChMRy4BgsYzU22eqypig8JCNAB3CVC6oyBci833F1lwX6EQ1lxqaiTzQfecbuYJqRoahOgWIUVTqpkJb4eoCMOueUhDuGeF0KWhKV2UriIhV/j1hDS9xWoSgudOK0u4s/fbCaka05Uk5Eq/npAmTFeTkKMI0xUlpJghrighd/frCSWwiatKyAV/PSG4x1hdQq4AG7utMCEQcZUJpRKkuVllQjTJuPnthJxU0J2m+WWEZgcyfgMhUil2ViRibv4GQmRkvXAeI0h1dGhlCcHyCD3C5ZdH6BEuvzxCj3D55RF6hBYlIQUtSC6/vITSTim2V1zbtKS14t55KWhEyZxQysoy5wuWYkWafV2yTLKCmBJmt8u37yOkxuutcTZRsABYbqGAXLspkHxkSLj9Oor7xbAoK+wfHj2TT02XmPJNFMMd8GZJWG6E/PNJNwhzOMIzmq6zLKYzvI2MCKVGXJ+SghhfcMc1bTBwonMcIhvC7SE+5QYx6s5rwreQqLUZwzQ4TAjfyClFovbApkRzqIIFIgvCZ8OcqXBoPnbojuDRI+pTZhgQvhsnhfnDc6fDpTtbGpk5xJL28awTvpmma4ijGSI8p2BRFbVxapmwbH5OXKxNU1FoTtwvqhhjwiykvDgsT95Nc+xnUWlO6lsmfAYVF1+UOA3a1hPOK8aUUDJpZWZSRjd1NkNtE2lMtEhomnv6rUl+pgO1UNY5S0KohX4R1UTJ5p5iKtVRfYuEb/CkMDS02XEkSNEQvM6OEJ7KINYoz2pbUYkZYZYiZyq87VQ1XNu8Y0Z4W6Mo+czZOeZWSZWAaInwmaKk+I9zqKHRNDWWCEc0hPFVJKTJChOHnFOA1vKeVIRUWWG1FfEwa4HQ9pnTVDFm2Xk0ZVGUutOWWsqwpCKMO9cfqvOAAdeaqB5zYcJ/Lo1pLGU6UxE2uKAr41LKbPXbhQnDZTtXSlXSLClmKR5TrC068EazLFT7qRKyF5dqWCpXRLgP34sRCxEeoffvONIjnmm3aACLZTNpluhpCOX4lmJOmKhdbKO6vWV3UUIxrhSlygRdUEX9pW3lhW/goSB8UwrQJZ0vJtxVWOBblLTbumDCmftUya4L6QwDyHGgmigOdfudUEKxNqvAJZvjtIjfCS6DlszedeXAHjZ+BooUdwUtIv01WBMZ749NfBjpN1iBhKpLwuhuR6CVtiv8kcm1ieotMkpCMa7a6rYT8Y58sMbsZsgw9q42EKE41OzlS3YFqu6SL7WMAlWc2wGkJQxrO1HOrl1E3VhGKzS2Id3QWnvDFzEnJHw3Npw3KeKvhFRrVMP4KIq1I9INX2aEoj9EOjVUjzH18SxmdP3sj8ovQ9WpH/nYT+2IfL+XISEqGno3OPpVP785M81CA2gT4d2ZBegc4/vR0D85uIXkH4YaRveXHYlk1eIvzyYH+IL10l3s5mbPgm5isUKpTnc/brb8+j46CoVCRy+Nt1vjo4ijOFao7Oj5tQz6XCkY3LGgoOHBSwPK3d3t7V3zI5ToXVjtAsp68uTJkydPnjx5Wh0lI5EtvHKmZXOobCRi/j6cTqMblhQ9BdH9bVZ71xd/sNq/NCwbaVYu+6joxXW/WnmiozxtXd23OweW1GnfX7Wixp8TqfQfUol0gqD0oUHZZu/PIDAtmvblr6t/wXyt+05X4BlI6HbGLfLn5Kr7qUTAR1aATNi8HgRUZQMJX74PY2wdy3iCwCs/mhfSv/H/If+e7jGJsbnvM8IzIowcpgL6sgHfoA8AbH9MHo2R0C/7aONiNdkztM+QsJJKEAok8mY2tro82CZzD5W/0Lf18ah3YT9txkcizPXS5O8mkaoY8WXu5S+duRDmfUb9SVsPAEA8YeTQsGggdZkkA44FnsImoIfKy/pYhbi1Twgzc8Lktcl3E/AREWVAGggaQoGfR4xcm1ZBEmGyb2p+wFclEN7bEKA/kSrc/zxlD8SHJaxCiqXwzU2L5+3zEP18XE0/qTmAWYghhBVN5LGEXRsdlE3kTza+Y/QPqBLiCHPXsKKJHgawjb5rWz2cVcUKpBnFE1agBQf6OG192GuhYqMyuok8AGNUTxi5gLrv0w9ujgVqm2g9FPhjebrRBFuoI2zCS+rGNmgsYz+hIGzI/RnYBy1hrg8vqusx7hkORclaHyNC+ENqCSPQNhgpca2eL552eAc8RAPUDPf3v4UJKeIbhemTNkidkMBHuUuax1QT0gSpz6cegV8tYhO9h8L6J0dRDTWEyX14kPp8aXVFvOcXgFiAkO9w8L5CR5iiAPQl+vMV8bTtSJAinXADiqfUEFLEt9zURObKRjsOeSh8WCDMUbRRiPBinnDjwCELBd4CYYSKMLC/pSZ0yEOey9M8Zp8hoWMeUjWIPVaE0S/n6uEhRW+hXlWyQnh67FRv0eWqFC3i4IkVobzG5oy+uC2KqUU+yYrQsTENP+aS8OFz4JpjRvjowPwXSVhH0yfzxbLZQ1bYEW58OTO3EDIc9xe8SpPi2BFyY0FwgvAYEeagSxHpHkvCKyfCVOCVhZomcDnYl2RJyHWciNIvZVs4B+sSE9otFouEV7ztyxiC8L0F9ZQHuJi40O4+WCSUTbTZw8lSm6xKyhQRsxFolXADt+/LkpDvzjaDzTcuAgP9NqBVQu7T3jhV7T7ljPcAUUdR1e+QWSaU1/Xt9LAzv4OYPDR6XPz+mHXC0+N121wU+BPN8Zo+eas64cPuVFsnVBYzBApXaDz8yGg/rZnHH8UI+B4i+mdjQ8idtgU7KiP6pQeYT9vqD/RHRhK+hx5hk5oFIZpGdaedBkMP+Y+xzsGJjf18Yv7MSSCR2r/EPhgzQjTLOFY9GxPCjv6wyVRP1cO8L51OJxLoJbXfqxD5mBFyp59fArMzJ/Jo++DT8HBb7u9Tpdrr9y+rzact8jkRhoSowXk8nlYfax7y/Dryb8PoqSdKJnNJQzjGhPLBy8d2V+DXLYkXuu3HDdARTJhYEiJlZEUtSPkF7PDYEy6hPEKPcPnlEXqEyy+P0CNcfnmE/9+E0fExXu32/SPD2YE1WTqpcEKawAr8R/frk+0cYVFZJBSIkknby8Boh4c/SxG6pBcXZNVD44UKnj9ouc1oLyH603W7OtoXpd+xSlz1dEo2e6iE6tg1Oll2e6j4+OkaHueIh+gHsPhpm5zwkOe7LlZFZzx0syo6RHjiXpw6E6WC4J6JDnnIH7hmojMeItAr4iMsNyF4A413bZ7hGKFrbY1DUYpIDe7yWGZCsIcCT96VX2pCCrk1GXbOQ7cmUc4RutWYOpfZ1XZpfdFKdt4GVVaQW1FqJcMy2lmFlsZKlmxmvAq9haVMZ4rzwe71+Jay1a8oRm1d1yYXWyk4ofbGgdYJOCvo58S944Le3aJIc11fBpzMLbi53tYEE2qDVKmIMA/ncgqcl4W7e7joAaytcXF6KMvKDTxjYD3sutZXyIpcwLpE3C1Kp8oWoimh0HYea16wm7ACA9xVn4+AMHWzq/jWJchCbTMzUXvd1EOBd20ZaqokID8zTbiRLnNi5qKw7nKMKsqbIaZJCRtctIsdhs5eBP7L7W1gWSYDcINrE78nwuQ6KHSWAVBOfDNIXwwMMFlvP9qYuy5K46Hg3sxXp2SVGKmJfcPrS1GfMeZ5QlZQ935ZAJGeDn04xnSqZ3rUK/P4hUmYQYTE24DdUa55kdbc0htIp/pP5nkpKFKvdPMMXvhanrNfU+We+qn/ppSBRDqdr/6FXukdfewI64p1ipnrH+3W0vEpSm5VDx8GKV9qsH9YiUDsmymTaY2/uh9I3c54g2kL+j/DfU2PbKfBcwAAAABJRU5ErkJggg==;" vertex="1" parent="1">
                    <mxGeometry x="650" y="380" width="50" height="50" as="geometry"/>
                </mxCell>
                <mxCell id="9" value="alert-dst&lt;br&gt;" style="text;html=1;align=center;verticalAlign=middle;resizable=0;points=[];autosize=1;strokeColor=none;fillColor=none;" vertex="1" parent="1">
                    <mxGeometry x="640" y="430" width="70" height="30" as="geometry"/>
                </mxCell>
                <mxCell id="15" value="" style="edgeStyle=none;orthogonalLoop=1;jettySize=auto;html=1;exitX=1;exitY=0.5;exitDx=0;exitDy=0;exitPerimeter=0;" edge="1" parent="1" source="6">
                    <mxGeometry width="80" relative="1" as="geometry">
                        <mxPoint x="470" y="400" as="sourcePoint"/>
                        <mxPoint x="650" y="405" as="targetPoint"/>
                        <Array as="points"/>
                    </mxGeometry>
                </mxCell>
            </root>
        </mxGraphModel>
    </diagram>
</mxfile>
